<?xml version="1.0" encoding="UTF-8" standalone="no"?>
<svg
   width="912.57623mm"
   height="94.494041mm"
   viewBox="0 0 912.57623 94.494041"
   version="1.1"
   id="svg8"
   xmlns="http://www.w3.org/2000/svg"
   xmlns:svg="http://www.w3.org/2000/svg"
   xmlns:rdf="http://www.w3.org/1999/02/22-rdf-syntax-ns#"
   xmlns:cc="http://creativecommons.org/ns#"
   xmlns:dc="http://purl.org/dc/elements/1.1/">
  <defs
     id="defs2" />
  <metadata
     id="metadata5">
    <rdf:RDF>
      <cc:Work
         rdf:about="">
        <dc:format>image/svg+xml</dc:format>
        <dc:type
           rdf:resource="http://purl.org/dc/dcmitype/StillImage" />
        <dc:title />
      </cc:Work>
    </rdf:RDF>
  </metadata>
  <g
     id="layer2"
     style="display:none"
     transform="translate(159.6231,-244.84608)">
    <rect
       style="fill:#4d4d4d;stroke:#ffffff;stroke-width:0.730345;stroke-opacity:1"
       id="rect12"
       width="1056.4274"
       height="442.38452"
       x="-240.90736"
       y="24.054256"
       ry="9.1165762" />
  </g>
  <g
     id="layer1"
     transform="translate(159.6231,-244.84608)">
    <g
       id="Tiles_A_white"
       transform="translate(53.234659,-10.899879)">
      <path
         style="fill:#ff1255;fill-opacity:1;stroke-width:0.764121"
         fill="url(#4LyKu8AtUK4gmSHjQsrKja)"
         d="m -179.49529,295.39666 c 0,0 3.59213,-4.01166 8.02327,-4.01166 4.43115,0 8.02327,3.64105 8.02327,8.02327 0,2.71647 -2.67518,5.34809 -2.67518,5.34809 l -12.01814,12.01963 c -0.74729,0.74733 -1.95994,0.74733 -2.70723,0 l -12.0173,-12.01963 c 0,0 -2.67522,-2.63315 -2.67522,-5.34809 0,-4.38222 3.59217,-8.02327 8.02327,-8.02327 4.43117,0 8.02326,4.01166 8.02326,4.01166 z"
         id="path1408" />
      <rect
         style="fill:#ffffff;stroke-width:0.264583"
         id="rect1410"
         width="66.523796"
         height="94.494034"
         x="-212.85776"
         y="255.74594"
         ry="6.0476189" />
      <path
         id="path1438"
         d="m -188.93349,314.70751 c -5.25364,-5.25364 -9.55207,-9.8447 -9.55207,-10.2023 0,-0.8493 18.90508,-19.75437 19.75433,-19.75437 0.8493,0 19.75438,18.90507 19.75438,19.75437 0,0.35777 -4.29843,4.94866 -9.55207,10.2023 -5.25365,5.2536 -9.84466,9.55207 -10.20231,9.55207 -0.35777,0 -4.94861,-4.29847 -10.20226,-9.55207 z"
         style="fill:#ff5555;stroke-width:0.448962" />
      <text
         xml:space="preserve"
         style="font-style:normal;font-variant:normal;font-weight:bold;font-stretch:normal;font-size:10.5833px;line-height:1.25;font-family:sans-serif;-inkscape-font-specification:'sans-serif Bold';fill:#ff5555;fill-opacity:1;stroke:none;stroke-width:0.264583"
         x="-209.01379"
         y="268.19543"
         id="text1414"><tspan
           id="tspan1412"
           x="-209.01379"
           y="268.19543"
           style="font-style:normal;font-variant:normal;font-weight:bold;font-stretch:normal;font-family:sans-serif;-inkscape-font-specification:'sans-serif Bold';fill:#ff5555;stroke-width:0.264583">A</tspan></text>
      <text
         id="text1418"
         y="-337.75507"
         x="150.0766"
         style="font-style:normal;font-variant:normal;font-weight:bold;font-stretch:normal;font-size:10.5833px;line-height:1.25;font-family:sans-serif;-inkscape-font-specification:'sans-serif Bold';fill:#ff5555;fill-opacity:1;stroke:none;stroke-width:0.264583"
         xml:space="preserve"
         transform="scale(-1)"><tspan
           style="font-style:normal;font-variant:normal;font-weight:bold;font-stretch:normal;font-family:sans-serif;-inkscape-font-specification:'sans-serif Bold';fill:#ff5555;stroke-width:0.264583"
           y="-337.75507"
           x="150.0766"
           id="tspan1416">A</tspan></text>
      <path
         id="path1406"
         d="m -195.87654,265.95751 c -1.22907,-1.22907 -2.23467,-2.30313 -2.23467,-2.38679 0,-0.19869 4.42277,-4.62146 4.62145,-4.62146 0.19869,0 4.62146,4.42277 4.62146,4.62146 0,0.0837 -1.0056,1.15772 -2.23467,2.38679 -1.22907,1.22906 -2.30312,2.23467 -2.38679,2.23467 -0.0837,0 -1.15771,-1.00561 -2.38678,-2.23467 z"
         style="fill:#ff5555;stroke-width:0.105033" />
      <path
         style="fill:#ff5555;stroke-width:0.105033"
         d="m -167.90596,344.73227 c -1.22907,-1.22907 -2.23467,-2.30313 -2.23467,-2.38679 0,-0.19869 4.42277,-4.62146 4.62145,-4.62146 0.19869,0 4.62146,4.42277 4.62146,4.62146 0,0.0837 -1.0056,1.15772 -2.23467,2.38679 -1.22907,1.22906 -2.30312,2.23467 -2.38679,2.23467 -0.0837,0 -1.15771,-1.00561 -2.38678,-2.23467 z"
         id="path1436" />
      <path
         style="fill:#f9f9f9;stroke-width:0.372972"
         d="m -187.20669,312.9807 c -4.36442,-4.36442 -7.93532,-8.17842 -7.93532,-8.47549 0,-0.70556 15.70528,-16.41081 16.41079,-16.41081 0.70554,0 16.41082,15.70525 16.41082,16.41081 0,0.29721 -3.5709,4.11107 -7.93532,8.47549 -4.36444,4.3644 -8.1784,7.93532 -8.4755,7.93532 -0.29723,0 -4.11103,-3.57092 -8.47547,-7.93532 z"
         id="path1440" />
      <path
         id="path1442"
         d="m -185.51528,311.28928 c -3.49344,-3.49344 -6.3517,-6.54629 -6.3517,-6.78407 0,-0.56475 12.57104,-13.13578 13.13576,-13.13578 0.56475,0 13.13579,12.57103 13.13579,13.13578 0,0.2379 -2.85826,3.29063 -6.3517,6.78407 -3.49345,3.49343 -6.54628,6.35171 -6.78409,6.35171 -0.23791,0 -3.29061,-2.85828 -6.78406,-6.35171 z"
         style="fill:#ff5555;stroke-width:0.29854" />
      <path
         style="fill:#ffffff;stroke-width:0.225221"
         d="m -183.84915,309.62315 c -2.63547,-2.63547 -4.79176,-4.93856 -4.79176,-5.11794 0,-0.42605 9.48367,-9.90971 9.90969,-9.90971 0.42605,0 9.90972,9.48366 9.90972,9.90971 0,0.17947 -2.15629,2.48247 -4.79176,5.11794 -2.63549,2.63546 -4.93855,4.79177 -5.11796,4.79177 -0.17948,0 -2.48244,-2.15631 -5.11793,-4.79177 z"
         id="path1444" />
      <path
         id="path1446"
         d="m -182.37803,308.15203 c -1.87791,-1.87793 -3.41441,-3.519 -3.41441,-3.64682 0,-0.30358 6.75766,-7.06123 7.06122,-7.06123 0.30359,0 7.06125,6.75765 7.06125,7.06123 0,0.12788 -1.5365,1.76889 -3.41441,3.64682 -1.87793,1.87791 -3.51899,3.41441 -3.64684,3.41441 -0.12788,0 -1.76888,-1.5365 -3.64681,-3.41441 z"
         style="fill:#ff5555;stroke-width:0.160482" />
      <path
         style="fill:#ffffff;stroke-width:0.0931606"
         d="m -180.84819,306.62221 c -1.09016,-1.09015 -1.9821,-2.04279 -1.9821,-2.117 0,-0.17623 3.92286,-4.09908 4.09908,-4.09908 0.17623,0 4.09909,3.92285 4.09909,4.09908 0,0.0742 -0.89194,1.02685 -1.9821,2.117 -1.09014,1.09014 -2.04278,1.98208 -2.11699,1.98208 -0.0742,0 -1.02684,-0.89194 -2.11698,-1.98208 z"
         id="path1448" />
    </g>
    <g
       id="Tiles_2_white"
       transform="translate(50.025649,-11.466254)">
      <path
         id="path1510"
         d="m -105.78191,295.96302 c 0,0 3.59213,-4.01166 8.02327,-4.01166 4.43115,0 8.02327,3.64105 8.02327,8.02327 0,2.71647 -2.67518,5.34809 -2.67518,5.34809 l -12.01814,12.01963 c -0.74729,0.74733 -1.95994,0.74733 -2.70723,0 l -12.0173,-12.01963 c 0,0 -2.67522,-2.63315 -2.67522,-5.34809 0,-4.38222 3.59217,-8.02327 8.02327,-8.02327 4.43117,0 8.02326,4.01166 8.02326,4.01166 z"
         fill="url(#4LyKu8AtUK4gmSHjQsrKja)"
         style="fill:#ff1255;fill-opacity:1;stroke-width:0.764121" />
      <rect
         ry="6.0476189"
         y="256.31232"
         x="-139.14438"
         height="94.494034"
         width="66.523796"
         id="rect1512"
         style="fill:#ffffff;stroke-width:0.264583" />
      <path
         style="fill:#ff5555;stroke-width:0.448962"
         d="m -115.22011,315.27387 c -5.25364,-5.25364 -9.55207,-9.8447 -9.55207,-10.2023 0,-0.8493 18.90508,-19.75437 19.75433,-19.75437 0.8493,0 19.75438,18.90507 19.75438,19.75437 0,0.35777 -4.29843,4.94866 -9.55207,10.2023 -5.25365,5.2536 -9.84466,9.55207 -10.20231,9.55207 -0.35777,0 -4.94861,-4.29847 -10.20226,-9.55207 z"
         id="path1514" />
      <text
         id="text1518"
         y="268.76181"
         x="-135.30042"
         style="font-style:normal;font-variant:normal;font-weight:bold;font-stretch:normal;font-size:10.5833px;line-height:1.25;font-family:sans-serif;-inkscape-font-specification:'sans-serif Bold';fill:#ff5555;fill-opacity:1;stroke:none;stroke-width:0.264583"
         xml:space="preserve"><tspan
           style="font-style:normal;font-variant:normal;font-weight:bold;font-stretch:normal;font-family:sans-serif;-inkscape-font-specification:'sans-serif Bold';fill:#ff5555;stroke-width:0.264583"
           y="268.76181"
           x="-135.30042"
           id="tspan1516">2</tspan></text>
      <text
         transform="scale(-1)"
         xml:space="preserve"
         style="font-style:normal;font-variant:normal;font-weight:bold;font-stretch:normal;font-size:10.5833px;line-height:1.25;font-family:sans-serif;-inkscape-font-specification:'sans-serif Bold';fill:#ff5555;fill-opacity:1;stroke:none;stroke-width:0.264583"
         x="76.36322"
         y="-338.32144"
         id="text1522"><tspan
           id="tspan1520"
           x="76.36322"
           y="-338.32144"
           style="font-style:normal;font-variant:normal;font-weight:bold;font-stretch:normal;font-family:sans-serif;-inkscape-font-specification:'sans-serif Bold';fill:#ff5555;stroke-width:0.264583">2</tspan></text>
      <path
         style="fill:#ff5555;stroke-width:0.105033"
         d="m -122.16316,266.52387 c -1.22907,-1.22907 -2.23467,-2.30313 -2.23467,-2.38679 0,-0.19869 4.42277,-4.62146 4.62145,-4.62146 0.19869,0 4.62146,4.42277 4.62146,4.62146 0,0.0837 -1.0056,1.15772 -2.23467,2.38679 -1.22907,1.22906 -2.30312,2.23467 -2.38679,2.23467 -0.0837,0 -1.15771,-1.00561 -2.38678,-2.23467 z"
         id="path1524" />
      <path
         id="path1526"
         d="m -94.192568,345.29863 c -1.22907,-1.22907 -2.23467,-2.30313 -2.23467,-2.38679 0,-0.19869 4.42277,-4.62146 4.62145,-4.62146 0.19869,0 4.62146,4.42277 4.62146,4.62146 0,0.0837 -1.0056,1.15772 -2.23467,2.38679 -1.22907,1.22906 -2.30312,2.23467 -2.38679,2.23467 -0.0837,0 -1.15771,-1.00561 -2.38678,-2.23467 z"
         style="fill:#ff5555;stroke-width:0.105033" />
      <path
         id="path1528"
         d="m -113.49331,313.54706 c -4.36442,-4.36442 -7.93532,-8.17842 -7.93532,-8.47549 0,-0.70556 15.70528,-16.41081 16.41079,-16.41081 0.70554,0 16.41082,15.70525 16.41082,16.41081 0,0.29721 -3.5709,4.11107 -7.93532,8.47549 -4.36444,4.3644 -8.1784,7.93532 -8.4755,7.93532 -0.29723,0 -4.11103,-3.57092 -8.47547,-7.93532 z"
         style="fill:#f9f9f9;stroke-width:0.372972" />
      <path
         style="fill:#ff5555;stroke-width:0.29854"
         d="m -111.8019,311.85564 c -3.49344,-3.49344 -6.3517,-6.54629 -6.3517,-6.78407 0,-0.56475 12.57104,-13.13578 13.13576,-13.13578 0.56475,0 13.13579,12.57103 13.13579,13.13578 0,0.2379 -2.85826,3.29063 -6.3517,6.78407 -3.49345,3.49343 -6.54628,6.35171 -6.78409,6.35171 -0.23791,0 -3.29061,-2.85828 -6.78406,-6.35171 z"
         id="path1530" />
      <path
         id="path1532"
         d="m -110.13577,310.18951 c -2.63547,-2.63547 -4.79176,-4.93856 -4.79176,-5.11794 0,-0.42605 9.48367,-9.90971 9.90969,-9.90971 0.42605,0 9.90972,9.48366 9.90972,9.90971 0,0.17947 -2.15629,2.48247 -4.79176,5.11794 -2.63549,2.63546 -4.93855,4.79177 -5.11796,4.79177 -0.17948,0 -2.48244,-2.15631 -5.11793,-4.79177 z"
         style="fill:#ffffff;stroke-width:0.225221" />
      <path
         style="fill:#ff5555;stroke-width:0.160482"
         d="m -108.66465,308.71839 c -1.87791,-1.87793 -3.41441,-3.519 -3.41441,-3.64682 0,-0.30358 6.75766,-7.06123 7.06122,-7.06123 0.30359,0 7.06125,6.75765 7.06125,7.06123 0,0.12788 -1.5365,1.76889 -3.41441,3.64682 -1.87793,1.87791 -3.51899,3.41441 -3.64684,3.41441 -0.12788,0 -1.76888,-1.5365 -3.64681,-3.41441 z"
         id="path1534" />
      <path
         id="path1536"
         d="m -107.13481,307.18857 c -1.09016,-1.09015 -1.9821,-2.04279 -1.9821,-2.117 0,-0.17623 3.92286,-4.09908 4.09908,-4.09908 0.17623,0 4.09909,3.92285 4.09909,4.09908 0,0.0742 -0.89194,1.02685 -1.9821,2.117 -1.09014,1.09014 -2.04278,1.98208 -2.11699,1.98208 -0.0742,0 -1.02684,-0.89194 -2.11698,-1.98208 z"
         style="fill:#ffffff;stroke-width:0.0931606" />
    </g>
    <g
       id="Tiles_3_white"
       transform="translate(45.413893,-11.32801)">
      <path
         style="fill:#ff1255;fill-opacity:1;stroke-width:0.764121"
         fill="url(#4LyKu8AtUK4gmSHjQsrKja)"
         d="m -30.665782,295.82478 c 0,0 3.59213,-4.01166 8.02327,-4.01166 4.43115,0 8.02327,3.64105 8.02327,8.02327 0,2.71647 -2.67518,5.34809 -2.67518,5.34809 l -12.01814,12.01963 c -0.74729,0.74733 -1.95994,0.74733 -2.70723,0 l -12.0173,-12.01963 c 0,0 -2.67522,-2.63315 -2.67522,-5.34809 0,-4.38222 3.59217,-8.02327 8.02327,-8.02327 4.43117,0 8.02326,4.01166 8.02326,4.01166 z"
         id="path1564" />
      <rect
         style="fill:#ffffff;stroke-width:0.264583"
         id="rect1566"
         width="66.523796"
         height="94.494034"
         x="-64.028252"
         y="256.17407"
         ry="6.0476189" />
      <path
         id="path1568"
         d="m -40.103982,315.13563 c -5.25364,-5.25364 -9.55207,-9.8447 -9.55207,-10.2023 0,-0.8493 18.90508,-19.75437 19.75433,-19.75437 0.8493,0 19.75438,18.90507 19.75438,19.75437 0,0.35777 -4.29843,4.94866 -9.55207,10.2023 -5.25365,5.2536 -9.84466,9.55207 -10.20231,9.55207 -0.35777,0 -4.94861,-4.29847 -10.20226,-9.55207 z"
         style="fill:#ff5555;stroke-width:0.448962" />
      <text
         xml:space="preserve"
         style="font-style:normal;font-variant:normal;font-weight:bold;font-stretch:normal;font-size:10.5833px;line-height:1.25;font-family:sans-serif;-inkscape-font-specification:'sans-serif Bold';fill:#ff5555;fill-opacity:1;stroke:none;stroke-width:0.264583"
         x="-60.184288"
         y="268.62357"
         id="text1572"><tspan
           id="tspan1570"
           x="-60.184288"
           y="268.62357"
           style="font-style:normal;font-variant:normal;font-weight:bold;font-stretch:normal;font-family:sans-serif;-inkscape-font-specification:'sans-serif Bold';fill:#ff5555;stroke-width:0.264583">3</tspan></text>
      <text
         id="text1576"
         y="-338.1832"
         x="1.2470926"
         style="font-style:normal;font-variant:normal;font-weight:bold;font-stretch:normal;font-size:10.5833px;line-height:1.25;font-family:sans-serif;-inkscape-font-specification:'sans-serif Bold';fill:#ff5555;fill-opacity:1;stroke:none;stroke-width:0.264583"
         xml:space="preserve"
         transform="scale(-1)"><tspan
           style="font-style:normal;font-variant:normal;font-weight:bold;font-stretch:normal;font-family:sans-serif;-inkscape-font-specification:'sans-serif Bold';fill:#ff5555;stroke-width:0.264583"
           y="-338.1832"
           x="1.2470926"
           id="tspan1574">3</tspan></text>
      <path
         id="path1578"
         d="m -47.047047,266.38563 c -1.22907,-1.22907 -2.23467,-2.30313 -2.23467,-2.38679 0,-0.19869 4.42277,-4.62146 4.62145,-4.62146 0.19869,0 4.62146,4.42277 4.62146,4.62146 0,0.0837 -1.0056,1.15772 -2.23467,2.38679 -1.22907,1.22906 -2.30312,2.23467 -2.38679,2.23467 -0.0837,0 -1.15771,-1.00561 -2.38678,-2.23467 z"
         style="fill:#ff5555;stroke-width:0.105033" />
      <path
         style="fill:#ff5555;stroke-width:0.105033"
         d="m -19.07644,345.16039 c -1.22907,-1.22907 -2.23467,-2.30313 -2.23467,-2.38679 0,-0.19869 4.42277,-4.62146 4.62145,-4.62146 0.19869,0 4.621461,4.42277 4.621461,4.62146 0,0.0837 -1.005601,1.15772 -2.234671,2.38679 -1.22907,1.22906 -2.30312,2.23467 -2.38679,2.23467 -0.0837,0 -1.15771,-1.00561 -2.38678,-2.23467 z"
         id="path1580" />
      <path
         style="fill:#f9f9f9;stroke-width:0.372972"
         d="m -38.377182,313.40882 c -4.36442,-4.36442 -7.93532,-8.17842 -7.93532,-8.47549 0,-0.70556 15.70528,-16.41081 16.41079,-16.41081 0.70554,0 16.41082,15.70525 16.41082,16.41081 0,0.29721 -3.5709,4.11107 -7.93532,8.47549 -4.36444,4.3644 -8.1784,7.93532 -8.4755,7.93532 -0.29723,0 -4.11103,-3.57092 -8.47547,-7.93532 z"
         id="path1582" />
      <path
         id="path1584"
         d="m -36.685772,311.7174 c -3.49344,-3.49344 -6.3517,-6.54629 -6.3517,-6.78407 0,-0.56475 12.57104,-13.13578 13.13576,-13.13578 0.56475,0 13.13579,12.57103 13.13579,13.13578 0,0.2379 -2.85826,3.29063 -6.3517,6.78407 -3.49345,3.49343 -6.54628,6.35171 -6.78409,6.35171 -0.23791,0 -3.29061,-2.85828 -6.78406,-6.35171 z"
         style="fill:#ff5555;stroke-width:0.29854" />
      <path
         style="fill:#ffffff;stroke-width:0.225221"
         d="m -35.019642,310.05127 c -2.63547,-2.63547 -4.79176,-4.93856 -4.79176,-5.11794 0,-0.42605 9.48367,-9.90971 9.90969,-9.90971 0.42605,0 9.90972,9.48366 9.90972,9.90971 0,0.17947 -2.15629,2.48247 -4.79176,5.11794 -2.63549,2.63546 -4.93855,4.79177 -5.11796,4.79177 -0.17948,0 -2.48244,-2.15631 -5.11793,-4.79177 z"
         id="path1586" />
      <path
         id="path1588"
         d="m -33.548522,308.58015 c -1.87791,-1.87793 -3.41441,-3.519 -3.41441,-3.64682 0,-0.30358 6.75766,-7.06123 7.06122,-7.06123 0.30359,0 7.06125,6.75765 7.06125,7.06123 0,0.12788 -1.5365,1.76889 -3.41441,3.64682 -1.87793,1.87791 -3.51899,3.41441 -3.64684,3.41441 -0.12788,0 -1.76888,-1.5365 -3.64681,-3.41441 z"
         style="fill:#ff5555;stroke-width:0.160482" />
      <path
         style="fill:#ffffff;stroke-width:0.0931606"
         d="m -32.018682,307.05033 c -1.09016,-1.09015 -1.9821,-2.04279 -1.9821,-2.117 0,-0.17623 3.92286,-4.09908 4.09908,-4.09908 0.17623,0 4.09909,3.92285 4.09909,4.09908 0,0.0742 -0.89194,1.02685 -1.9821,2.117 -1.09014,1.09014 -2.04278,1.98208 -2.11699,1.98208 -0.0742,0 -1.02684,-0.89194 -2.11698,-1.98208 z"
         id="path1590" />
    </g>
    <g
       id="Tiles_4_white"
       transform="translate(39.718226,-11.32801)">
      <path
         id="path1618"
         d="m 45.534254,295.82478 c 0,0 3.59213,-4.01166 8.02327,-4.01166 4.43115,0 8.02327,3.64105 8.02327,8.02327 0,2.71647 -2.67518,5.34809 -2.67518,5.34809 l -12.01814,12.01963 c -0.74729,0.74733 -1.95994,0.74733 -2.70723,0 l -12.0173,-12.01963 c 0,0 -2.67522,-2.63315 -2.67522,-5.34809 0,-4.38222 3.59217,-8.02327 8.02327,-8.02327 4.43117,0 8.02326,4.01166 8.02326,4.01166 z"
         fill="url(#4LyKu8AtUK4gmSHjQsrKja)"
         style="fill:#ff1255;fill-opacity:1;stroke-width:0.764121" />
      <rect
         ry="6.0476189"
         y="256.17407"
         x="12.171785"
         height="94.494034"
         width="66.523796"
         id="rect1620"
         style="fill:#ffffff;stroke-width:0.264583" />
      <path
         style="fill:#ff5555;stroke-width:0.448962"
         d="m 36.096054,315.13563 c -5.25364,-5.25364 -9.55207,-9.8447 -9.55207,-10.2023 0,-0.8493 18.90508,-19.75437 19.75433,-19.75437 0.8493,0 19.75438,18.90507 19.75438,19.75437 0,0.35777 -4.29843,4.94866 -9.55207,10.2023 -5.25365,5.2536 -9.84466,9.55207 -10.20231,9.55207 -0.35777,0 -4.94861,-4.29847 -10.20226,-9.55207 z"
         id="path1622" />
      <text
         id="text1626"
         y="268.62357"
         x="16.015743"
         style="font-style:normal;font-variant:normal;font-weight:bold;font-stretch:normal;font-size:10.5833px;line-height:1.25;font-family:sans-serif;-inkscape-font-specification:'sans-serif Bold';fill:#ff5555;fill-opacity:1;stroke:none;stroke-width:0.264583"
         xml:space="preserve"><tspan
           style="font-style:normal;font-variant:normal;font-weight:bold;font-stretch:normal;font-family:sans-serif;-inkscape-font-specification:'sans-serif Bold';fill:#ff5555;stroke-width:0.264583"
           y="268.62357"
           x="16.015743"
           id="tspan1624">4</tspan></text>
      <text
         transform="scale(-1)"
         xml:space="preserve"
         style="font-style:normal;font-variant:normal;font-weight:bold;font-stretch:normal;font-size:10.5833px;line-height:1.25;font-family:sans-serif;-inkscape-font-specification:'sans-serif Bold';fill:#ff5555;fill-opacity:1;stroke:none;stroke-width:0.264583"
         x="-74.952957"
         y="-338.1832"
         id="text1630"><tspan
           id="tspan1628"
           x="-74.952957"
           y="-338.1832"
           style="font-style:normal;font-variant:normal;font-weight:bold;font-stretch:normal;font-family:sans-serif;-inkscape-font-specification:'sans-serif Bold';fill:#ff5555;stroke-width:0.264583">4</tspan></text>
      <path
         style="fill:#ff5555;stroke-width:0.105033"
         d="m 29.152989,266.38563 c -1.22907,-1.22907 -2.23467,-2.30313 -2.23467,-2.38679 0,-0.19869 4.42277,-4.62146 4.62145,-4.62146 0.19869,0 4.62146,4.42277 4.62146,4.62146 0,0.0837 -1.0056,1.15772 -2.23467,2.38679 -1.22907,1.22906 -2.30312,2.23467 -2.38679,2.23467 -0.0837,0 -1.15771,-1.00561 -2.38678,-2.23467 z"
         id="path1632" />
      <path
         id="path1634"
         d="m 57.123597,345.16039 c -1.22907,-1.22907 -2.234671,-2.30313 -2.234671,-2.38679 0,-0.19869 4.422772,-4.62146 4.621453,-4.62146 0.19869,0 4.621462,4.42277 4.621462,4.62146 0,0.0837 -1.005601,1.15772 -2.234671,2.38679 -1.229071,1.22906 -2.303121,2.23467 -2.386791,2.23467 -0.0837,0 -1.157711,-1.00561 -2.386782,-2.23467 z"
         style="fill:#ff5555;stroke-width:0.105033" />
      <path
         id="path1636"
         d="m 37.822854,313.40882 c -4.36442,-4.36442 -7.93532,-8.17842 -7.93532,-8.47549 0,-0.70556 15.70528,-16.41081 16.41079,-16.41081 0.70554,0 16.41082,15.70525 16.41082,16.41081 0,0.29721 -3.5709,4.11107 -7.93532,8.47549 -4.36444,4.3644 -8.1784,7.93532 -8.4755,7.93532 -0.29723,0 -4.11103,-3.57092 -8.47547,-7.93532 z"
         style="fill:#f9f9f9;stroke-width:0.372972" />
      <path
         style="fill:#ff5555;stroke-width:0.29854"
         d="m 39.514264,311.7174 c -3.49344,-3.49344 -6.3517,-6.54629 -6.3517,-6.78407 0,-0.56475 12.57104,-13.13578 13.13576,-13.13578 0.56475,0 13.13579,12.57103 13.13579,13.13578 0,0.2379 -2.85826,3.29063 -6.3517,6.78407 -3.49345,3.49343 -6.54628,6.35171 -6.78409,6.35171 -0.23791,0 -3.29061,-2.85828 -6.78406,-6.35171 z"
         id="path1638" />
      <path
         id="path1640"
         d="m 41.180394,310.05127 c -2.63547,-2.63547 -4.79176,-4.93856 -4.79176,-5.11794 0,-0.42605 9.48367,-9.90971 9.90969,-9.90971 0.42605,0 9.90972,9.48366 9.90972,9.90971 0,0.17947 -2.15629,2.48247 -4.79176,5.11794 -2.63549,2.63546 -4.93855,4.79177 -5.11796,4.79177 -0.17948,0 -2.48244,-2.15631 -5.11793,-4.79177 z"
         style="fill:#ffffff;stroke-width:0.225221" />
      <path
         style="fill:#ff5555;stroke-width:0.160482"
         d="m 42.651514,308.58015 c -1.87791,-1.87793 -3.41441,-3.519 -3.41441,-3.64682 0,-0.30358 6.75766,-7.06123 7.06122,-7.06123 0.30359,0 7.06125,6.75765 7.06125,7.06123 0,0.12788 -1.5365,1.76889 -3.41441,3.64682 -1.87793,1.87791 -3.51899,3.41441 -3.64684,3.41441 -0.12788,0 -1.76888,-1.5365 -3.64681,-3.41441 z"
         id="path1642" />
      <path
         id="path1644"
         d="m 44.181354,307.05033 c -1.09016,-1.09015 -1.9821,-2.04279 -1.9821,-2.117 0,-0.17623 3.92286,-4.09908 4.09908,-4.09908 0.17623,0 4.09909,3.92285 4.09909,4.09908 0,0.0742 -0.89194,1.02685 -1.9821,2.117 -1.09014,1.09014 -2.04278,1.98208 -2.11699,1.98208 -0.0742,0 -1.02684,-0.89194 -2.11698,-1.98208 z"
         style="fill:#ffffff;stroke-width:0.0931606" />
    </g>
    <g
       id="Tiles_5_white"
       transform="translate(33.702427,-11.187171)">
      <path
         style="fill:#ff1255;fill-opacity:1;stroke-width:0.764121"
         fill="url(#4LyKu8AtUK4gmSHjQsrKja)"
         d="m 122.05442,295.68395 c 0,0 3.59213,-4.01166 8.02327,-4.01166 4.43115,0 8.02327,3.64105 8.02327,8.02327 0,2.71647 -2.67518,5.34809 -2.67518,5.34809 l -12.01814,12.01963 c -0.74729,0.74733 -1.95994,0.74733 -2.70723,0 l -12.0173,-12.01963 c 0,0 -2.67522,-2.63315 -2.67522,-5.34809 0,-4.38222 3.59217,-8.02327 8.02327,-8.02327 4.43117,0 8.02326,4.01166 8.02326,4.01166 z"
         id="path1672" />
      <rect
         style="fill:#ffffff;stroke-width:0.264583"
         id="rect1674"
         width="66.523796"
         height="94.494034"
         x="88.691956"
         y="256.03323"
         ry="6.0476189" />
      <path
         id="path1676"
         d="m 112.61622,314.9948 c -5.25364,-5.25364 -9.55207,-9.8447 -9.55207,-10.2023 0,-0.8493 18.90508,-19.75437 19.75433,-19.75437 0.8493,0 19.75438,18.90507 19.75438,19.75437 0,0.35777 -4.29843,4.94866 -9.55207,10.2023 -5.25365,5.2536 -9.84466,9.55207 -10.20231,9.55207 -0.35777,0 -4.94861,-4.29847 -10.20226,-9.55207 z"
         style="fill:#ff5555;stroke-width:0.448962" />
      <text
         xml:space="preserve"
         style="font-style:normal;font-variant:normal;font-weight:bold;font-stretch:normal;font-size:10.5833px;line-height:1.25;font-family:sans-serif;-inkscape-font-specification:'sans-serif Bold';fill:#ff5555;fill-opacity:1;stroke:none;stroke-width:0.264583"
         x="92.535912"
         y="268.48273"
         id="text1680"><tspan
           id="tspan1678"
           x="92.535912"
           y="268.48273"
           style="font-style:normal;font-variant:normal;font-weight:bold;font-stretch:normal;font-family:sans-serif;-inkscape-font-specification:'sans-serif Bold';fill:#ff5555;stroke-width:0.264583">5</tspan></text>
      <text
         id="text1684"
         y="-338.04236"
         x="-151.47313"
         style="font-style:normal;font-variant:normal;font-weight:bold;font-stretch:normal;font-size:10.5833px;line-height:1.25;font-family:sans-serif;-inkscape-font-specification:'sans-serif Bold';fill:#ff5555;fill-opacity:1;stroke:none;stroke-width:0.264583"
         xml:space="preserve"
         transform="scale(-1)"><tspan
           style="font-style:normal;font-variant:normal;font-weight:bold;font-stretch:normal;font-family:sans-serif;-inkscape-font-specification:'sans-serif Bold';fill:#ff5555;stroke-width:0.264583"
           y="-338.04236"
           x="-151.47313"
           id="tspan1682">5</tspan></text>
      <path
         id="path1686"
         d="m 105.67317,266.2448 c -1.22907,-1.22907 -2.23467,-2.30313 -2.23467,-2.38679 0,-0.19869 4.42277,-4.62146 4.62145,-4.62146 0.19869,0 4.62146,4.42277 4.62146,4.62146 0,0.0837 -1.0056,1.15772 -2.23467,2.38679 -1.22907,1.22906 -2.30312,2.23467 -2.38679,2.23467 -0.0837,0 -1.15771,-1.00561 -2.38678,-2.23467 z"
         style="fill:#ff5555;stroke-width:0.105033" />
      <path
         style="fill:#ff5555;stroke-width:0.105033"
         d="m 133.64375,345.01956 c -1.22907,-1.22907 -2.23467,-2.30313 -2.23467,-2.38679 0,-0.19869 4.42277,-4.62146 4.62145,-4.62146 0.19869,0 4.62147,4.42277 4.62147,4.62146 0,0.0837 -1.0056,1.15772 -2.23467,2.38679 -1.22908,1.22906 -2.30313,2.23467 -2.3868,2.23467 -0.0837,0 -1.15771,-1.00561 -2.38678,-2.23467 z"
         id="path1688" />
      <path
         style="fill:#f9f9f9;stroke-width:0.372972"
         d="m 114.34302,313.26799 c -4.36442,-4.36442 -7.93532,-8.17842 -7.93532,-8.47549 0,-0.70556 15.70528,-16.41081 16.41079,-16.41081 0.70554,0 16.41082,15.70525 16.41082,16.41081 0,0.29721 -3.5709,4.11107 -7.93532,8.47549 -4.36444,4.3644 -8.1784,7.93532 -8.4755,7.93532 -0.29723,0 -4.11103,-3.57092 -8.47547,-7.93532 z"
         id="path1690" />
      <path
         id="path1692"
         d="m 116.03443,311.57657 c -3.49344,-3.49344 -6.3517,-6.54629 -6.3517,-6.78407 0,-0.56475 12.57104,-13.13578 13.13576,-13.13578 0.56475,0 13.13579,12.57103 13.13579,13.13578 0,0.2379 -2.85826,3.29063 -6.3517,6.78407 -3.49345,3.49343 -6.54628,6.35171 -6.78409,6.35171 -0.23791,0 -3.29061,-2.85828 -6.78406,-6.35171 z"
         style="fill:#ff5555;stroke-width:0.29854" />
      <path
         style="fill:#ffffff;stroke-width:0.225221"
         d="m 117.70056,309.91044 c -2.63547,-2.63547 -4.79176,-4.93856 -4.79176,-5.11794 0,-0.42605 9.48367,-9.90971 9.90969,-9.90971 0.42605,0 9.90972,9.48366 9.90972,9.90971 0,0.17947 -2.15629,2.48247 -4.79176,5.11794 -2.63549,2.63546 -4.93855,4.79177 -5.11796,4.79177 -0.17948,0 -2.48244,-2.15631 -5.11793,-4.79177 z"
         id="path1694" />
      <path
         id="path1696"
         d="m 119.17168,308.43932 c -1.87791,-1.87793 -3.41441,-3.519 -3.41441,-3.64682 0,-0.30358 6.75766,-7.06123 7.06122,-7.06123 0.30359,0 7.06125,6.75765 7.06125,7.06123 0,0.12788 -1.5365,1.76889 -3.41441,3.64682 -1.87793,1.87791 -3.51899,3.41441 -3.64684,3.41441 -0.12788,0 -1.76888,-1.5365 -3.64681,-3.41441 z"
         style="fill:#ff5555;stroke-width:0.160482" />
      <path
         style="fill:#ffffff;stroke-width:0.0931606"
         d="m 120.70152,306.9095 c -1.09016,-1.09015 -1.9821,-2.04279 -1.9821,-2.117 0,-0.17623 3.92286,-4.09908 4.09908,-4.09908 0.17623,0 4.09909,3.92285 4.09909,4.09908 0,0.0742 -0.89194,1.02685 -1.9821,2.117 -1.09014,1.09014 -2.04278,1.98208 -2.11699,1.98208 -0.0742,0 -1.02684,-0.89194 -2.11698,-1.98208 z"
         id="path1698" />
    </g>
    <g
       id="Tiles_6_white"
       transform="translate(25.579278,-11.744483)">
      <path
         id="path1726"
         d="m 200.68194,296.24127 c 0,0 3.59213,-4.01166 8.02327,-4.01166 4.43115,0 8.02327,3.64105 8.02327,8.02327 0,2.71647 -2.67518,5.34809 -2.67518,5.34809 l -12.01814,12.01963 c -0.74729,0.74733 -1.95994,0.74733 -2.70723,0 l -12.0173,-12.01963 c 0,0 -2.67522,-2.63315 -2.67522,-5.34809 0,-4.38222 3.59217,-8.02327 8.02327,-8.02327 4.43117,0 8.02326,4.01166 8.02326,4.01166 z"
         fill="url(#4LyKu8AtUK4gmSHjQsrKja)"
         style="fill:#ff1255;fill-opacity:1;stroke-width:0.764121" />
      <rect
         ry="6.0476189"
         y="256.59055"
         x="167.31947"
         height="94.494034"
         width="66.523796"
         id="rect1728"
         style="fill:#ffffff;stroke-width:0.264583" />
      <path
         style="fill:#ff5555;stroke-width:0.448962"
         d="m 191.24374,315.55212 c -5.25364,-5.25364 -9.55207,-9.8447 -9.55207,-10.2023 0,-0.8493 18.90508,-19.75437 19.75433,-19.75437 0.8493,0 19.75438,18.90507 19.75438,19.75437 0,0.35777 -4.29843,4.94866 -9.55207,10.2023 -5.25365,5.2536 -9.84466,9.55207 -10.20231,9.55207 -0.35777,0 -4.94861,-4.29847 -10.20226,-9.55207 z"
         id="path1730" />
      <text
         id="text1734"
         y="269.04004"
         x="171.16344"
         style="font-style:normal;font-variant:normal;font-weight:bold;font-stretch:normal;font-size:10.5833px;line-height:1.25;font-family:sans-serif;-inkscape-font-specification:'sans-serif Bold';fill:#ff5555;fill-opacity:1;stroke:none;stroke-width:0.264583"
         xml:space="preserve"><tspan
           style="font-style:normal;font-variant:normal;font-weight:bold;font-stretch:normal;font-family:sans-serif;-inkscape-font-specification:'sans-serif Bold';fill:#ff5555;stroke-width:0.264583"
           y="269.04004"
           x="171.16344"
           id="tspan1732">6</tspan></text>
      <text
         transform="scale(-1)"
         xml:space="preserve"
         style="font-style:normal;font-variant:normal;font-weight:bold;font-stretch:normal;font-size:10.5833px;line-height:1.25;font-family:sans-serif;-inkscape-font-specification:'sans-serif Bold';fill:#ff5555;fill-opacity:1;stroke:none;stroke-width:0.264583"
         x="-230.10065"
         y="-338.59967"
         id="text1738"><tspan
           id="tspan1736"
           x="-230.10065"
           y="-338.59967"
           style="font-style:normal;font-variant:normal;font-weight:bold;font-stretch:normal;font-family:sans-serif;-inkscape-font-specification:'sans-serif Bold';fill:#ff5555;stroke-width:0.264583">6</tspan></text>
      <path
         style="fill:#ff5555;stroke-width:0.105033"
         d="m 184.30069,266.80212 c -1.22907,-1.22907 -2.23467,-2.30313 -2.23467,-2.38679 0,-0.19869 4.42277,-4.62146 4.62145,-4.62146 0.19869,0 4.62146,4.42277 4.62146,4.62146 0,0.0837 -1.0056,1.15772 -2.23467,2.38679 -1.22907,1.22906 -2.30312,2.23467 -2.38679,2.23467 -0.0837,0 -1.15771,-1.00561 -2.38678,-2.23467 z"
         id="path1740" />
      <path
         id="path1742"
         d="m 212.27127,345.57688 c -1.22907,-1.22907 -2.23467,-2.30313 -2.23467,-2.38679 0,-0.19869 4.42277,-4.62146 4.62145,-4.62146 0.19869,0 4.62147,4.42277 4.62147,4.62146 0,0.0837 -1.0056,1.15772 -2.23467,2.38679 -1.22908,1.22906 -2.30313,2.23467 -2.3868,2.23467 -0.0837,0 -1.15771,-1.00561 -2.38678,-2.23467 z"
         style="fill:#ff5555;stroke-width:0.105033" />
      <path
         id="path1744"
         d="m 192.97054,313.82531 c -4.36442,-4.36442 -7.93532,-8.17842 -7.93532,-8.47549 0,-0.70556 15.70528,-16.41081 16.41079,-16.41081 0.70554,0 16.41082,15.70525 16.41082,16.41081 0,0.29721 -3.5709,4.11107 -7.93532,8.47549 -4.36444,4.3644 -8.1784,7.93532 -8.4755,7.93532 -0.29723,0 -4.11103,-3.57092 -8.47547,-7.93532 z"
         style="fill:#f9f9f9;stroke-width:0.372972" />
      <path
         style="fill:#ff5555;stroke-width:0.29854"
         d="m 194.66195,312.13389 c -3.49344,-3.49344 -6.3517,-6.54629 -6.3517,-6.78407 0,-0.56475 12.57104,-13.13578 13.13576,-13.13578 0.56475,0 13.13579,12.57103 13.13579,13.13578 0,0.2379 -2.85826,3.29063 -6.3517,6.78407 -3.49345,3.49343 -6.54628,6.35171 -6.78409,6.35171 -0.23791,0 -3.29061,-2.85828 -6.78406,-6.35171 z"
         id="path1746" />
      <path
         id="path1748"
         d="m 196.32808,310.46776 c -2.63547,-2.63547 -4.79176,-4.93856 -4.79176,-5.11794 0,-0.42605 9.48367,-9.90971 9.90969,-9.90971 0.42605,0 9.90972,9.48366 9.90972,9.90971 0,0.17947 -2.15629,2.48247 -4.79176,5.11794 -2.63549,2.63546 -4.93855,4.79177 -5.11796,4.79177 -0.17948,0 -2.48244,-2.15631 -5.11793,-4.79177 z"
         style="fill:#ffffff;stroke-width:0.225221" />
      <path
         style="fill:#ff5555;stroke-width:0.160482"
         d="m 197.7992,308.99664 c -1.87791,-1.87793 -3.41441,-3.519 -3.41441,-3.64682 0,-0.30358 6.75766,-7.06123 7.06122,-7.06123 0.30359,0 7.06125,6.75765 7.06125,7.06123 0,0.12788 -1.5365,1.76889 -3.41441,3.64682 -1.87793,1.87791 -3.51899,3.41441 -3.64684,3.41441 -0.12788,0 -1.76888,-1.5365 -3.64681,-3.41441 z"
         id="path1750" />
      <path
         id="path1752"
         d="m 199.32904,307.46682 c -1.09016,-1.09015 -1.9821,-2.04279 -1.9821,-2.117 0,-0.17623 3.92286,-4.09908 4.09908,-4.09908 0.17623,0 4.09909,3.92285 4.09909,4.09908 0,0.0742 -0.89194,1.02685 -1.9821,2.117 -1.09014,1.09014 -2.04278,1.98208 -2.11699,1.98208 -0.0742,0 -1.02684,-0.89194 -2.11698,-1.98208 z"
         style="fill:#ffffff;stroke-width:0.0931606" />
    </g>
    <g
       id="Tiles_7_white"
       transform="translate(18.159439,-11.601081)">
      <path
         style="fill:#ff1255;fill-opacity:1;stroke-width:0.764121"
         fill="url(#4LyKu8AtUK4gmSHjQsrKja)"
         d="m 278.60615,296.09786 c 0,0 3.59213,-4.01166 8.02327,-4.01166 4.43115,0 8.02327,3.64105 8.02327,8.02327 0,2.71647 -2.67518,5.34809 -2.67518,5.34809 l -12.01814,12.01963 c -0.74729,0.74733 -1.95994,0.74733 -2.70723,0 l -12.0173,-12.01963 c 0,0 -2.67522,-2.63315 -2.67522,-5.34809 0,-4.38222 3.59217,-8.02327 8.02327,-8.02327 4.43117,0 8.02326,4.01166 8.02326,4.01166 z"
         id="path1780" />
      <rect
         style="fill:#ffffff;stroke-width:0.264583"
         id="rect1782"
         width="66.523796"
         height="94.494034"
         x="245.24368"
         y="256.44714"
         ry="6.0476189" />
      <path
         id="path1784"
         d="m 269.16795,315.40871 c -5.25364,-5.25364 -9.55207,-9.8447 -9.55207,-10.2023 0,-0.8493 18.90508,-19.75437 19.75433,-19.75437 0.8493,0 19.75438,18.90507 19.75438,19.75437 0,0.35777 -4.29843,4.94866 -9.55207,10.2023 -5.25365,5.2536 -9.84466,9.55207 -10.20231,9.55207 -0.35777,0 -4.94861,-4.29847 -10.20226,-9.55207 z"
         style="fill:#ff5555;stroke-width:0.448962" />
      <text
         xml:space="preserve"
         style="font-style:normal;font-variant:normal;font-weight:bold;font-stretch:normal;font-size:10.5833px;line-height:1.25;font-family:sans-serif;-inkscape-font-specification:'sans-serif Bold';fill:#ff5555;fill-opacity:1;stroke:none;stroke-width:0.264583"
         x="249.08765"
         y="268.89664"
         id="text1788"><tspan
           id="tspan1786"
           x="249.08765"
           y="268.89664"
           style="font-style:normal;font-variant:normal;font-weight:bold;font-stretch:normal;font-family:sans-serif;-inkscape-font-specification:'sans-serif Bold';fill:#ff5555;stroke-width:0.264583">7</tspan></text>
      <text
         id="text1792"
         y="-338.45627"
         x="-308.02484"
         style="font-style:normal;font-variant:normal;font-weight:bold;font-stretch:normal;font-size:10.5833px;line-height:1.25;font-family:sans-serif;-inkscape-font-specification:'sans-serif Bold';fill:#ff5555;fill-opacity:1;stroke:none;stroke-width:0.264583"
         xml:space="preserve"
         transform="scale(-1)"><tspan
           style="font-style:normal;font-variant:normal;font-weight:bold;font-stretch:normal;font-family:sans-serif;-inkscape-font-specification:'sans-serif Bold';fill:#ff5555;stroke-width:0.264583"
           y="-338.45627"
           x="-308.02484"
           id="tspan1790">7</tspan></text>
      <path
         id="path1794"
         d="m 262.2249,266.65871 c -1.22907,-1.22907 -2.23467,-2.30313 -2.23467,-2.38679 0,-0.19869 4.42277,-4.62146 4.62145,-4.62146 0.19869,0 4.62146,4.42277 4.62146,4.62146 0,0.0837 -1.0056,1.15772 -2.23467,2.38679 -1.22907,1.22906 -2.30312,2.23467 -2.38679,2.23467 -0.0837,0 -1.15771,-1.00561 -2.38678,-2.23467 z"
         style="fill:#ff5555;stroke-width:0.105033" />
      <path
         style="fill:#ff5555;stroke-width:0.105033"
         d="m 290.19548,345.43347 c -1.22907,-1.22907 -2.23467,-2.30313 -2.23467,-2.38679 0,-0.19869 4.42277,-4.62146 4.62145,-4.62146 0.19869,0 4.62147,4.42277 4.62147,4.62146 0,0.0837 -1.0056,1.15772 -2.23467,2.38679 -1.22908,1.22906 -2.30313,2.23467 -2.3868,2.23467 -0.0837,0 -1.15771,-1.00561 -2.38678,-2.23467 z"
         id="path1796" />
      <path
         style="fill:#f9f9f9;stroke-width:0.372972"
         d="m 270.89475,313.6819 c -4.36442,-4.36442 -7.93532,-8.17842 -7.93532,-8.47549 0,-0.70556 15.70528,-16.41081 16.41079,-16.41081 0.70554,0 16.41082,15.70525 16.41082,16.41081 0,0.29721 -3.5709,4.11107 -7.93532,8.47549 -4.36444,4.3644 -8.1784,7.93532 -8.4755,7.93532 -0.29723,0 -4.11103,-3.57092 -8.47547,-7.93532 z"
         id="path1798" />
      <path
         id="path1800"
         d="m 272.58616,311.99048 c -3.49344,-3.49344 -6.3517,-6.54629 -6.3517,-6.78407 0,-0.56475 12.57104,-13.13578 13.13576,-13.13578 0.56475,0 13.13579,12.57103 13.13579,13.13578 0,0.2379 -2.85826,3.29063 -6.3517,6.78407 -3.49345,3.49343 -6.54628,6.35171 -6.78409,6.35171 -0.23791,0 -3.29061,-2.85828 -6.78406,-6.35171 z"
         style="fill:#ff5555;stroke-width:0.29854" />
      <path
         style="fill:#ffffff;stroke-width:0.225221"
         d="m 274.25229,310.32435 c -2.63547,-2.63547 -4.79176,-4.93856 -4.79176,-5.11794 0,-0.42605 9.48367,-9.90971 9.90969,-9.90971 0.42605,0 9.90972,9.48366 9.90972,9.90971 0,0.17947 -2.15629,2.48247 -4.79176,5.11794 -2.63549,2.63546 -4.93855,4.79177 -5.11796,4.79177 -0.17948,0 -2.48244,-2.15631 -5.11793,-4.79177 z"
         id="path1802" />
      <path
         id="path1804"
         d="m 275.72341,308.85323 c -1.87791,-1.87793 -3.41441,-3.519 -3.41441,-3.64682 0,-0.30358 6.75766,-7.06123 7.06122,-7.06123 0.30359,0 7.06125,6.75765 7.06125,7.06123 0,0.12788 -1.5365,1.76889 -3.41441,3.64682 -1.87793,1.87791 -3.51899,3.41441 -3.64684,3.41441 -0.12788,0 -1.76888,-1.5365 -3.64681,-3.41441 z"
         style="fill:#ff5555;stroke-width:0.160482" />
      <path
         style="fill:#ffffff;stroke-width:0.0931606"
         d="m 277.25325,307.32341 c -1.09016,-1.09015 -1.9821,-2.04279 -1.9821,-2.117 0,-0.17623 3.92286,-4.09908 4.09908,-4.09908 0.17623,0 4.09909,3.92285 4.09909,4.09908 0,0.0742 -0.89194,1.02685 -1.9821,2.117 -1.09014,1.09014 -2.04278,1.98208 -2.11699,1.98208 -0.0742,0 -1.02684,-0.89194 -2.11698,-1.98208 z"
         id="path1806" />
    </g>
    <g
       id="Tiles_8_white"
       transform="translate(12.845663,-11.461555)">
      <path
         id="path1834"
         d="m 354.4243,295.95833 c 0,0 3.59213,-4.01166 8.02327,-4.01166 4.43115,0 8.02327,3.64105 8.02327,8.02327 0,2.71647 -2.67518,5.34809 -2.67518,5.34809 l -12.01814,12.01963 c -0.74729,0.74733 -1.95994,0.74733 -2.70723,0 l -12.0173,-12.01963 c 0,0 -2.67522,-2.63315 -2.67522,-5.34809 0,-4.38222 3.59217,-8.02327 8.02327,-8.02327 4.43117,0 8.02326,4.01166 8.02326,4.01166 z"
         fill="url(#4LyKu8AtUK4gmSHjQsrKja)"
         style="fill:#ff1255;fill-opacity:1;stroke-width:0.764121" />
      <rect
         ry="6.0476189"
         y="256.30762"
         x="321.06183"
         height="94.494034"
         width="66.523796"
         id="rect1836"
         style="fill:#ffffff;stroke-width:0.264583" />
      <path
         style="fill:#ff5555;stroke-width:0.448962"
         d="m 344.9861,315.26918 c -5.25364,-5.25364 -9.55207,-9.8447 -9.55207,-10.2023 0,-0.8493 18.90508,-19.75437 19.75433,-19.75437 0.8493,0 19.75438,18.90507 19.75438,19.75437 0,0.35777 -4.29843,4.94866 -9.55207,10.2023 -5.25365,5.2536 -9.84466,9.55207 -10.20231,9.55207 -0.35777,0 -4.94861,-4.29847 -10.20226,-9.55207 z"
         id="path1838" />
      <text
         id="text1842"
         y="268.75711"
         x="324.90579"
         style="font-style:normal;font-variant:normal;font-weight:bold;font-stretch:normal;font-size:10.5833px;line-height:1.25;font-family:sans-serif;-inkscape-font-specification:'sans-serif Bold';fill:#ff5555;fill-opacity:1;stroke:none;stroke-width:0.264583"
         xml:space="preserve"><tspan
           style="font-style:normal;font-variant:normal;font-weight:bold;font-stretch:normal;font-family:sans-serif;-inkscape-font-specification:'sans-serif Bold';fill:#ff5555;stroke-width:0.264583"
           y="268.75711"
           x="324.90579"
           id="tspan1840">8</tspan></text>
      <text
         transform="scale(-1)"
         xml:space="preserve"
         style="font-style:normal;font-variant:normal;font-weight:bold;font-stretch:normal;font-size:10.5833px;line-height:1.25;font-family:sans-serif;-inkscape-font-specification:'sans-serif Bold';fill:#ff5555;fill-opacity:1;stroke:none;stroke-width:0.264583"
         x="-383.84299"
         y="-338.31674"
         id="text1846"><tspan
           id="tspan1844"
           x="-383.84299"
           y="-338.31674"
           style="font-style:normal;font-variant:normal;font-weight:bold;font-stretch:normal;font-family:sans-serif;-inkscape-font-specification:'sans-serif Bold';fill:#ff5555;stroke-width:0.264583">8</tspan></text>
      <path
         style="fill:#ff5555;stroke-width:0.105033"
         d="m 338.04305,266.51918 c -1.22907,-1.22907 -2.23467,-2.30313 -2.23467,-2.38679 0,-0.19869 4.42277,-4.62146 4.62145,-4.62146 0.19869,0 4.62146,4.42277 4.62146,4.62146 0,0.0837 -1.0056,1.15772 -2.23467,2.38679 -1.22907,1.22906 -2.30312,2.23467 -2.38679,2.23467 -0.0837,0 -1.15771,-1.00561 -2.38678,-2.23467 z"
         id="path1848" />
      <path
         id="path1850"
         d="m 366.01363,345.29394 c -1.22907,-1.22907 -2.23467,-2.30313 -2.23467,-2.38679 0,-0.19869 4.42277,-4.62146 4.62145,-4.62146 0.19869,0 4.62147,4.42277 4.62147,4.62146 0,0.0837 -1.0056,1.15772 -2.23467,2.38679 -1.22908,1.22906 -2.30313,2.23467 -2.3868,2.23467 -0.0837,0 -1.15771,-1.00561 -2.38678,-2.23467 z"
         style="fill:#ff5555;stroke-width:0.105033" />
      <path
         id="path1852"
         d="m 346.7129,313.54237 c -4.36442,-4.36442 -7.93532,-8.17842 -7.93532,-8.47549 0,-0.70556 15.70528,-16.41081 16.41079,-16.41081 0.70554,0 16.41082,15.70525 16.41082,16.41081 0,0.29721 -3.5709,4.11107 -7.93532,8.47549 -4.36444,4.3644 -8.1784,7.93532 -8.4755,7.93532 -0.29723,0 -4.11103,-3.57092 -8.47547,-7.93532 z"
         style="fill:#f9f9f9;stroke-width:0.372972" />
      <path
         style="fill:#ff5555;stroke-width:0.29854"
         d="m 348.40431,311.85095 c -3.49344,-3.49344 -6.3517,-6.54629 -6.3517,-6.78407 0,-0.56475 12.57104,-13.13578 13.13576,-13.13578 0.56475,0 13.13579,12.57103 13.13579,13.13578 0,0.2379 -2.85826,3.29063 -6.3517,6.78407 -3.49345,3.49343 -6.54628,6.35171 -6.78409,6.35171 -0.23791,0 -3.29061,-2.85828 -6.78406,-6.35171 z"
         id="path1854" />
      <path
         id="path1856"
         d="m 350.07044,310.18482 c -2.63547,-2.63547 -4.79176,-4.93856 -4.79176,-5.11794 0,-0.42605 9.48367,-9.90971 9.90969,-9.90971 0.42605,0 9.90972,9.48366 9.90972,9.90971 0,0.17947 -2.15629,2.48247 -4.79176,5.11794 -2.63549,2.63546 -4.93855,4.79177 -5.11796,4.79177 -0.17948,0 -2.48244,-2.15631 -5.11793,-4.79177 z"
         style="fill:#ffffff;stroke-width:0.225221" />
      <path
         style="fill:#ff5555;stroke-width:0.160482"
         d="m 351.54156,308.7137 c -1.87791,-1.87793 -3.41441,-3.519 -3.41441,-3.64682 0,-0.30358 6.75766,-7.06123 7.06122,-7.06123 0.30359,0 7.06125,6.75765 7.06125,7.06123 0,0.12788 -1.5365,1.76889 -3.41441,3.64682 -1.87793,1.87791 -3.51899,3.41441 -3.64684,3.41441 -0.12788,0 -1.76888,-1.5365 -3.64681,-3.41441 z"
         id="path1858" />
      <path
         id="path1860"
         d="m 353.0714,307.18388 c -1.09016,-1.09015 -1.9821,-2.04279 -1.9821,-2.117 0,-0.17623 3.92286,-4.09908 4.09908,-4.09908 0.17623,0 4.09909,3.92285 4.09909,4.09908 0,0.0742 -0.89194,1.02685 -1.9821,2.117 -1.09014,1.09014 -2.04278,1.98208 -2.11699,1.98208 -0.0742,0 -1.02684,-0.89194 -2.11698,-1.98208 z"
         style="fill:#ffffff;stroke-width:0.0931606" />
    </g>
    <g
       id="Tiles_9_white"
       transform="translate(2.617733,-11.312965)">
      <path
         style="fill:#ff1255;fill-opacity:1;stroke-width:0.764121"
         fill="url(#4LyKu8AtUK4gmSHjQsrKja)"
         d="m 435.15659,295.80975 c 0,0 3.59213,-4.01166 8.02327,-4.01166 4.43115,0 8.02327,3.64105 8.02327,8.02327 0,2.71647 -2.67518,5.34809 -2.67518,5.34809 l -12.01814,12.01963 c -0.74729,0.74733 -1.95994,0.74733 -2.70723,0 l -12.0173,-12.01963 c 0,0 -2.67522,-2.63315 -2.67522,-5.34809 0,-4.38222 3.59217,-8.02327 8.02327,-8.02327 4.43117,0 8.02326,4.01166 8.02326,4.01166 z"
         id="path1888" />
      <rect
         style="fill:#ffffff;stroke-width:0.264583"
         id="rect1890"
         width="66.523796"
         height="94.494034"
         x="401.79413"
         y="256.15903"
         ry="6.0476189" />
      <path
         id="path1892"
         d="m 425.71839,315.1206 c -5.25364,-5.25364 -9.55207,-9.8447 -9.55207,-10.2023 0,-0.8493 18.90508,-19.75437 19.75433,-19.75437 0.8493,0 19.75438,18.90507 19.75438,19.75437 0,0.35777 -4.29843,4.94866 -9.55207,10.2023 -5.25365,5.2536 -9.84466,9.55207 -10.20231,9.55207 -0.35777,0 -4.94861,-4.29847 -10.20226,-9.55207 z"
         style="fill:#ff5555;stroke-width:0.448962" />
      <text
         xml:space="preserve"
         style="font-style:normal;font-variant:normal;font-weight:bold;font-stretch:normal;font-size:10.5833px;line-height:1.25;font-family:sans-serif;-inkscape-font-specification:'sans-serif Bold';fill:#ff5555;fill-opacity:1;stroke:none;stroke-width:0.264583"
         x="405.63809"
         y="268.60852"
         id="text1896"><tspan
           id="tspan1894"
           x="405.63809"
           y="268.60852"
           style="font-style:normal;font-variant:normal;font-weight:bold;font-stretch:normal;font-family:sans-serif;-inkscape-font-specification:'sans-serif Bold';fill:#ff5555;stroke-width:0.264583">9</tspan></text>
      <text
         id="text1900"
         y="-338.16815"
         x="-464.57529"
         style="font-style:normal;font-variant:normal;font-weight:bold;font-stretch:normal;font-size:10.5833px;line-height:1.25;font-family:sans-serif;-inkscape-font-specification:'sans-serif Bold';fill:#ff5555;fill-opacity:1;stroke:none;stroke-width:0.264583"
         xml:space="preserve"
         transform="scale(-1)"><tspan
           style="font-style:normal;font-variant:normal;font-weight:bold;font-stretch:normal;font-family:sans-serif;-inkscape-font-specification:'sans-serif Bold';fill:#ff5555;stroke-width:0.264583"
           y="-338.16815"
           x="-464.57529"
           id="tspan1898">9</tspan></text>
      <path
         id="path1902"
         d="m 418.77534,266.3706 c -1.22907,-1.22907 -2.23467,-2.30313 -2.23467,-2.38679 0,-0.19869 4.42277,-4.62146 4.62145,-4.62146 0.19869,0 4.62146,4.42277 4.62146,4.62146 0,0.0837 -1.0056,1.15772 -2.23467,2.38679 -1.22907,1.22906 -2.30312,2.23467 -2.38679,2.23467 -0.0837,0 -1.15771,-1.00561 -2.38678,-2.23467 z"
         style="fill:#ff5555;stroke-width:0.105033" />
      <path
         style="fill:#ff5555;stroke-width:0.105033"
         d="m 446.74592,345.14536 c -1.22907,-1.22907 -2.23467,-2.30313 -2.23467,-2.38679 0,-0.19869 4.42277,-4.62146 4.62145,-4.62146 0.19869,0 4.62147,4.42277 4.62147,4.62146 0,0.0837 -1.0056,1.15772 -2.23467,2.38679 -1.22908,1.22906 -2.30313,2.23467 -2.3868,2.23467 -0.0837,0 -1.15771,-1.00561 -2.38678,-2.23467 z"
         id="path1904" />
      <path
         style="fill:#f9f9f9;stroke-width:0.372972"
         d="m 427.44519,313.39379 c -4.36442,-4.36442 -7.93532,-8.17842 -7.93532,-8.47549 0,-0.70556 15.70528,-16.41081 16.41079,-16.41081 0.70554,0 16.41082,15.70525 16.41082,16.41081 0,0.29721 -3.5709,4.11107 -7.93532,8.47549 -4.36444,4.3644 -8.1784,7.93532 -8.4755,7.93532 -0.29723,0 -4.11103,-3.57092 -8.47547,-7.93532 z"
         id="path1906" />
      <path
         id="path1908"
         d="m 429.1366,311.70237 c -3.49344,-3.49344 -6.3517,-6.54629 -6.3517,-6.78407 0,-0.56475 12.57104,-13.13578 13.13576,-13.13578 0.56475,0 13.13579,12.57103 13.13579,13.13578 0,0.2379 -2.85826,3.29063 -6.3517,6.78407 -3.49345,3.49343 -6.54628,6.35171 -6.78409,6.35171 -0.23791,0 -3.29061,-2.85828 -6.78406,-6.35171 z"
         style="fill:#ff5555;stroke-width:0.29854" />
      <path
         style="fill:#ffffff;stroke-width:0.225221"
         d="m 430.80273,310.03624 c -2.63547,-2.63547 -4.79176,-4.93856 -4.79176,-5.11794 0,-0.42605 9.48367,-9.90971 9.90969,-9.90971 0.42605,0 9.90972,9.48366 9.90972,9.90971 0,0.17947 -2.15629,2.48247 -4.79176,5.11794 -2.63549,2.63546 -4.93855,4.79177 -5.11796,4.79177 -0.17948,0 -2.48244,-2.15631 -5.11793,-4.79177 z"
         id="path1910" />
      <path
         id="path1912"
         d="m 432.27385,308.56512 c -1.87791,-1.87793 -3.41441,-3.519 -3.41441,-3.64682 0,-0.30358 6.75766,-7.06123 7.06122,-7.06123 0.30359,0 7.06125,6.75765 7.06125,7.06123 0,0.12788 -1.5365,1.76889 -3.41441,3.64682 -1.87793,1.87791 -3.51899,3.41441 -3.64684,3.41441 -0.12788,0 -1.76888,-1.5365 -3.64681,-3.41441 z"
         style="fill:#ff5555;stroke-width:0.160482" />
      <path
         style="fill:#ffffff;stroke-width:0.0931606"
         d="m 433.80369,307.0353 c -1.09016,-1.09015 -1.9821,-2.04279 -1.9821,-2.117 0,-0.17623 3.92286,-4.09908 4.09908,-4.09908 0.17623,0 4.09909,3.92285 4.09909,4.09908 0,0.0742 -0.89194,1.02685 -1.9821,2.117 -1.09014,1.09014 -2.04278,1.98208 -2.11699,1.98208 -0.0742,0 -1.02684,-0.89194 -2.11698,-1.98208 z"
         id="path1914" />
    </g>
    <g
       id="Tiles_10_white"
       transform="translate(-6.207425,-11.868995)">
      <path
         id="path1942"
         d="m 514.48613,296.36578 c 0,0 3.59213,-4.01166 8.02327,-4.01166 4.43115,0 8.02327,3.64105 8.02327,8.02327 0,2.71647 -2.67518,5.34809 -2.67518,5.34809 l -12.01814,12.01963 c -0.74729,0.74733 -1.95994,0.74733 -2.70723,0 l -12.0173,-12.01963 c 0,0 -2.67522,-2.63315 -2.67522,-5.34809 0,-4.38222 3.59217,-8.02327 8.02327,-8.02327 4.43117,0 8.02326,4.01166 8.02326,4.01166 z"
         fill="url(#4LyKu8AtUK4gmSHjQsrKja)"
         style="fill:#ff1255;fill-opacity:1;stroke-width:0.764121" />
      <rect
         ry="6.0476189"
         y="256.71506"
         x="481.12366"
         height="94.494034"
         width="66.523796"
         id="rect1944"
         style="fill:#ffffff;stroke-width:0.264583" />
      <path
         style="fill:#ff5555;stroke-width:0.448962"
         d="m 505.04793,315.67663 c -5.25364,-5.25364 -9.55207,-9.8447 -9.55207,-10.2023 0,-0.8493 18.90508,-19.75437 19.75433,-19.75437 0.8493,0 19.75438,18.90507 19.75438,19.75437 0,0.35777 -4.29843,4.94866 -9.55207,10.2023 -5.25365,5.2536 -9.84466,9.55207 -10.20231,9.55207 -0.35777,0 -4.94861,-4.29847 -10.20226,-9.55207 z"
         id="path1946" />
      <text
         id="text1950"
         y="269.16455"
         x="481.2634"
         style="font-style:normal;font-variant:normal;font-weight:bold;font-stretch:normal;font-size:10.5833px;line-height:1.25;font-family:sans-serif;-inkscape-font-specification:'sans-serif Bold';fill:#ff5555;fill-opacity:1;stroke:none;stroke-width:0.264583"
         xml:space="preserve"><tspan
           style="font-style:normal;font-variant:normal;font-weight:bold;font-stretch:normal;font-family:sans-serif;-inkscape-font-specification:'sans-serif Bold';fill:#ff5555;stroke-width:0.264583"
           y="269.16455"
           x="481.2634"
           id="tspan1948">10</tspan></text>
      <text
         transform="scale(-1)"
         xml:space="preserve"
         style="font-style:normal;font-variant:normal;font-weight:bold;font-stretch:normal;font-size:10.5833px;line-height:1.25;font-family:sans-serif;-inkscape-font-specification:'sans-serif Bold';fill:#ff5555;fill-opacity:1;stroke:none;stroke-width:0.264583"
         x="-547.60907"
         y="-338.72418"
         id="text1954"><tspan
           id="tspan1952"
           x="-547.60907"
           y="-338.72418"
           style="font-style:normal;font-variant:normal;font-weight:bold;font-stretch:normal;font-family:sans-serif;-inkscape-font-specification:'sans-serif Bold';fill:#ff5555;stroke-width:0.264583">10</tspan></text>
      <path
         style="fill:#ff5555;stroke-width:0.105033"
         d="m 498.10488,266.92663 c -1.22907,-1.22907 -2.23467,-2.30313 -2.23467,-2.38679 0,-0.19869 4.42277,-4.62146 4.62145,-4.62146 0.19869,0 4.62146,4.42277 4.62146,4.62146 0,0.0837 -1.0056,1.15772 -2.23467,2.38679 -1.22907,1.22906 -2.30312,2.23467 -2.38679,2.23467 -0.0837,0 -1.15771,-1.00561 -2.38678,-2.23467 z"
         id="path1956" />
      <path
         id="path1958"
         d="m 526.07546,345.70139 c -1.22907,-1.22907 -2.23467,-2.30313 -2.23467,-2.38679 0,-0.19869 4.42277,-4.62146 4.62145,-4.62146 0.19869,0 4.62147,4.42277 4.62147,4.62146 0,0.0837 -1.0056,1.15772 -2.23467,2.38679 -1.22908,1.22906 -2.30313,2.23467 -2.3868,2.23467 -0.0837,0 -1.15771,-1.00561 -2.38678,-2.23467 z"
         style="fill:#ff5555;stroke-width:0.105033" />
      <path
         id="path1960"
         d="m 506.77473,313.94982 c -4.36442,-4.36442 -7.93532,-8.17842 -7.93532,-8.47549 0,-0.70556 15.70528,-16.41081 16.41079,-16.41081 0.70554,0 16.41082,15.70525 16.41082,16.41081 0,0.29721 -3.5709,4.11107 -7.93532,8.47549 -4.36444,4.3644 -8.1784,7.93532 -8.4755,7.93532 -0.29723,0 -4.11103,-3.57092 -8.47547,-7.93532 z"
         style="fill:#f9f9f9;stroke-width:0.372972" />
      <path
         style="fill:#ff5555;stroke-width:0.29854"
         d="m 508.46614,312.2584 c -3.49344,-3.49344 -6.3517,-6.54629 -6.3517,-6.78407 0,-0.56475 12.57104,-13.13578 13.13576,-13.13578 0.56475,0 13.13579,12.57103 13.13579,13.13578 0,0.2379 -2.85826,3.29063 -6.3517,6.78407 -3.49345,3.49343 -6.54628,6.35171 -6.78409,6.35171 -0.23791,0 -3.29061,-2.85828 -6.78406,-6.35171 z"
         id="path1962" />
      <path
         id="path1964"
         d="m 510.13227,310.59227 c -2.63547,-2.63547 -4.79176,-4.93856 -4.79176,-5.11794 0,-0.42605 9.48367,-9.90971 9.90969,-9.90971 0.42605,0 9.90972,9.48366 9.90972,9.90971 0,0.17947 -2.15629,2.48247 -4.79176,5.11794 -2.63549,2.63546 -4.93855,4.79177 -5.11796,4.79177 -0.17948,0 -2.48244,-2.15631 -5.11793,-4.79177 z"
         style="fill:#ffffff;stroke-width:0.225221" />
      <path
         style="fill:#ff5555;stroke-width:0.160482"
         d="m 511.60339,309.12115 c -1.87791,-1.87793 -3.41441,-3.519 -3.41441,-3.64682 0,-0.30358 6.75766,-7.06123 7.06122,-7.06123 0.30359,0 7.06125,6.75765 7.06125,7.06123 0,0.12788 -1.5365,1.76889 -3.41441,3.64682 -1.87793,1.87791 -3.51899,3.41441 -3.64684,3.41441 -0.12788,0 -1.76888,-1.5365 -3.64681,-3.41441 z"
         id="path1966" />
      <path
         id="path1968"
         d="m 513.13323,307.59133 c -1.09016,-1.09015 -1.9821,-2.04279 -1.9821,-2.117 0,-0.17623 3.92286,-4.09908 4.09908,-4.09908 0.17623,0 4.09909,3.92285 4.09909,4.09908 0,0.0742 -0.89194,1.02685 -1.9821,2.117 -1.09014,1.09014 -2.04278,1.98208 -2.11699,1.98208 -0.0742,0 -1.02684,-0.89194 -2.11698,-1.98208 z"
         style="fill:#ffffff;stroke-width:0.0931606" />
    </g>
    <g
       id="Tiles_Jack_white"
       transform="translate(-16.435355,-11.720405)">
      <path
         style="fill:#ff1255;fill-opacity:1;stroke-width:0.764121"
         fill="url(#4LyKu8AtUK4gmSHjQsrKja)"
         d="m 595.21842,296.2172 c 0,0 3.59213,-4.01166 8.02327,-4.01166 4.43115,0 8.02327,3.64105 8.02327,8.02327 0,2.71647 -2.67518,5.34809 -2.67518,5.34809 l -12.01814,12.01963 c -0.74729,0.74733 -1.95994,0.74733 -2.70723,0 l -12.0173,-12.01963 c 0,0 -2.67522,-2.63315 -2.67522,-5.34809 0,-4.38222 3.59217,-8.02327 8.02327,-8.02327 4.43117,0 8.02326,4.01166 8.02326,4.01166 z"
         id="path1996" />
      <rect
         style="fill:#ffffff;stroke-width:0.264583"
         id="rect1998"
         width="66.523796"
         height="94.494034"
         x="561.85596"
         y="256.56647"
         ry="6.0476189" />
      <text
         xml:space="preserve"
         style="font-style:normal;font-variant:normal;font-weight:bold;font-stretch:normal;font-size:10.5833px;line-height:1.25;font-family:sans-serif;-inkscape-font-specification:'sans-serif Bold';fill:#ff5555;fill-opacity:1;stroke:none;stroke-width:0.264583"
         x="566.75824"
         y="269.01596"
         id="text2004"><tspan
           id="tspan2002"
           x="566.75824"
           y="269.01596"
           style="font-style:normal;font-variant:normal;font-weight:bold;font-stretch:normal;font-family:sans-serif;-inkscape-font-specification:'sans-serif Bold';fill:#ff5555;stroke-width:0.264583">J</tspan></text>
      <text
         id="text2008"
         y="-338.57559"
         x="-623.04962"
         style="font-style:normal;font-variant:normal;font-weight:bold;font-stretch:normal;font-size:10.5833px;line-height:1.25;font-family:sans-serif;-inkscape-font-specification:'sans-serif Bold';fill:#ff5555;fill-opacity:1;stroke:none;stroke-width:0.264583"
         xml:space="preserve"
         transform="scale(-1)"><tspan
           style="font-style:normal;font-variant:normal;font-weight:bold;font-stretch:normal;font-family:sans-serif;-inkscape-font-specification:'sans-serif Bold';fill:#ff5555;stroke-width:0.264583"
           y="-338.57559"
           x="-623.04962"
           id="tspan2006">J</tspan></text>
      <path
         id="path2010"
         d="m 578.83717,266.77805 c -1.22907,-1.22907 -2.23467,-2.30313 -2.23467,-2.38679 0,-0.19869 4.42277,-4.62146 4.62145,-4.62146 0.19869,0 4.62146,4.42277 4.62146,4.62146 0,0.0837 -1.0056,1.15772 -2.23467,2.38679 -1.22907,1.22906 -2.30312,2.23467 -2.38679,2.23467 -0.0837,0 -1.15771,-1.00561 -2.38678,-2.23467 z"
         style="fill:#ff5555;stroke-width:0.105033" />
      <path
         style="fill:#ff5555;stroke-width:0.105033"
         d="m 606.80775,345.55281 c -1.22907,-1.22907 -2.23467,-2.30313 -2.23467,-2.38679 0,-0.19869 4.42277,-4.62146 4.62145,-4.62146 0.19869,0 4.62147,4.42277 4.62147,4.62146 0,0.0837 -1.0056,1.15772 -2.23467,2.38679 -1.22908,1.22906 -2.30313,2.23467 -2.3868,2.23467 -0.0837,0 -1.15771,-1.00561 -2.38678,-2.23467 z"
         id="path2012" />
      <path
         style="fill:#ffffff;stroke-width:0.0931606"
         d="m 593.86552,307.44275 c -1.09016,-1.09015 -1.9821,-2.04279 -1.9821,-2.117 0,-0.17623 3.92286,-4.09908 4.09908,-4.09908 0.17623,0 4.09909,3.92285 4.09909,4.09908 0,0.0742 -0.89194,1.02685 -1.9821,2.117 -1.09014,1.09014 -2.04278,1.98208 -2.11699,1.98208 -0.0742,0 -1.02684,-0.89194 -2.11698,-1.98208 z"
         id="path2022" />
      <circle
         style="fill:#ffffff;fill-opacity:1;stroke-width:0.135491"
         id="circle3248"
         cx="595.76837"
         cy="294.55307"
         r="4.5587168" />
      <path
         id="path3254"
         d="m 611.99263,315.12461 c 1.79077,-3.58373 7.47016,-14.19763 7.40652,-14.5293 -0.0785,-0.4094 -1.05207,-0.87088 -3.03171,-1.43717 -11.84471,-3.3882 -23.25688,-3.85899 -33.39955,-1.37786 -4.02332,0.9842 -9.10261,2.87496 -10.27624,3.8253 l -0.81364,0.65885 3.74633,6.43499 3.74632,6.43498 m 1.10177,-1.95222 c -0.64438,-0.82755 -5.96706,-10.23118 -5.67011,-10.28571 1.46528,0.39349 2.78514,2.08265 3.02393,2.34211 1.63123,2.58868 2.78237,4.40566 3.60132,5.2246 0.37612,0.37611 6.8298,-0.48852 7.32229,-0.981 0.19497,-0.19497 -0.86429,-8.71958 -1.25304,-10.08423 -0.11728,-0.41184 0.11577,-0.64881 0.75931,-0.77183 1.11097,-0.21237 1.08848,-0.29002 1.66502,5.74702 0.23011,2.40948 0.48697,4.49216 0.57081,4.62816 0.0839,0.13605 2.39224,0.18853 5.12977,0.11673 3.60781,-0.0947 5.06139,-0.26315 5.2828,-0.61235 0.16801,-0.26497 0.30915,-1.54959 0.31366,-2.85473 0.004,-1.30513 0.11287,-3.48188 0.24091,-4.8372 l 0.23273,-2.46424 h 1.2656 c 1.22685,0 1.25926,0.0363 1.05893,1.18648 -1.08337,6.22008 -1.41724,9.48917 -0.99574,9.74968 0.64153,0.39648 6.54858,1.18437 6.96236,0.92865 0.18944,-0.11714 1.32349,-2.25957 2.52009,-4.7611 2.15207,-4.49885 2.3746,-4.74306 3.93983,-4.32334 0.76775,0.20586 0.67594,0.46629 -2.18781,6.20628 -2.10954,4.22827 -3.13772,5.93439 -3.49395,5.7977 -1.81533,-0.69661 -7.50828,-1.28962 -12.45112,-1.29699 -5.82617,-0.008 -10.25773,0.36398 -14.87793,1.2511 -1.95006,0.37443 -2.72234,0.39902 -2.95966,0.0943 z m 26.46295,-4.99355 c -0.97338,-0.16333 -1.86973,-0.39692 -1.99188,-0.51908 -0.1929,-0.1929 0.87021,-8.55824 1.11928,-8.80731 0.14992,-0.14991 5.87023,0.98101 6.36635,1.25866 0.32729,0.18317 -0.0924,1.38074 -1.52527,4.35164 -1.08725,2.25442 -2.02674,4.07962 -2.08775,4.056 -0.061,-0.0236 -0.90735,-0.17657 -1.88073,-0.33991 z m -14.85886,-1.24311 c -0.01,-0.21006 -0.22071,-2.22025 -0.46866,-4.46707 -0.53267,-4.82697 -0.88603,-4.48141 4.59049,-4.48908 l 3.55638,-0.006 -0.23026,4.47214 c -0.12667,2.45968 -0.24846,4.49439 -0.27072,4.52158 -0.0222,0.0272 -1.64222,0.11687 -3.59993,0.19941 -2.32338,0.0978 -3.56565,0.0174 -3.5773,-0.23199 z"
         style="fill:#75a2ff;stroke-width:0.365072" />
      <path
         style="fill:#ff5555;stroke-width:0.344276"
         d="m 611.68863,314.6009 c 1.68876,-3.37958 7.37237,-13.57936 7.31235,-13.89213 -0.074,-0.38608 -2.30165,-0.98708 -4.16852,-1.5211 -11.16999,-3.1952 -21.60486,-3.48857 -31.16976,-1.14877 -3.9355,0.85758 -7.89629,2.45277 -10.9222,4.33712 l 3.72323,6.50531 3.3423,5.82253 m -0.0252,-1.8427 c -0.37948,-0.95258 -5.75556,-9.98876 -5.75556,-10.27347 3.66475,-0.36462 5.41885,4.99838 7.93881,7.68411 0.35469,0.35469 5.8406,-0.57079 6.30503,-1.03522 0.18387,-0.18386 -0.98557,-9.09833 -1.24843,-10.41036 -0.0833,-0.41563 1.02321,-0.55583 1.63008,-0.67185 1.04767,-0.20026 1.09378,0.29964 1.63747,5.99278 0.21701,2.27223 0.55452,4.37285 0.63358,4.50111 0.0791,0.1283 2.10979,0.2448 4.69138,0.1771 3.40229,-0.0893 4.76339,-0.23853 4.97219,-0.56784 0.15844,-0.24987 0.20153,-1.36099 0.31495,-2.60526 0.0712,-1.24431 0.10646,-3.28353 0.22719,-4.56165 l 0.24783,-2.99235 1.46646,-0.0541 c 1.15618,-0.0427 1.7468,0.10334 1.55788,1.188 -1.02166,5.86576 -1.47397,9.58965 -1.07648,9.83532 0.60499,0.3739 6.03929,1.00754 6.42949,0.76639 0.17866,-0.11047 1.6313,-2.867 2.75973,-5.22603 2.02948,-4.24258 2.67562,-4.28118 4.15168,-3.88537 0.72401,0.19414 0.58126,1.44926 -2.11935,6.86228 -1.98937,3.9874 -3.23274,6.15529 -3.56868,6.02638 -1.71193,-0.65693 -8.11733,-1.3133 -12.7786,-1.32025 -5.49429,-0.008 -10.13732,0.3698 -14.49434,1.20638 -2.59637,0.38618 -3.17494,0.54881 -3.92231,-0.63606 z"
         id="path3256" />
    </g>
    <g
       id="Tiles_Queen_white"
       transform="translate(-25.259232,-11.574409)">
      <path
         id="path2050"
         d="m 674.54667,296.07121 c 0,0 3.59213,-4.01166 8.02327,-4.01166 4.43115,0 8.02327,3.64105 8.02327,8.02327 0,2.71647 -2.67518,5.34809 -2.67518,5.34809 l -12.01814,12.01963 c -0.74729,0.74733 -1.95994,0.74733 -2.70723,0 l -12.0173,-12.01963 c 0,0 -2.67522,-2.63315 -2.67522,-5.34809 0,-4.38222 3.59217,-8.02327 8.02327,-8.02327 4.43117,0 8.02326,4.01166 8.02326,4.01166 z"
         fill="url(#4LyKu8AtUK4gmSHjQsrKja)"
         style="fill:#ff1255;fill-opacity:1;stroke-width:0.764121" />
      <rect
         ry="6.0476189"
         y="256.42047"
         x="641.1842"
         height="94.494034"
         width="66.523796"
         id="rect2052"
         style="fill:#ffffff;stroke-width:0.264583" />
      <text
         id="text2058"
         y="268.34079"
         x="644.49896"
         style="font-style:normal;font-variant:normal;font-weight:bold;font-stretch:normal;font-size:10.5833px;line-height:1.25;font-family:sans-serif;-inkscape-font-specification:'sans-serif Bold';fill:#ff5555;fill-opacity:1;stroke:none;stroke-width:0.264583"
         xml:space="preserve"><tspan
           style="font-style:normal;font-variant:normal;font-weight:bold;font-stretch:normal;font-family:sans-serif;-inkscape-font-specification:'sans-serif Bold';fill:#ff5555;stroke-width:0.264583"
           y="268.34079"
           x="644.49896"
           id="tspan2056">Q</tspan></text>
      <text
         transform="scale(-1)"
         xml:space="preserve"
         style="font-style:normal;font-variant:normal;font-weight:bold;font-stretch:normal;font-size:10.5833px;line-height:1.25;font-family:sans-serif;-inkscape-font-specification:'sans-serif Bold';fill:#ff5555;fill-opacity:1;stroke:none;stroke-width:0.264583"
         x="-705.02374"
         y="-339.48795"
         id="text2062"><tspan
           id="tspan2060"
           x="-705.02374"
           y="-339.48795"
           style="font-style:normal;font-variant:normal;font-weight:bold;font-stretch:normal;font-family:sans-serif;-inkscape-font-specification:'sans-serif Bold';fill:#ff5555;stroke-width:0.264583">Q</tspan></text>
      <path
         style="fill:#ff5555;stroke-width:0.105033"
         d="m 658.16542,266.63206 c -1.22907,-1.22907 -2.23467,-2.30313 -2.23467,-2.38679 0,-0.19869 4.42277,-4.62146 4.62145,-4.62146 0.19869,0 4.62146,4.42277 4.62146,4.62146 0,0.0837 -1.0056,1.15772 -2.23467,2.38679 -1.22907,1.22906 -2.30312,2.23467 -2.38679,2.23467 -0.0837,0 -1.15771,-1.00561 -2.38678,-2.23467 z"
         id="path2064" />
      <path
         id="path2066"
         d="m 686.136,345.40682 c -1.22907,-1.22907 -2.23467,-2.30313 -2.23467,-2.38679 0,-0.19869 4.42277,-4.62146 4.62145,-4.62146 0.19869,0 4.62147,4.42277 4.62147,4.62146 0,0.0837 -1.0056,1.15772 -2.23467,2.38679 -1.22908,1.22906 -2.30313,2.23467 -2.3868,2.23467 -0.0837,0 -1.15771,-1.00561 -2.38678,-2.23467 z"
         style="fill:#ff5555;stroke-width:0.105033" />
      <circle
         style="fill:#ffffff;fill-opacity:1;stroke-width:0.225602"
         id="circle3272"
         cx="683.36963"
         cy="308.81223"
         r="7.590591" />
      <circle
         r="4.5587168"
         cy="308.87787"
         cx="666.84149"
         id="circle3274"
         style="fill:#ffffff;fill-opacity:1;stroke-width:0.135491" />
      <circle
         style="fill:#ff5555;fill-opacity:1;stroke-width:0.0931338"
         id="circle3276"
         cx="666.84149"
         cy="308.87787"
         r="3.1335778" />
      <path
         id="path3278"
         d="m 661.37162,319.59572 c -0.3302,-0.33018 -0.55273,-1.92339 -0.55273,-3.95708 0,-3.20504 -0.0915,-3.51136 -1.56423,-5.23182 -3.72749,-4.35476 -3.37958,-10.21855 0.85772,-14.45585 3.10589,-3.1059 6.47356,-4.09848 10.24028,-3.01819 1.28135,0.36748 1.55795,0.28205 2.18486,-0.67471 1.06341,-1.62299 0.89301,-2.42834 -0.5489,-2.59424 -1.00519,-0.1156 -1.26667,-0.38347 -1.26667,-1.29727 0,-0.90738 0.26262,-1.18185 1.23877,-1.29457 0.95736,-0.11057 1.27126,-0.42446 1.38182,-1.38182 0.11281,-0.97614 0.38718,-1.23877 1.29457,-1.23877 0.90737,0 1.18184,0.26263 1.29456,1.23877 0.11055,0.95736 0.42446,1.27126 1.38183,1.38182 0.97614,0.11272 1.23877,0.38719 1.23877,1.29457 0,0.9138 -0.2615,1.1816 -1.26668,1.29727 -1.44192,0.1659 -1.61231,0.97125 -0.5489,2.59424 0.62691,0.95676 0.90352,1.04219 2.18485,0.67471 6.84303,-1.96256 14.2745,4.27267 13.54274,11.36276 -0.27038,2.61962 -1.53981,5.47172 -3.03874,6.82732 -0.82544,0.74651 -0.97022,1.40292 -0.97022,4.39879 0,2.12469 -0.21923,3.74056 -0.55273,4.07407 -0.78826,0.78825 -25.74272,0.78825 -26.53097,0 z m 24.32006,-4.04194 c 0,-1.77517 -0.036,-1.81733 -1.1815,-1.38181 -1.67844,0.63813 -7.26978,0.5652 -7.93852,-0.10356 -0.3767,-0.37671 -0.55274,-2.58461 -0.55274,-6.93262 v -6.37988 l 1.59733,-0.6674 c 0.87854,-0.36708 2.14577,-0.6674 2.81609,-0.6674 2.04321,0 4.70741,1.82355 5.7199,3.91506 1.09559,2.26318 1.14778,3.4027 0.25385,5.54218 -0.76923,1.84104 -0.38032,2.05136 1.02574,0.55467 2.36816,-2.52078 2.97474,-6.1945 1.53903,-9.32101 -1.00633,-2.19148 -2.03354,-3.17355 -4.31762,-4.1279 -2.25158,-0.94077 -4.29811,-0.87937 -6.67673,0.20034 -1.8344,0.83267 -1.95759,1.00592 -1.95759,2.75353 0,1.76509 -0.0739,1.86495 -1.38181,1.86495 -1.30784,0 -1.38183,-0.0999 -1.38183,-1.86495 0,-1.74761 -0.12325,-1.92086 -1.95757,-2.75353 -2.37864,-1.07971 -4.42516,-1.14111 -6.67675,-0.20034 -2.28408,0.95435 -3.31128,1.93642 -4.31761,4.1279 -1.43571,3.12651 -0.82913,6.80023 1.53904,9.32101 1.40605,1.49669 1.79496,1.28637 1.02572,-0.55467 -0.91885,-2.19914 -0.83695,-3.73318 0.30812,-5.77053 1.0815,-1.92428 3.78998,-3.68671 5.66563,-3.68671 0.67033,0 1.93757,0.30032 2.8161,0.6674 l 1.59732,0.6674 v 6.37988 c 0,4.34801 -0.17604,6.55591 -0.55272,6.93262 -0.66875,0.66874 -6.2601,0.74165 -7.93853,0.10356 -1.14544,-0.43552 -1.1815,-0.39336 -1.1815,1.38181 v 1.83103 h 11.05458 11.05457 z"
         style="fill:#75a2ff;stroke-width:0.460607" />
      <path
         style="fill:#ff5555;stroke-width:0.434375"
         d="m 662.01172,319.04514 c -0.3114,-0.31139 -0.40817,-2.24717 -0.40817,-4.16504 0,-3.0225 -0.58434,-3.10347 -1.97319,-4.72594 -3.51521,-4.10675 -2.88149,-10.0054 1.11449,-14.00138 2.92903,-2.92902 6.29732,-3.70422 9.84952,-2.68545 1.20837,0.34655 1.70991,0.3627 2.3011,-0.53958 1.00287,-1.53055 1.16533,-3.59001 -0.19446,-3.74646 -0.94794,-0.10902 -1.62879,0.11934 -1.62879,-0.74242 0,-0.85571 0.13466,-0.72939 1.05521,-0.8357 0.90285,-0.10427 1.50345,-0.0947 1.6077,-0.99759 0.10633,-0.92055 0.0444,-1.42562 0.90015,-1.42562 0.8557,0 0.82508,0.53622 0.93137,1.45676 0.10432,0.90284 0.65779,0.81395 1.56065,0.91821 0.92053,0.1063 1.02443,-0.0846 1.02443,0.77107 0,0.86175 -0.5029,0.74463 -1.45083,0.85371 -1.35981,0.15645 -1.39405,2.16845 -0.39119,3.69901 0.59121,0.90228 1.1572,0.93516 2.36554,0.58861 6.45334,-1.8508 13.73299,3.83613 13.04291,10.52244 -0.25498,2.47043 -1.43312,5.39251 -2.8467,6.67091 -0.77842,0.70401 -1.20537,1.28383 -1.20537,4.10909 0,2.00369 -0.0718,3.9344 -0.38635,4.24892 -0.74337,0.74335 -24.52466,0.7698 -25.26802,0.0264 z m 24.2885,-4.92083 c 0.0271,-1.67386 -1.27438,-1.03807 -2.35459,-0.62735 -1.58286,0.6018 -6.19727,0.4566 -6.82792,-0.17401 -0.35525,-0.35526 -0.40552,-2.16614 -0.40552,-6.26654 l -0.0392,-5.72619 1.40955,-0.62955 c 0.81987,-0.36618 1.82985,-0.57161 2.46198,-0.57161 1.92686,0 3.99482,1.1768 4.94964,3.1492 1.03321,2.13429 1.08242,3.20892 0.23939,5.22655 -0.72542,1.7362 -0.24527,3.38842 1.3206,2.24891 2.58851,-1.88372 3.9582,-7.53777 2.60426,-10.48623 -0.94903,-2.06668 -2.99624,-4.04822 -5.15024,-4.94822 -2.12335,-0.88719 -4.88656,-0.48205 -7.1297,0.53617 -1.72994,0.78524 -1.69463,1.60531 -1.85683,3.2454 -0.1646,1.66431 0.37632,1.3528 -0.85709,1.3528 -1.23336,0 -0.78093,0.30354 -0.95524,-1.34186 -0.17362,-1.63892 0.0882,-2.45017 -1.64175,-3.23541 -2.24318,-1.01822 -4.94615,-1.44651 -7.06951,-0.55932 -2.15401,0.9 -4.31175,2.4183 -5.26077,4.48498 -1.35393,2.94846 -0.54315,7.71382 1.69016,10.09104 1.32598,1.41146 2.94463,1.48804 2.21919,-0.24816 -0.86653,-2.07389 -1.03066,-4.48891 0.19327,-6.32182 1.18417,-1.77335 2.95722,-2.99849 4.72605,-2.99849 0.63216,0 1.63799,0.0112 2.4782,0.32787 l 1.67067,0.62966 -0.12289,5.79727 c -0.0869,4.09948 -0.11106,6.0731 -0.46629,6.42836 -0.63068,0.63064 -5.2188,0.59097 -6.80164,-0.0108 -1.08021,-0.41072 -2.29224,-0.61346 -2.26981,1.06047 l 0.0455,3.39657 11.223,0.005 11.91612,-0.0364 z"
         id="path3280" />
    </g>
    <g
       id="Tiles_King_white"
       transform="translate(-32.680338,-12.133033)">
      <path
         style="fill:#ff1255;fill-opacity:1;stroke-width:0.764121"
         fill="url(#4LyKu8AtUK4gmSHjQsrKja)"
         d="m 752.47217,296.62982 c 0,0 3.59213,-4.01166 8.02327,-4.01166 4.43115,0 8.02327,3.64105 8.02327,8.02327 0,2.71647 -2.67518,5.34809 -2.67518,5.34809 l -12.01814,12.01963 c -0.74729,0.74733 -1.95994,0.74733 -2.70723,0 l -12.0173,-12.01963 c 0,0 -2.67522,-2.63315 -2.67522,-5.34809 0,-4.38222 3.59217,-8.02327 8.02327,-8.02327 4.43117,0 8.02326,4.01166 8.02326,4.01166 z"
         id="path2104" />
      <rect
         style="fill:#ffffff;stroke-width:0.264583"
         id="rect2106"
         width="66.523796"
         height="94.494034"
         x="719.10968"
         y="256.9791"
         ry="6.0476189" />
      <text
         xml:space="preserve"
         style="font-style:normal;font-variant:normal;font-weight:bold;font-stretch:normal;font-size:10.5833px;line-height:1.25;font-family:sans-serif;-inkscape-font-specification:'sans-serif Bold';fill:#ff5555;fill-opacity:1;stroke:none;stroke-width:0.264583"
         x="722.95361"
         y="269.42859"
         id="text2112"><tspan
           id="tspan2110"
           x="722.95361"
           y="269.42859"
           style="font-style:normal;font-variant:normal;font-weight:bold;font-stretch:normal;font-family:sans-serif;-inkscape-font-specification:'sans-serif Bold';fill:#ff5555;stroke-width:0.264583">K</tspan></text>
      <text
         id="text2116"
         y="-338.98822"
         x="-781.89087"
         style="font-style:normal;font-variant:normal;font-weight:bold;font-stretch:normal;font-size:10.5833px;line-height:1.25;font-family:sans-serif;-inkscape-font-specification:'sans-serif Bold';fill:#ff5555;fill-opacity:1;stroke:none;stroke-width:0.264583"
         xml:space="preserve"
         transform="scale(-1)"><tspan
           style="font-style:normal;font-variant:normal;font-weight:bold;font-stretch:normal;font-family:sans-serif;-inkscape-font-specification:'sans-serif Bold';fill:#ff5555;stroke-width:0.264583"
           y="-338.98822"
           x="-781.89087"
           id="tspan2114">K</tspan></text>
      <path
         id="path2118"
         d="m 736.09092,267.19067 c -1.22907,-1.22907 -2.23467,-2.30313 -2.23467,-2.38679 0,-0.19869 4.42277,-4.62146 4.62145,-4.62146 0.19869,0 4.62146,4.42277 4.62146,4.62146 0,0.0837 -1.0056,1.15772 -2.23467,2.38679 -1.22907,1.22906 -2.30312,2.23467 -2.38679,2.23467 -0.0837,0 -1.15771,-1.00561 -2.38678,-2.23467 z"
         style="fill:#ff5555;stroke-width:0.105033" />
      <path
         style="fill:#ff5555;stroke-width:0.105033"
         d="m 764.0615,345.96543 c -1.22907,-1.22907 -2.23467,-2.30313 -2.23467,-2.38679 0,-0.19869 4.42277,-4.62146 4.62145,-4.62146 0.19869,0 4.62147,4.42277 4.62147,4.62146 0,0.0837 -1.0056,1.15772 -2.23467,2.38679 -1.22908,1.22906 -2.30313,2.23467 -2.3868,2.23467 -0.0837,0 -1.15771,-1.00561 -2.38678,-2.23467 z"
         id="path2120" />
      <path
         id="path2128"
         d="m 749.58943,309.38519 c -1.87791,-1.87793 -3.41441,-3.519 -3.41441,-3.64682 0,-0.30358 6.75766,-7.06123 7.06122,-7.06123 0.30359,0 7.06125,6.75765 7.06125,7.06123 0,0.12788 -1.5365,1.76889 -3.41441,3.64682 -1.87793,1.87791 -3.51899,3.41441 -3.64684,3.41441 -0.12788,0 -1.76888,-1.5365 -3.64681,-3.41441 z"
         style="fill:#ff5555;stroke-width:0.160482" />
      <path
         style="fill:#ffffff;stroke-width:0.0931606"
         d="m 751.11927,307.85537 c -1.09016,-1.09015 -1.9821,-2.04279 -1.9821,-2.117 0,-0.17623 3.92286,-4.09908 4.09908,-4.09908 0.17623,0 4.09909,3.92285 4.09909,4.09908 0,0.0742 -0.89194,1.02685 -1.9821,2.117 -1.09014,1.09014 -2.04278,1.98208 -2.11699,1.98208 -0.0742,0 -1.02684,-0.89194 -2.11698,-1.98208 z"
         id="path2130" />
      <circle
         r="4.5587168"
         cy="309.42844"
         cx="744.7724"
         id="circle3298"
         style="fill:#ffffff;fill-opacity:1;stroke-width:0.135491" />
      <circle
         style="fill:#ff5555;fill-opacity:1;stroke-width:0.0931338"
         id="circle3300"
         cx="744.7724"
         cy="309.42844"
         r="3.1335778" />
      <circle
         style="fill:#ffffff;fill-opacity:1;stroke-width:0.135491"
         id="circle3302"
         cx="761.32971"
         cy="309.44385"
         r="4.5587168" />
      <circle
         r="3.1335778"
         cy="309.44385"
         cx="761.32971"
         id="circle3304"
         style="fill:#ff5555;fill-opacity:1;stroke-width:0.0931338" />
      <path
         id="path3306"
         d="m 752.47667,303.03717 c 0,0 0.87778,-0.97036 1.96058,-0.97036 1.0828,0 1.96058,0.88071 1.96058,1.94071 0,0.65708 -0.65371,1.29363 -0.65371,1.29363 l -2.93678,2.90737 c -0.1826,0.18077 -0.47893,0.18077 -0.66154,0 l -2.93657,-2.90737 c 0,0 -0.65372,-0.63692 -0.65372,-1.29363 0,-1.06 0.87779,-1.94071 1.96058,-1.94071 1.08281,0 1.96058,0.97036 1.96058,0.97036 z"
         fill="url(#4LyKu8AtUK4gmSHjQsrKja)"
         style="fill:#ffffff;fill-opacity:1;stroke-width:0.185774" />
      <path
         id="path3308"
         d="m 735.06852,319.77984 c -0.15733,-0.40988 -0.15733,-1.0806 0,-1.49048 0.24911,-0.64919 2.52579,-0.72854 17.66367,-0.61577 l 17.3777,0.1294 v 1.23154 1.23154 l -17.3777,0.12939 c -15.13788,0.11286 -17.41456,0.0333 -17.66367,-0.61577 z m 1.1229,-8.0113 c -0.16589,-1.55791 -0.44802,-4.88305 -0.62692,-7.38923 -0.23899,-3.34791 -0.50256,-4.55668 -0.99352,-4.55668 -1.0014,0 -2.63871,-1.83401 -2.63871,-2.95569 0,-1.26876 1.68693,-2.95569 2.95569,-2.95569 1.59694,0 3.10261,1.85161 2.78738,3.42782 -0.24603,1.23006 0.0553,1.58031 3.27382,3.80622 1.94963,1.34832 3.81093,2.60617 4.1362,2.79521 0.3979,0.23124 1.4954,-1.55503 3.35382,-5.45853 2.71325,-5.69905 2.74791,-5.82689 1.94901,-7.1873 -1.49748,-2.55001 0.29662,-5.24203 3.03545,-4.55462 1.86525,0.46814 2.53687,2.44299 1.4912,4.38468 l -0.85128,1.58072 2.75965,5.80571 c 1.51782,3.19314 2.91895,5.73663 3.11365,5.6522 0.19469,-0.0844 2.05251,-1.34962 4.12844,-2.81154 3.4355,-2.41931 3.75015,-2.77969 3.50352,-4.01275 -0.31523,-1.57621 1.19044,-3.42782 2.78738,-3.42782 1.26876,0 2.95569,1.68693 2.95569,2.95569 0,1.12168 -1.63731,2.95569 -2.63871,2.95569 -0.49096,0 -0.75453,1.20877 -0.99352,4.55668 -0.17892,2.50618 -0.46103,5.83132 -0.62692,7.38923 l -0.30164,2.83253 h -16.12902 -16.12902 z"
         style="fill:#75a2ff;stroke-width:0.492614" />
      <path
         style="fill:#ff5555;stroke-width:0.451056"
         d="m 735.4305,318.49761 c 0.24006,-0.56482 2.76638,-0.49574 17.35397,-0.45611 l 17.09818,0.0465 c -0.0448,0.58142 -0.038,1.19486 -0.038,1.80028 l -17.05947,0.0984 c -14.5874,0.0842 -17.07105,0.29867 -17.31111,-0.26608 -0.15809,-0.41847 -0.30412,-0.68298 -0.0435,-1.22298 z m 1.3671,-7.33407 c -0.15986,-1.35542 -0.43173,-4.24841 -0.60412,-6.42887 -0.23031,-2.9128 -0.64629,-5.41615 -1.1194,-5.41615 -0.96497,0 -2.46075,-1.48598 -2.46075,-2.46188 0,-1.10386 1.04988,-2.18907 2.2725,-2.18907 1.53885,0 2.44241,1.39102 2.16598,2.7898 -0.21251,1.07535 0.57196,2.41638 3.67342,4.353 1.87872,1.17309 4.21916,2.81727 4.5326,2.98175 0.38342,0.20118 1.57976,-1.71494 3.37059,-5.11112 2.61457,-4.95837 3.24915,-6.83761 2.4793,-8.02121 -1.44302,-2.2186 -0.50478,-4.99859 2.13443,-4.40053 1.79742,0.4073 2.19894,2.17968 1.1913,3.86901 l -0.95725,1.68887 3.03849,6.81177 c 1.27901,2.86732 3.08206,5.53172 3.26967,5.45826 0.1876,-0.0735 2.30688,-1.81038 4.3073,-3.0823 3.31055,-2.10489 4.27109,-3.26631 4.03344,-4.33912 -0.30378,-1.37135 0.60712,-3.11823 2.14598,-3.11823 1.22262,0 2.48211,1.15841 2.48211,2.26227 0,0.9759 -1.42332,2.51392 -2.3883,2.51392 -0.4731,0 -1.23102,2.4979 -1.46132,5.4107 -0.17241,2.18046 -0.44426,5.07345 -0.60412,6.42887 l -0.19426,2.50314 -15.63884,-0.0387 -15.3781,2.6e-4 z"
         id="path3310" />
    </g>
  </g>
</svg>
