<?xml version="1.0" encoding="UTF-8" standalone="no"?>
<svg
   width="912.57623mm"
   height="94.494011mm"
   viewBox="0 0 912.57623 94.494011"
   version="1.1"
   id="svg8"
   xmlns="http://www.w3.org/2000/svg"
   xmlns:svg="http://www.w3.org/2000/svg"
   xmlns:rdf="http://www.w3.org/1999/02/22-rdf-syntax-ns#"
   xmlns:cc="http://creativecommons.org/ns#"
   xmlns:dc="http://purl.org/dc/elements/1.1/">
  <defs
     id="defs2" />
  <metadata
     id="metadata5">
    <rdf:RDF>
      <cc:Work
         rdf:about="">
        <dc:format>image/svg+xml</dc:format>
        <dc:type
           rdf:resource="http://purl.org/dc/dcmitype/StillImage" />
        <dc:title />
      </cc:Work>
    </rdf:RDF>
  </metadata>
  <g
     id="layer2"
     style="display:none"
     transform="translate(159.6231,-343.32067)">
    <rect
       style="fill:#4d4d4d;stroke:#ffffff;stroke-width:0.730345;stroke-opacity:1"
       id="rect12"
       width="1056.4274"
       height="442.38452"
       x="-240.90736"
       y="24.054256"
       ry="9.1165762" />
  </g>
  <g
     id="layer1"
     transform="translate(159.6231,-343.32067)">
    <g
       id="Pikes_A_white"
       transform="translate(54.282449,-17.416794)">
      <path
         id="path1452"
         d="m -180.54308,400.38818 c 0,0 3.59213,-4.01166 8.02327,-4.01166 4.43115,0 8.02327,3.64105 8.02327,8.02327 0,2.71647 -2.67518,5.34809 -2.67518,5.34809 l -12.01814,12.01963 c -0.74729,0.74733 -1.95994,0.74733 -2.70723,0 l -12.0173,-12.01963 c 0,0 -2.67522,-2.63315 -2.67522,-5.34809 0,-4.38222 3.59217,-8.02327 8.02327,-8.02327 4.43117,0 8.02326,4.01166 8.02326,4.01166 z"
         fill="url(#4LyKu8AtUK4gmSHjQsrKja)"
         style="fill:#ff1255;fill-opacity:1;stroke-width:0.764121" />
      <rect
         ry="6.0476189"
         y="360.73746"
         x="-213.90555"
         height="94.494034"
         width="66.523796"
         id="rect1454"
         style="fill:#ffffff;stroke-width:0.264583" />
      <path
         style="fill:#ff5555;stroke-width:0.429855"
         d="m -188.04001,425.52821 c -0.38389,-0.62148 0.12985,-1.29846 0.98687,-1.30037 2.09317,-0.004 5.15001,-3.44412 5.92014,-6.66113 0.29574,-1.23544 0.27446,-1.26011 -0.50792,-0.58743 -4.75708,4.0904 -11.70996,3.38889 -14.52856,-1.46582 -2.92418,-5.03654 -2.11753,-6.76696 7.80624,-16.74646 5.87563,-5.90863 7.84156,-7.63645 8.6886,-7.63645 0.84621,0 2.82238,1.73234 8.70396,7.62994 9.7654,9.79198 10.59989,11.48766 8.08144,16.42201 -2.54363,4.98373 -9.14561,6.04222 -14.15205,2.269 l -1.46149,-1.10147 0.30877,1.25312 c 0.37303,1.51385 2.09616,4.55007 3.01516,5.31277 0.36608,0.30399 1.39273,0.80236 2.28155,1.10791 0.88881,0.30572 1.61603,0.81533 1.61603,1.13282 0,0.45902 -1.68886,0.6012 -8.24373,0.69392 -5.27308,0.0747 -8.34143,-0.0434 -8.51501,-0.32223 z"
         id="path1498" />
      <text
         id="text1460"
         y="373.18695"
         x="-210.06158"
         style="font-style:normal;font-variant:normal;font-weight:bold;font-stretch:normal;font-size:10.5833px;line-height:1.25;font-family:sans-serif;-inkscape-font-specification:'sans-serif Bold';fill:#ff5555;fill-opacity:1;stroke:none;stroke-width:0.264583"
         xml:space="preserve"><tspan
           style="font-style:normal;font-variant:normal;font-weight:bold;font-stretch:normal;font-family:sans-serif;-inkscape-font-specification:'sans-serif Bold';fill:#ff5555;stroke-width:0.264583"
           y="373.18695"
           x="-210.06158"
           id="tspan1458">A</tspan></text>
      <text
         transform="scale(-1)"
         xml:space="preserve"
         style="font-style:normal;font-variant:normal;font-weight:bold;font-stretch:normal;font-size:10.5833px;line-height:1.25;font-family:sans-serif;-inkscape-font-specification:'sans-serif Bold';fill:#ff5555;fill-opacity:1;stroke:none;stroke-width:0.264583"
         x="151.12439"
         y="-442.74658"
         id="text1464"><tspan
           id="tspan1462"
           x="151.12439"
           y="-442.74658"
           style="font-style:normal;font-variant:normal;font-weight:bold;font-stretch:normal;font-family:sans-serif;-inkscape-font-specification:'sans-serif Bold';fill:#ff5555;stroke-width:0.264583">A</tspan></text>
      <path
         id="path1494"
         d="m -196.95339,373.12007 c -0.0884,-0.14311 0.0299,-0.299 0.22725,-0.29944 0.482,-10e-4 1.18591,-0.79309 1.36325,-1.53388 0.0681,-0.28449 0.0632,-0.29017 -0.11696,-0.13527 -1.09543,0.94191 -2.69649,0.78037 -3.34554,-0.33754 -0.67336,-1.15978 -0.48761,-1.55825 1.79757,-3.85626 1.353,-1.3606 1.8057,-1.75847 2.00075,-1.75847 0.19486,0 0.64992,0.39891 2.00429,1.75697 2.24871,2.25483 2.44087,2.6453 1.86094,3.78155 -0.58573,1.14762 -2.10599,1.39136 -3.25884,0.52249 l -0.33654,-0.25364 0.0711,0.28856 c 0.0859,0.3486 0.48269,1.04776 0.69431,1.22339 0.0843,0.07 0.32071,0.18476 0.52538,0.25512 0.20467,0.0704 0.37213,0.18775 0.37213,0.26086 0,0.1057 -0.3889,0.13844 -1.89831,0.15979 -1.21425,0.0172 -1.92081,-0.01 -1.96078,-0.0742 z"
         style="fill:#ff5555;stroke-width:0.0989842" />
      <path
         style="fill:#ff5555;stroke-width:0.0989842"
         d="m -164.24003,442.79128 c 0.0884,0.14311 -0.0299,0.299 -0.22725,0.29944 -0.482,0.001 -1.18591,0.79309 -1.36325,1.53388 -0.0681,0.28449 -0.0632,0.29017 0.11696,0.13527 1.09543,-0.94191 2.69649,-0.78037 3.34554,0.33754 0.67336,1.15978 0.48761,1.55825 -1.79757,3.85626 -1.353,1.3606 -1.8057,1.75847 -2.00075,1.75847 -0.19486,0 -0.64992,-0.39891 -2.00429,-1.75697 -2.24871,-2.25483 -2.44087,-2.6453 -1.86094,-3.78155 0.58573,-1.14762 2.10599,-1.39136 3.25884,-0.52249 l 0.33654,0.25364 -0.0711,-0.28856 c -0.0859,-0.3486 -0.48269,-1.04776 -0.69431,-1.22339 -0.0843,-0.07 -0.32071,-0.18476 -0.52538,-0.25512 -0.20467,-0.0704 -0.37213,-0.18775 -0.37213,-0.26086 0,-0.1057 0.3889,-0.13844 1.89831,-0.15979 1.21425,-0.0172 1.92081,0.01 1.96078,0.0742 z"
         id="path1496" />
      <path
         id="path1500"
         d="m -181.45897,416.34932 c -4.04827,3.48093 -9.85287,2.57026 -12.25147,-1.56108 -2.48847,-4.28608 -1.80202,-5.75867 6.64306,-14.25117 5.00016,-5.02822 6.67314,-6.4986 7.39398,-6.4986 0.72013,0 2.40184,1.47422 7.40703,6.49305 8.31032,8.33294 9.02048,9.77596 6.87728,13.97507 -2.16462,4.24114 -7.78288,5.14191 -12.04334,1.93091 -2.28086,-1.68758 -2.26241,-1.68181 -4.02654,-0.0881 z"
         style="fill:#ffffff;stroke-width:0.365805" />
      <path
         style="fill:#ff5555;stroke-width:0.286018"
         d="m -181.06797,414.1505 c -3.16529,2.72169 -7.70382,2.00965 -9.57927,-1.22059 -1.94568,-3.35123 -1.40896,-4.50262 5.19414,-11.1428 3.90955,-3.93149 5.21764,-5.08115 5.78125,-5.08115 0.56305,0 1.87796,1.15266 5.79145,5.07682 6.49772,6.51541 7.05299,7.64369 5.37725,10.92691 -1.69249,3.31608 -6.08533,4.02038 -9.41652,1.50976 -1.78338,-1.3195 -1.76896,-1.31499 -3.1483,-0.069 z"
         id="path1502" />
      <path
         id="path1504"
         d="m -180.65202,411.8114 c -2.22598,1.91401 -5.41768,1.41327 -6.73658,-0.85838 -1.36829,-2.35673 -0.99083,-3.16644 3.65276,-7.83611 2.74937,-2.76481 3.66927,-3.5733 4.06563,-3.5733 0.39597,0 1.32068,0.8106 4.07282,3.57025 4.56948,4.58193 4.95996,5.37539 3.78152,7.6843 -1.19024,2.33202 -4.27948,2.82732 -6.62213,1.06172 -1.25415,-0.92793 -1.24401,-0.92475 -2.21402,-0.0485 z"
         style="fill:#ffffff;stroke-width:0.201141" />
      <path
         style="fill:#ff5555;stroke-width:0.121648"
         d="m -180.26246,409.62071 c -1.34626,1.15759 -3.27659,0.85475 -4.07425,-0.51914 -0.82755,-1.42534 -0.59925,-1.91504 2.20917,-4.73924 1.66279,-1.67214 2.21916,-2.16111 2.45886,-2.16111 0.23948,0 0.79874,0.49025 2.46322,2.15927 2.76361,2.77112 2.99976,3.25101 2.28705,4.64743 -0.71985,1.41038 -2.58821,1.70994 -4.00503,0.64212 -0.7585,-0.56121 -0.75237,-0.55929 -1.33902,-0.0293 z"
         id="path1506" />
    </g>
    <g
       id="Pikes_2_white"
       transform="translate(51.07344,-17.98317)">
      <path
         style="fill:#ff1255;fill-opacity:1;stroke-width:0.764121"
         fill="url(#4LyKu8AtUK4gmSHjQsrKja)"
         d="m -106.8297,400.95454 c 0,0 3.59213,-4.01166 8.02327,-4.01166 4.43115,0 8.02327,3.64105 8.02327,8.02327 0,2.71647 -2.67518,5.34809 -2.67518,5.34809 l -12.01814,12.01963 c -0.74729,0.74733 -1.95994,0.74733 -2.70723,0 l -12.0173,-12.01963 c 0,0 -2.67522,-2.63315 -2.67522,-5.34809 0,-4.38222 3.59217,-8.02327 8.02327,-8.02327 4.43117,0 8.02326,4.01166 8.02326,4.01166 z"
         id="path1538" />
      <rect
         style="fill:#ffffff;stroke-width:0.264583"
         id="rect1540"
         width="66.523796"
         height="94.494034"
         x="-140.19217"
         y="361.30383"
         ry="6.0476189" />
      <path
         id="path1542"
         d="m -114.32663,426.09457 c -0.38389,-0.62148 0.12985,-1.29846 0.98687,-1.30037 2.09317,-0.004 5.15001,-3.44412 5.92014,-6.66113 0.29574,-1.23544 0.27446,-1.26011 -0.50792,-0.58743 -4.75708,4.0904 -11.70996,3.38889 -14.52856,-1.46582 -2.92418,-5.03654 -2.11753,-6.76696 7.80624,-16.74646 5.87563,-5.90863 7.84156,-7.63645 8.6886,-7.63645 0.84621,0 2.82238,1.73234 8.70396,7.62994 9.7654,9.79198 10.59989,11.48766 8.08144,16.42201 -2.54363,4.98373 -9.14561,6.04222 -14.15205,2.269 l -1.46149,-1.10147 0.30877,1.25312 c 0.37303,1.51385 2.09616,4.55007 3.01516,5.31277 0.36608,0.30399 1.39273,0.80236 2.28155,1.10791 0.88881,0.30572 1.61603,0.81533 1.61603,1.13282 0,0.45902 -1.68886,0.6012 -8.24373,0.69392 -5.27308,0.0747 -8.34143,-0.0434 -8.51501,-0.32223 z"
         style="fill:#ff5555;stroke-width:0.429855" />
      <text
         xml:space="preserve"
         style="font-style:normal;font-variant:normal;font-weight:bold;font-stretch:normal;font-size:10.5833px;line-height:1.25;font-family:sans-serif;-inkscape-font-specification:'sans-serif Bold';fill:#ff5555;fill-opacity:1;stroke:none;stroke-width:0.264583"
         x="-136.34821"
         y="373.75333"
         id="text1546"><tspan
           id="tspan1544"
           x="-136.34821"
           y="373.75333"
           style="font-style:normal;font-variant:normal;font-weight:bold;font-stretch:normal;font-family:sans-serif;-inkscape-font-specification:'sans-serif Bold';fill:#ff5555;stroke-width:0.264583">2</tspan></text>
      <text
         id="text1550"
         y="-443.31296"
         x="77.411011"
         style="font-style:normal;font-variant:normal;font-weight:bold;font-stretch:normal;font-size:10.5833px;line-height:1.25;font-family:sans-serif;-inkscape-font-specification:'sans-serif Bold';fill:#ff5555;fill-opacity:1;stroke:none;stroke-width:0.264583"
         xml:space="preserve"
         transform="scale(-1)"><tspan
           style="font-style:normal;font-variant:normal;font-weight:bold;font-stretch:normal;font-family:sans-serif;-inkscape-font-specification:'sans-serif Bold';fill:#ff5555;stroke-width:0.264583"
           y="-443.31296"
           x="77.411011"
           id="tspan1548">2</tspan></text>
      <path
         style="fill:#ff5555;stroke-width:0.0989842"
         d="m -123.24001,373.68643 c -0.0884,-0.14311 0.0299,-0.299 0.22725,-0.29944 0.482,-0.001 1.18591,-0.79309 1.36325,-1.53388 0.0681,-0.28449 0.0632,-0.29017 -0.11696,-0.13527 -1.09543,0.94191 -2.69649,0.78037 -3.34554,-0.33754 -0.67336,-1.15978 -0.48761,-1.55825 1.79757,-3.85626 1.353,-1.3606 1.8057,-1.75847 2.00075,-1.75847 0.19486,0 0.64992,0.39891 2.00429,1.75697 2.24871,2.25483 2.44087,2.6453 1.86094,3.78155 -0.58573,1.14762 -2.10599,1.39136 -3.25884,0.52249 l -0.33654,-0.25364 0.0711,0.28856 c 0.0859,0.3486 0.48269,1.04776 0.69431,1.22339 0.0843,0.07 0.32071,0.18476 0.52538,0.25512 0.20467,0.0704 0.37213,0.18775 0.37213,0.26086 0,0.1057 -0.3889,0.13844 -1.89831,0.15979 -1.21425,0.0172 -1.92081,-0.01 -1.96078,-0.0742 z"
         id="path1552" />
      <path
         id="path1554"
         d="m -90.526642,443.35764 c 0.0884,0.14311 -0.0299,0.299 -0.22725,0.29944 -0.482,10e-4 -1.18591,0.79309 -1.36325,1.53388 -0.0681,0.28449 -0.0632,0.29017 0.11696,0.13527 1.09543,-0.94191 2.69649,-0.78037 3.34554,0.33754 0.67336,1.15978 0.48761,1.55825 -1.79757,3.85626 -1.353,1.3606 -1.8057,1.75847 -2.00075,1.75847 -0.19486,0 -0.64992,-0.39891 -2.00429,-1.75697 -2.24871,-2.25483 -2.44087,-2.6453 -1.86094,-3.78155 0.58573,-1.14762 2.10599,-1.39136 3.25884,-0.52249 l 0.33654,0.25364 -0.0711,-0.28856 c -0.0859,-0.3486 -0.48269,-1.04776 -0.69431,-1.22339 -0.0843,-0.07 -0.32071,-0.18476 -0.52538,-0.25512 -0.20467,-0.0704 -0.37213,-0.18775 -0.37213,-0.26086 0,-0.1057 0.3889,-0.13844 1.89831,-0.15979 1.21425,-0.0172 1.92081,0.01 1.96078,0.0742 z"
         style="fill:#ff5555;stroke-width:0.0989842" />
      <path
         style="fill:#ffffff;stroke-width:0.365805"
         d="m -107.74559,416.91568 c -4.04827,3.48093 -9.85287,2.57026 -12.25147,-1.56108 -2.48847,-4.28608 -1.80202,-5.75867 6.64306,-14.25117 5.00016,-5.02822 6.67314,-6.4986 7.39398,-6.4986 0.72013,0 2.40184,1.47422 7.40703,6.49305 8.31032,8.33294 9.02048,9.77596 6.87728,13.97507 -2.16462,4.24114 -7.78288,5.14191 -12.04334,1.93091 -2.28086,-1.68758 -2.26241,-1.68181 -4.02654,-0.0881 z"
         id="path1556" />
      <path
         id="path1558"
         d="m -107.35459,414.71686 c -3.16529,2.72169 -7.70382,2.00965 -9.57927,-1.22059 -1.94568,-3.35123 -1.40896,-4.50262 5.19414,-11.1428 3.90955,-3.93149 5.21764,-5.08115 5.78125,-5.08115 0.56305,0 1.87796,1.15266 5.79145,5.07682 6.49772,6.51541 7.05299,7.64369 5.37725,10.92691 -1.69249,3.31608 -6.08533,4.02038 -9.41652,1.50976 -1.78338,-1.3195 -1.76896,-1.31499 -3.1483,-0.069 z"
         style="fill:#ff5555;stroke-width:0.286018" />
      <path
         style="fill:#ffffff;stroke-width:0.201141"
         d="m -106.93864,412.37776 c -2.22598,1.91401 -5.41768,1.41327 -6.73658,-0.85838 -1.36829,-2.35673 -0.99083,-3.16644 3.65276,-7.83611 2.74937,-2.76481 3.66927,-3.5733 4.06563,-3.5733 0.39597,0 1.32068,0.8106 4.07282,3.57025 4.56948,4.58193 4.95996,5.37539 3.78152,7.6843 -1.19024,2.33202 -4.27948,2.82732 -6.62213,1.06172 -1.25415,-0.92793 -1.24401,-0.92475 -2.21402,-0.0485 z"
         id="path1560" />
      <path
         id="path1562"
         d="m -106.54908,410.18707 c -1.34626,1.15759 -3.27659,0.85475 -4.07425,-0.51914 -0.82755,-1.42534 -0.59925,-1.91504 2.20917,-4.73924 1.66279,-1.67214 2.21916,-2.16111 2.45886,-2.16111 0.23948,0 0.79874,0.49025 2.46322,2.15927 2.76361,2.77112 2.99976,3.25101 2.28705,4.64743 -0.71985,1.41038 -2.58821,1.70994 -4.00503,0.64212 -0.7585,-0.56121 -0.75237,-0.55929 -1.33902,-0.0293 z"
         style="fill:#ff5555;stroke-width:0.121648" />
    </g>
    <g
       id="Pikes_3_white"
       transform="translate(46.461683,-17.844926)">
      <path
         id="path1592"
         d="m -31.713572,400.8163 c 0,0 3.59213,-4.01166 8.02327,-4.01166 4.43115,0 8.02327,3.64105 8.02327,8.02327 0,2.71647 -2.67518,5.34809 -2.67518,5.34809 l -12.01814,12.01963 c -0.74729,0.74733 -1.95994,0.74733 -2.70723,0 l -12.0173,-12.01963 c 0,0 -2.67522,-2.63315 -2.67522,-5.34809 0,-4.38222 3.59217,-8.02327 8.02327,-8.02327 4.43117,0 8.02326,4.01166 8.02326,4.01166 z"
         fill="url(#4LyKu8AtUK4gmSHjQsrKja)"
         style="fill:#ff1255;fill-opacity:1;stroke-width:0.764121" />
      <rect
         ry="6.0476189"
         y="361.16559"
         x="-65.076042"
         height="94.494034"
         width="66.523796"
         id="rect1594"
         style="fill:#ffffff;stroke-width:0.264583" />
      <path
         style="fill:#ff5555;stroke-width:0.429855"
         d="m -39.210502,425.95633 c -0.38389,-0.62148 0.12985,-1.29846 0.98687,-1.30037 2.09317,-0.004 5.15001,-3.44412 5.92014,-6.66113 0.29574,-1.23544 0.27446,-1.26011 -0.50792,-0.58743 -4.75708,4.0904 -11.70996,3.38889 -14.52856,-1.46582 -2.92418,-5.03654 -2.11753,-6.76696 7.80624,-16.74646 5.87563,-5.90863 7.84156,-7.63645 8.6886,-7.63645 0.84621,0 2.82238,1.73234 8.70396,7.62994 9.7654,9.79198 10.59989,11.48766 8.08144,16.42201 -2.54363,4.98373 -9.14561,6.04222 -14.15205,2.269 l -1.46149,-1.10147 0.30877,1.25312 c 0.37303,1.51385 2.09616,4.55007 3.01516,5.31277 0.36608,0.30399 1.39273,0.80236 2.28155,1.10791 0.88881,0.30572 1.61603,0.81533 1.61603,1.13282 0,0.45902 -1.68886,0.6012 -8.24373,0.69392 -5.27308,0.0747 -8.34143,-0.0434 -8.51501,-0.32223 z"
         id="path1596" />
      <text
         id="text1600"
         y="373.61508"
         x="-61.232079"
         style="font-style:normal;font-variant:normal;font-weight:bold;font-stretch:normal;font-size:10.5833px;line-height:1.25;font-family:sans-serif;-inkscape-font-specification:'sans-serif Bold';fill:#ff5555;fill-opacity:1;stroke:none;stroke-width:0.264583"
         xml:space="preserve"><tspan
           style="font-style:normal;font-variant:normal;font-weight:bold;font-stretch:normal;font-family:sans-serif;-inkscape-font-specification:'sans-serif Bold';fill:#ff5555;stroke-width:0.264583"
           y="373.61508"
           x="-61.232079"
           id="tspan1598">3</tspan></text>
      <text
         transform="scale(-1)"
         xml:space="preserve"
         style="font-style:normal;font-variant:normal;font-weight:bold;font-stretch:normal;font-size:10.5833px;line-height:1.25;font-family:sans-serif;-inkscape-font-specification:'sans-serif Bold';fill:#ff5555;fill-opacity:1;stroke:none;stroke-width:0.264583"
         x="2.2948833"
         y="-443.17471"
         id="text1604"><tspan
           id="tspan1602"
           x="2.2948833"
           y="-443.17471"
           style="font-style:normal;font-variant:normal;font-weight:bold;font-stretch:normal;font-family:sans-serif;-inkscape-font-specification:'sans-serif Bold';fill:#ff5555;stroke-width:0.264583">3</tspan></text>
      <path
         id="path1606"
         d="m -48.123901,373.54819 c -0.0884,-0.14311 0.0299,-0.299 0.22725,-0.29944 0.482,-10e-4 1.18591,-0.79309 1.36325,-1.53388 0.0681,-0.28449 0.0632,-0.29017 -0.11696,-0.13527 -1.09543,0.94191 -2.69649,0.78037 -3.34554,-0.33754 -0.67336,-1.15978 -0.48761,-1.55825 1.79757,-3.85626 1.353,-1.3606 1.8057,-1.75847 2.00075,-1.75847 0.19486,0 0.64992,0.39891 2.00429,1.75697 2.24871,2.25483 2.44087,2.6453 1.86094,3.78155 -0.58573,1.14762 -2.10599,1.39136 -3.25884,0.52249 l -0.33654,-0.25364 0.0711,0.28856 c 0.0859,0.3486 0.48269,1.04776 0.69431,1.22339 0.0843,0.07 0.32071,0.18476 0.52538,0.25512 0.20467,0.0704 0.37213,0.18775 0.37213,0.26086 0,0.1057 -0.3889,0.13844 -1.89831,0.15979 -1.21425,0.0172 -1.92081,-0.01 -1.96078,-0.0742 z"
         style="fill:#ff5555;stroke-width:0.0989842" />
      <path
         style="fill:#ff5555;stroke-width:0.0989842"
         d="m -15.410515,443.2194 c 0.0884,0.14311 -0.0299,0.299 -0.22725,0.29944 -0.482,10e-4 -1.18591,0.79309 -1.36325,1.53388 -0.0681,0.28449 -0.0632,0.29017 0.11696,0.13527 1.09543,-0.94191 2.69649,-0.78037 3.34554,0.33754 0.67336,1.15978 0.48761,1.55825 -1.79757,3.85626 -1.353,1.3606 -1.8057,1.75847 -2.00075,1.75847 -0.19486,0 -0.64992,-0.39891 -2.00429,-1.75697 -2.248709,-2.25483 -2.440869,-2.6453 -1.860939,-3.78155 0.585729,-1.14762 2.105989,-1.39136 3.258839,-0.52249 l 0.33654,0.25364 -0.0711,-0.28856 c -0.0859,-0.3486 -0.48269,-1.04776 -0.69431,-1.22339 -0.0843,-0.07 -0.32071,-0.18476 -0.52538,-0.25512 -0.20467,-0.0704 -0.37213,-0.18775 -0.37213,-0.26086 0,-0.1057 0.3889,-0.13844 1.89831,-0.15979 1.21425,-0.0172 1.92081,0.01 1.96078,0.0742 z"
         id="path1608" />
      <path
         id="path1610"
         d="m -32.629462,416.77744 c -4.04827,3.48093 -9.85287,2.57026 -12.25147,-1.56108 -2.48847,-4.28608 -1.80202,-5.75867 6.64306,-14.25117 5.00016,-5.02822 6.67314,-6.4986 7.39398,-6.4986 0.72013,0 2.40184,1.47422 7.40703,6.49305 8.31032,8.33294 9.02048,9.77596 6.87728,13.97507 -2.16462,4.24114 -7.78288,5.14191 -12.04334,1.93091 -2.28086,-1.68758 -2.26241,-1.68181 -4.02654,-0.0881 z"
         style="fill:#ffffff;stroke-width:0.365805" />
      <path
         style="fill:#ff5555;stroke-width:0.286018"
         d="m -32.238462,414.57862 c -3.16529,2.72169 -7.70382,2.00965 -9.57927,-1.22059 -1.94568,-3.35123 -1.40896,-4.50262 5.19414,-11.1428 3.90955,-3.93149 5.21764,-5.08115 5.78125,-5.08115 0.56305,0 1.87796,1.15266 5.79145,5.07682 6.49772,6.51541 7.05299,7.64369 5.37725,10.92691 -1.69249,3.31608 -6.08533,4.02038 -9.41652,1.50976 -1.78338,-1.3195 -1.76896,-1.31499 -3.1483,-0.069 z"
         id="path1612" />
      <path
         id="path1614"
         d="m -31.822512,412.23952 c -2.22598,1.91401 -5.41768,1.41327 -6.73658,-0.85838 -1.36829,-2.35673 -0.99083,-3.16644 3.65276,-7.83611 2.74937,-2.76481 3.66927,-3.5733 4.06563,-3.5733 0.39597,0 1.32068,0.8106 4.07282,3.57025 4.56948,4.58193 4.95996,5.37539 3.78152,7.6843 -1.19024,2.33202 -4.27948,2.82732 -6.62213,1.06172 -1.25415,-0.92793 -1.24401,-0.92475 -2.21402,-0.0485 z"
         style="fill:#ffffff;stroke-width:0.201141" />
      <path
         style="fill:#ff5555;stroke-width:0.121648"
         d="m -31.432952,410.04883 c -1.34626,1.15759 -3.27659,0.85475 -4.07425,-0.51914 -0.82755,-1.42534 -0.59925,-1.91504 2.20917,-4.73924 1.66279,-1.67214 2.21916,-2.16111 2.45886,-2.16111 0.23948,0 0.79874,0.49025 2.46322,2.15927 2.76361,2.77112 2.99976,3.25101 2.28705,4.64743 -0.71985,1.41038 -2.58821,1.70994 -4.00503,0.64212 -0.7585,-0.56121 -0.75237,-0.55929 -1.33902,-0.0293 z"
         id="path1616" />
    </g>
    <g
       id="Pikes_4_white"
       transform="translate(40.766014,-17.844926)">
      <path
         style="fill:#ff1255;fill-opacity:1;stroke-width:0.764121"
         fill="url(#4LyKu8AtUK4gmSHjQsrKja)"
         d="m 44.486464,400.8163 c 0,0 3.59213,-4.01166 8.02327,-4.01166 4.43115,0 8.02327,3.64105 8.02327,8.02327 0,2.71647 -2.67518,5.34809 -2.67518,5.34809 l -12.01814,12.01963 c -0.74729,0.74733 -1.95994,0.74733 -2.70723,0 L 31.115154,410.176 c 0,0 -2.67522,-2.63315 -2.67522,-5.34809 0,-4.38222 3.59217,-8.02327 8.02327,-8.02327 4.43117,0 8.02326,4.01166 8.02326,4.01166 z"
         id="path1646" />
      <rect
         style="fill:#ffffff;stroke-width:0.264583"
         id="rect1648"
         width="66.523796"
         height="94.494034"
         x="11.123998"
         y="361.16559"
         ry="6.0476189" />
      <path
         id="path1650"
         d="m 36.989534,425.95633 c -0.38389,-0.62148 0.12985,-1.29846 0.98687,-1.30037 2.09317,-0.004 5.15001,-3.44412 5.92014,-6.66113 0.29574,-1.23544 0.27446,-1.26011 -0.50792,-0.58743 -4.75708,4.0904 -11.70996,3.38889 -14.52856,-1.46582 -2.92418,-5.03654 -2.11753,-6.76696 7.80624,-16.74646 5.87563,-5.90863 7.84156,-7.63645 8.6886,-7.63645 0.84621,0 2.82238,1.73234 8.70396,7.62994 9.7654,9.79198 10.59989,11.48766 8.08144,16.42201 -2.54363,4.98373 -9.14561,6.04222 -14.15205,2.269 l -1.46149,-1.10147 0.30877,1.25312 c 0.37303,1.51385 2.09616,4.55007 3.01516,5.31277 0.36608,0.30399 1.39273,0.80236 2.28155,1.10791 0.88881,0.30572 1.61603,0.81533 1.61603,1.13282 0,0.45902 -1.68886,0.6012 -8.24373,0.69392 -5.27308,0.0747 -8.34143,-0.0434 -8.51501,-0.32223 z"
         style="fill:#ff5555;stroke-width:0.429855" />
      <text
         xml:space="preserve"
         style="font-style:normal;font-variant:normal;font-weight:bold;font-stretch:normal;font-size:10.5833px;line-height:1.25;font-family:sans-serif;-inkscape-font-specification:'sans-serif Bold';fill:#ff5555;fill-opacity:1;stroke:none;stroke-width:0.264583"
         x="14.967955"
         y="373.61508"
         id="text1654"><tspan
           id="tspan1652"
           x="14.967955"
           y="373.61508"
           style="font-style:normal;font-variant:normal;font-weight:bold;font-stretch:normal;font-family:sans-serif;-inkscape-font-specification:'sans-serif Bold';fill:#ff5555;stroke-width:0.264583">4</tspan></text>
      <text
         id="text1658"
         y="-443.17471"
         x="-73.905167"
         style="font-style:normal;font-variant:normal;font-weight:bold;font-stretch:normal;font-size:10.5833px;line-height:1.25;font-family:sans-serif;-inkscape-font-specification:'sans-serif Bold';fill:#ff5555;fill-opacity:1;stroke:none;stroke-width:0.264583"
         xml:space="preserve"
         transform="scale(-1)"><tspan
           style="font-style:normal;font-variant:normal;font-weight:bold;font-stretch:normal;font-family:sans-serif;-inkscape-font-specification:'sans-serif Bold';fill:#ff5555;stroke-width:0.264583"
           y="-443.17471"
           x="-73.905167"
           id="tspan1656">4</tspan></text>
      <path
         style="fill:#ff5555;stroke-width:0.0989842"
         d="m 28.076135,373.54819 c -0.0884,-0.14311 0.0299,-0.299 0.22725,-0.29944 0.482,-10e-4 1.18591,-0.79309 1.36325,-1.53388 0.0681,-0.28449 0.0632,-0.29017 -0.11696,-0.13527 -1.09543,0.94191 -2.69649,0.78037 -3.34554,-0.33754 -0.67336,-1.15978 -0.48761,-1.55825 1.79757,-3.85626 1.353,-1.3606 1.8057,-1.75847 2.00075,-1.75847 0.19486,0 0.64992,0.39891 2.00429,1.75697 2.24871,2.25483 2.44087,2.6453 1.86094,3.78155 -0.58573,1.14762 -2.10599,1.39136 -3.25884,0.52249 l -0.33654,-0.25364 0.0711,0.28856 c 0.0859,0.3486 0.48269,1.04776 0.69431,1.22339 0.0843,0.07 0.32071,0.18476 0.52538,0.25512 0.20467,0.0704 0.37213,0.18775 0.37213,0.26086 0,0.1057 -0.3889,0.13844 -1.89831,0.15979 -1.21425,0.0172 -1.92081,-0.01 -1.96078,-0.0742 z"
         id="path1660" />
      <path
         id="path1662"
         d="m 60.789525,443.2194 c 0.0884,0.14311 -0.0299,0.299 -0.22725,0.29944 -0.482,10e-4 -1.185911,0.79309 -1.363251,1.53388 -0.0681,0.28449 -0.0632,0.29017 0.11696,0.13527 1.095431,-0.94191 2.696492,-0.78037 3.345542,0.33754 0.67336,1.15978 0.48761,1.55825 -1.797571,3.85626 -1.353001,1.3606 -1.805701,1.75847 -2.000751,1.75847 -0.19486,0 -0.649921,-0.39891 -2.004291,-1.75697 -2.248711,-2.25483 -2.440871,-2.6453 -1.860941,-3.78155 0.58573,-1.14762 2.105991,-1.39136 3.258842,-0.52249 l 0.33654,0.25364 -0.0711,-0.28856 c -0.0859,-0.3486 -0.482691,-1.04776 -0.69431,-1.22339 -0.0843,-0.07 -0.320711,-0.18476 -0.525381,-0.25512 -0.20467,-0.0704 -0.37213,-0.18775 -0.37213,-0.26086 0,-0.1057 0.3889,-0.13844 1.898311,-0.15979 1.214251,-0.0172 1.920811,0.01 1.960781,0.0742 z"
         style="fill:#ff5555;stroke-width:0.0989842" />
      <path
         style="fill:#ffffff;stroke-width:0.365805"
         d="m 43.570574,416.77744 c -4.04827,3.48093 -9.85287,2.57026 -12.25147,-1.56108 -2.48847,-4.28608 -1.80202,-5.75867 6.64306,-14.25117 5.00016,-5.02822 6.67314,-6.4986 7.39398,-6.4986 0.72013,0 2.40184,1.47422 7.40703,6.49305 8.31032,8.33294 9.02048,9.77596 6.87728,13.97507 -2.16462,4.24114 -7.78288,5.14191 -12.04334,1.93091 -2.28086,-1.68758 -2.26241,-1.68181 -4.02654,-0.0881 z"
         id="path1664" />
      <path
         id="path1666"
         d="m 43.961574,414.57862 c -3.16529,2.72169 -7.70382,2.00965 -9.57927,-1.22059 -1.94568,-3.35123 -1.40896,-4.50262 5.19414,-11.1428 3.90955,-3.93149 5.21764,-5.08115 5.78125,-5.08115 0.56305,0 1.87796,1.15266 5.79145,5.07682 6.49772,6.51541 7.05299,7.64369 5.37725,10.92691 -1.69249,3.31608 -6.08533,4.02038 -9.41652,1.50976 -1.78338,-1.3195 -1.76896,-1.31499 -3.1483,-0.069 z"
         style="fill:#ff5555;stroke-width:0.286018" />
      <path
         style="fill:#ffffff;stroke-width:0.201141"
         d="m 44.377524,412.23952 c -2.22598,1.91401 -5.41768,1.41327 -6.73658,-0.85838 -1.36829,-2.35673 -0.99083,-3.16644 3.65276,-7.83611 2.74937,-2.76481 3.66927,-3.5733 4.06563,-3.5733 0.39597,0 1.32068,0.8106 4.07282,3.57025 4.56948,4.58193 4.95996,5.37539 3.78152,7.6843 -1.19024,2.33202 -4.27948,2.82732 -6.62213,1.06172 -1.25415,-0.92793 -1.24401,-0.92475 -2.21402,-0.0485 z"
         id="path1668" />
      <path
         id="path1670"
         d="m 44.767084,410.04883 c -1.34626,1.15759 -3.27659,0.85475 -4.07425,-0.51914 -0.82755,-1.42534 -0.59925,-1.91504 2.20917,-4.73924 1.66279,-1.67214 2.21916,-2.16111 2.45886,-2.16111 0.23948,0 0.79874,0.49025 2.46322,2.15927 2.76361,2.77112 2.99976,3.25101 2.28705,4.64743 -0.71985,1.41038 -2.58821,1.70994 -4.00503,0.64212 -0.7585,-0.56121 -0.75237,-0.55929 -1.33902,-0.0293 z"
         style="fill:#ff5555;stroke-width:0.121648" />
    </g>
    <g
       id="Pikes_5_white"
       transform="translate(34.750216,-17.704087)">
      <path
         id="path1700"
         d="m 121.00663,400.67547 c 0,0 3.59213,-4.01166 8.02327,-4.01166 4.43115,0 8.02327,3.64105 8.02327,8.02327 0,2.71647 -2.67518,5.34809 -2.67518,5.34809 l -12.01814,12.01963 c -0.74729,0.74733 -1.95994,0.74733 -2.70723,0 l -12.0173,-12.01963 c 0,0 -2.67522,-2.63315 -2.67522,-5.34809 0,-4.38222 3.59217,-8.02327 8.02327,-8.02327 4.43117,0 8.02326,4.01166 8.02326,4.01166 z"
         fill="url(#4LyKu8AtUK4gmSHjQsrKja)"
         style="fill:#ff1255;fill-opacity:1;stroke-width:0.764121" />
      <rect
         ry="6.0476189"
         y="361.02475"
         x="87.644165"
         height="94.494034"
         width="66.523796"
         id="rect1702"
         style="fill:#ffffff;stroke-width:0.264583" />
      <path
         style="fill:#ff5555;stroke-width:0.429855"
         d="m 113.5097,425.8155 c -0.38389,-0.62148 0.12985,-1.29846 0.98687,-1.30037 2.09317,-0.004 5.15001,-3.44412 5.92014,-6.66113 0.29574,-1.23544 0.27446,-1.26011 -0.50792,-0.58743 -4.75708,4.0904 -11.70996,3.38889 -14.52856,-1.46582 -2.92418,-5.03654 -2.11753,-6.76696 7.80624,-16.74646 5.87563,-5.90863 7.84156,-7.63645 8.6886,-7.63645 0.84621,0 2.82238,1.73234 8.70396,7.62994 9.7654,9.79198 10.59989,11.48766 8.08144,16.42201 -2.54363,4.98373 -9.14561,6.04222 -14.15205,2.269 l -1.46149,-1.10147 0.30877,1.25312 c 0.37303,1.51385 2.09616,4.55007 3.01516,5.31277 0.36608,0.30399 1.39273,0.80236 2.28155,1.10791 0.88881,0.30572 1.61603,0.81533 1.61603,1.13282 0,0.45902 -1.68886,0.6012 -8.24373,0.69392 -5.27308,0.0747 -8.34143,-0.0434 -8.51501,-0.32223 z"
         id="path1704" />
      <text
         id="text1708"
         y="373.47424"
         x="91.488121"
         style="font-style:normal;font-variant:normal;font-weight:bold;font-stretch:normal;font-size:10.5833px;line-height:1.25;font-family:sans-serif;-inkscape-font-specification:'sans-serif Bold';fill:#ff5555;fill-opacity:1;stroke:none;stroke-width:0.264583"
         xml:space="preserve"><tspan
           style="font-style:normal;font-variant:normal;font-weight:bold;font-stretch:normal;font-family:sans-serif;-inkscape-font-specification:'sans-serif Bold';fill:#ff5555;stroke-width:0.264583"
           y="373.47424"
           x="91.488121"
           id="tspan1706">5</tspan></text>
      <text
         transform="scale(-1)"
         xml:space="preserve"
         style="font-style:normal;font-variant:normal;font-weight:bold;font-stretch:normal;font-size:10.5833px;line-height:1.25;font-family:sans-serif;-inkscape-font-specification:'sans-serif Bold';fill:#ff5555;fill-opacity:1;stroke:none;stroke-width:0.264583"
         x="-150.42534"
         y="-443.03387"
         id="text1712"><tspan
           id="tspan1710"
           x="-150.42534"
           y="-443.03387"
           style="font-style:normal;font-variant:normal;font-weight:bold;font-stretch:normal;font-family:sans-serif;-inkscape-font-specification:'sans-serif Bold';fill:#ff5555;stroke-width:0.264583">5</tspan></text>
      <path
         id="path1714"
         d="m 104.59632,373.40736 c -0.0884,-0.14311 0.0299,-0.299 0.22725,-0.29944 0.482,-10e-4 1.18591,-0.79309 1.36325,-1.53388 0.0681,-0.28449 0.0632,-0.29017 -0.11696,-0.13527 -1.09543,0.94191 -2.69649,0.78037 -3.34554,-0.33754 -0.67337,-1.15978 -0.48762,-1.55825 1.79757,-3.85626 1.353,-1.3606 1.8057,-1.75847 2.00075,-1.75847 0.19486,0 0.64992,0.39891 2.00429,1.75697 2.24871,2.25483 2.44087,2.6453 1.86094,3.78155 -0.58573,1.14762 -2.10599,1.39136 -3.25884,0.52249 l -0.33654,-0.25364 0.0711,0.28856 c 0.0859,0.3486 0.48269,1.04776 0.69431,1.22339 0.0843,0.07 0.32071,0.18476 0.52538,0.25512 0.20467,0.0704 0.37213,0.18775 0.37213,0.26086 0,0.1057 -0.3889,0.13844 -1.89831,0.15979 -1.21425,0.0172 -1.92081,-0.01 -1.96078,-0.0742 z"
         style="fill:#ff5555;stroke-width:0.0989842" />
      <path
         style="fill:#ff5555;stroke-width:0.0989842"
         d="m 137.30968,443.07857 c 0.0884,0.14311 -0.0299,0.299 -0.22725,0.29944 -0.482,10e-4 -1.18591,0.79309 -1.36325,1.53388 -0.0681,0.28449 -0.0632,0.29017 0.11696,0.13527 1.09543,-0.94191 2.6965,-0.78037 3.34555,0.33754 0.67336,1.15978 0.48761,1.55825 -1.79758,3.85626 -1.353,1.3606 -1.8057,1.75847 -2.00075,1.75847 -0.19486,0 -0.64992,-0.39891 -2.00429,-1.75697 -2.24871,-2.25483 -2.44087,-2.6453 -1.86094,-3.78155 0.58573,-1.14762 2.10599,-1.39136 3.25884,-0.52249 l 0.33654,0.25364 -0.0711,-0.28856 c -0.0859,-0.3486 -0.48269,-1.04776 -0.69431,-1.22339 -0.0843,-0.07 -0.32071,-0.18476 -0.52538,-0.25512 -0.20467,-0.0704 -0.37213,-0.18775 -0.37213,-0.26086 0,-0.1057 0.3889,-0.13844 1.89831,-0.15979 1.21425,-0.0172 1.92081,0.01 1.96078,0.0742 z"
         id="path1716" />
      <path
         id="path1718"
         d="m 120.09074,416.63661 c -4.04827,3.48093 -9.85287,2.57026 -12.25147,-1.56108 -2.48847,-4.28608 -1.80202,-5.75867 6.64306,-14.25117 5.00016,-5.02822 6.67314,-6.4986 7.39398,-6.4986 0.72013,0 2.40184,1.47422 7.40703,6.49305 8.31032,8.33294 9.02048,9.77596 6.87728,13.97507 -2.16462,4.24114 -7.78288,5.14191 -12.04334,1.93091 -2.28086,-1.68758 -2.26241,-1.68181 -4.02654,-0.0881 z"
         style="fill:#ffffff;stroke-width:0.365805" />
      <path
         style="fill:#ff5555;stroke-width:0.286018"
         d="m 120.48174,414.43779 c -3.16529,2.72169 -7.70382,2.00965 -9.57927,-1.22059 -1.94568,-3.35123 -1.40896,-4.50262 5.19414,-11.1428 3.90955,-3.93149 5.21764,-5.08115 5.78125,-5.08115 0.56305,0 1.87796,1.15266 5.79145,5.07682 6.49772,6.51541 7.05299,7.64369 5.37725,10.92691 -1.69249,3.31608 -6.08533,4.02038 -9.41652,1.50976 -1.78338,-1.3195 -1.76896,-1.31499 -3.1483,-0.069 z"
         id="path1720" />
      <path
         id="path1722"
         d="m 120.89769,412.09869 c -2.22598,1.91401 -5.41768,1.41327 -6.73658,-0.85838 -1.36829,-2.35673 -0.99083,-3.16644 3.65276,-7.83611 2.74937,-2.76481 3.66927,-3.5733 4.06563,-3.5733 0.39597,0 1.32068,0.8106 4.07282,3.57025 4.56948,4.58193 4.95996,5.37539 3.78152,7.6843 -1.19024,2.33202 -4.27948,2.82732 -6.62213,1.06172 -1.25415,-0.92793 -1.24401,-0.92475 -2.21402,-0.0485 z"
         style="fill:#ffffff;stroke-width:0.201141" />
      <path
         style="fill:#ff5555;stroke-width:0.121648"
         d="m 121.28725,409.908 c -1.34626,1.15759 -3.27659,0.85475 -4.07425,-0.51914 -0.82755,-1.42534 -0.59925,-1.91504 2.20917,-4.73924 1.66279,-1.67214 2.21916,-2.16111 2.45886,-2.16111 0.23948,0 0.79874,0.49025 2.46322,2.15927 2.76361,2.77112 2.99976,3.25101 2.28705,4.64743 -0.71985,1.41038 -2.58821,1.70994 -4.00503,0.64212 -0.7585,-0.56121 -0.75237,-0.55929 -1.33902,-0.0293 z"
         id="path1724" />
    </g>
    <g
       id="Pikes_6_white"
       transform="translate(26.627069,-18.261399)">
      <path
         style="fill:#ff1255;fill-opacity:1;stroke-width:0.764121"
         fill="url(#4LyKu8AtUK4gmSHjQsrKja)"
         d="m 199.63415,401.23279 c 0,0 3.59213,-4.01166 8.02327,-4.01166 4.43115,0 8.02327,3.64105 8.02327,8.02327 0,2.71647 -2.67518,5.34809 -2.67518,5.34809 l -12.01814,12.01963 c -0.74729,0.74733 -1.95994,0.74733 -2.70723,0 l -12.0173,-12.01963 c 0,0 -2.67522,-2.63315 -2.67522,-5.34809 0,-4.38222 3.59217,-8.02327 8.02327,-8.02327 4.43117,0 8.02326,4.01166 8.02326,4.01166 z"
         id="path1754" />
      <rect
         style="fill:#ffffff;stroke-width:0.264583"
         id="rect1756"
         width="66.523796"
         height="94.494034"
         x="166.27168"
         y="361.58206"
         ry="6.0476189" />
      <path
         id="path1758"
         d="m 192.13722,426.37282 c -0.38389,-0.62148 0.12985,-1.29846 0.98687,-1.30037 2.09317,-0.004 5.15001,-3.44412 5.92014,-6.66113 0.29574,-1.23544 0.27446,-1.26011 -0.50792,-0.58743 -4.75708,4.0904 -11.70996,3.38889 -14.52856,-1.46582 -2.92418,-5.03654 -2.11753,-6.76696 7.80624,-16.74646 5.87563,-5.90863 7.84156,-7.63645 8.6886,-7.63645 0.84621,0 2.82238,1.73234 8.70396,7.62994 9.7654,9.79198 10.59989,11.48766 8.08144,16.42201 -2.54363,4.98373 -9.14561,6.04222 -14.15205,2.269 l -1.46149,-1.10147 0.30877,1.25312 c 0.37303,1.51385 2.09616,4.55007 3.01516,5.31277 0.36608,0.30399 1.39273,0.80236 2.28155,1.10791 0.88881,0.30572 1.61603,0.81533 1.61603,1.13282 0,0.45902 -1.68886,0.6012 -8.24373,0.69392 -5.27308,0.0747 -8.34143,-0.0434 -8.51501,-0.32223 z"
         style="fill:#ff5555;stroke-width:0.429855" />
      <text
         xml:space="preserve"
         style="font-style:normal;font-variant:normal;font-weight:bold;font-stretch:normal;font-size:10.5833px;line-height:1.25;font-family:sans-serif;-inkscape-font-specification:'sans-serif Bold';fill:#ff5555;fill-opacity:1;stroke:none;stroke-width:0.264583"
         x="170.11565"
         y="374.03156"
         id="text1762"><tspan
           id="tspan1760"
           x="170.11565"
           y="374.03156"
           style="font-style:normal;font-variant:normal;font-weight:bold;font-stretch:normal;font-family:sans-serif;-inkscape-font-specification:'sans-serif Bold';fill:#ff5555;stroke-width:0.264583">6</tspan></text>
      <text
         id="text1766"
         y="-443.59119"
         x="-229.05286"
         style="font-style:normal;font-variant:normal;font-weight:bold;font-stretch:normal;font-size:10.5833px;line-height:1.25;font-family:sans-serif;-inkscape-font-specification:'sans-serif Bold';fill:#ff5555;fill-opacity:1;stroke:none;stroke-width:0.264583"
         xml:space="preserve"
         transform="scale(-1)"><tspan
           style="font-style:normal;font-variant:normal;font-weight:bold;font-stretch:normal;font-family:sans-serif;-inkscape-font-specification:'sans-serif Bold';fill:#ff5555;stroke-width:0.264583"
           y="-443.59119"
           x="-229.05286"
           id="tspan1764">6 </tspan></text>
      <path
         style="fill:#ff5555;stroke-width:0.0989842"
         d="m 183.22384,373.96468 c -0.0884,-0.14311 0.0299,-0.299 0.22725,-0.29944 0.482,-10e-4 1.18591,-0.79309 1.36325,-1.53388 0.0681,-0.28449 0.0632,-0.29017 -0.11696,-0.13527 -1.09543,0.94191 -2.69649,0.78037 -3.34554,-0.33754 -0.67336,-1.15978 -0.48761,-1.55825 1.79757,-3.85626 1.353,-1.3606 1.8057,-1.75847 2.00075,-1.75847 0.19486,0 0.64992,0.39891 2.00429,1.75697 2.24871,2.25483 2.44087,2.6453 1.86094,3.78155 -0.58573,1.14762 -2.10599,1.39136 -3.25884,0.52249 l -0.33654,-0.25364 0.0711,0.28856 c 0.0859,0.3486 0.48269,1.04776 0.69431,1.22339 0.0843,0.07 0.32071,0.18476 0.52538,0.25512 0.20467,0.0704 0.37213,0.18775 0.37213,0.26086 0,0.1057 -0.3889,0.13844 -1.89831,0.15979 -1.21425,0.0172 -1.92081,-0.01 -1.96078,-0.0742 z"
         id="path1768" />
      <path
         id="path1770"
         d="m 215.9372,443.63589 c 0.0884,0.14311 -0.0299,0.299 -0.22725,0.29944 -0.482,10e-4 -1.18591,0.79309 -1.36325,1.53388 -0.0681,0.28449 -0.0632,0.29017 0.11696,0.13527 1.09543,-0.94191 2.6965,-0.78037 3.34555,0.33754 0.67336,1.15978 0.48761,1.55825 -1.79758,3.85626 -1.353,1.3606 -1.8057,1.75847 -2.00075,1.75847 -0.19486,0 -0.64992,-0.39891 -2.00429,-1.75697 -2.24871,-2.25483 -2.44087,-2.6453 -1.86094,-3.78155 0.58573,-1.14762 2.10599,-1.39136 3.25884,-0.52249 l 0.33654,0.25364 -0.0711,-0.28856 c -0.0859,-0.3486 -0.48269,-1.04776 -0.69431,-1.22339 -0.0843,-0.07 -0.32071,-0.18476 -0.52538,-0.25512 -0.20467,-0.0704 -0.37213,-0.18775 -0.37213,-0.26086 0,-0.1057 0.3889,-0.13844 1.89831,-0.15979 1.21425,-0.0172 1.92081,0.01 1.96078,0.0742 z"
         style="fill:#ff5555;stroke-width:0.0989842" />
      <path
         style="fill:#ffffff;stroke-width:0.365805"
         d="m 198.71826,417.19393 c -4.04827,3.48093 -9.85287,2.57026 -12.25147,-1.56108 -2.48847,-4.28608 -1.80202,-5.75867 6.64306,-14.25117 5.00016,-5.02822 6.67314,-6.4986 7.39398,-6.4986 0.72013,0 2.40184,1.47422 7.40703,6.49305 8.31032,8.33294 9.02048,9.77596 6.87728,13.97507 -2.16462,4.24114 -7.78288,5.14191 -12.04334,1.93091 -2.28086,-1.68758 -2.26241,-1.68181 -4.02654,-0.0881 z"
         id="path1772" />
      <path
         id="path1774"
         d="m 199.10926,414.99511 c -3.16529,2.72169 -7.70382,2.00965 -9.57927,-1.22059 -1.94568,-3.35123 -1.40896,-4.50262 5.19414,-11.1428 3.90955,-3.93149 5.21764,-5.08115 5.78125,-5.08115 0.56305,0 1.87796,1.15266 5.79145,5.07682 6.49772,6.51541 7.05299,7.64369 5.37725,10.92691 -1.69249,3.31608 -6.08533,4.02038 -9.41652,1.50976 -1.78338,-1.3195 -1.76896,-1.31499 -3.1483,-0.069 z"
         style="fill:#ff5555;stroke-width:0.286018" />
      <path
         style="fill:#ffffff;stroke-width:0.201141"
         d="m 199.52521,412.65601 c -2.22598,1.91401 -5.41768,1.41327 -6.73658,-0.85838 -1.36829,-2.35673 -0.99083,-3.16644 3.65276,-7.83611 2.74937,-2.76481 3.66927,-3.5733 4.06563,-3.5733 0.39597,0 1.32068,0.8106 4.07282,3.57025 4.56948,4.58193 4.95996,5.37539 3.78152,7.6843 -1.19024,2.33202 -4.27948,2.82732 -6.62213,1.06172 -1.25415,-0.92793 -1.24401,-0.92475 -2.21402,-0.0485 z"
         id="path1776" />
      <path
         id="path1778"
         d="m 199.91477,410.46532 c -1.34626,1.15759 -3.27659,0.85475 -4.07425,-0.51914 -0.82755,-1.42534 -0.59925,-1.91504 2.20917,-4.73924 1.66279,-1.67214 2.21916,-2.16111 2.45886,-2.16111 0.23948,0 0.79874,0.49025 2.46322,2.15927 2.76361,2.77112 2.99976,3.25101 2.28705,4.64743 -0.71985,1.41038 -2.58821,1.70994 -4.00503,0.64212 -0.7585,-0.56121 -0.75237,-0.55929 -1.33902,-0.0293 z"
         style="fill:#ff5555;stroke-width:0.121648" />
    </g>
    <g
       id="Pikes_7_white"
       transform="translate(19.207229,-18.117997)">
      <path
         id="path1808"
         d="m 277.55836,401.08938 c 0,0 3.59213,-4.01166 8.02327,-4.01166 4.43115,0 8.02327,3.64105 8.02327,8.02327 0,2.71647 -2.67518,5.34809 -2.67518,5.34809 l -12.01814,12.01963 c -0.74729,0.74733 -1.95994,0.74733 -2.70723,0 l -12.0173,-12.01963 c 0,0 -2.67522,-2.63315 -2.67522,-5.34809 0,-4.38222 3.59217,-8.02327 8.02327,-8.02327 4.43117,0 8.02326,4.01166 8.02326,4.01166 z"
         fill="url(#4LyKu8AtUK4gmSHjQsrKja)"
         style="fill:#ff1255;fill-opacity:1;stroke-width:0.764121" />
      <rect
         ry="6.0476189"
         y="361.43866"
         x="244.19589"
         height="94.494034"
         width="66.523796"
         id="rect1810"
         style="fill:#ffffff;stroke-width:0.264583" />
      <path
         style="fill:#ff5555;stroke-width:0.429855"
         d="m 270.06143,426.22941 c -0.38389,-0.62148 0.12985,-1.29846 0.98687,-1.30037 2.09317,-0.004 5.15001,-3.44412 5.92014,-6.66113 0.29574,-1.23544 0.27446,-1.26011 -0.50792,-0.58743 -4.75708,4.0904 -11.70996,3.38889 -14.52856,-1.46582 -2.92418,-5.03654 -2.11753,-6.76696 7.80624,-16.74646 5.87563,-5.90863 7.84156,-7.63645 8.6886,-7.63645 0.84621,0 2.82238,1.73234 8.70396,7.62994 9.7654,9.79198 10.59989,11.48766 8.08144,16.42201 -2.54363,4.98373 -9.14561,6.04222 -14.15205,2.269 l -1.46149,-1.10147 0.30877,1.25312 c 0.37303,1.51385 2.09616,4.55007 3.01516,5.31277 0.36608,0.30399 1.39273,0.80236 2.28155,1.10791 0.88881,0.30572 1.61603,0.81533 1.61603,1.13282 0,0.45902 -1.68886,0.6012 -8.24373,0.69392 -5.27308,0.0747 -8.34143,-0.0434 -8.51501,-0.32223 z"
         id="path1812" />
      <text
         id="text1816"
         y="373.88815"
         x="248.03986"
         style="font-style:normal;font-variant:normal;font-weight:bold;font-stretch:normal;font-size:10.5833px;line-height:1.25;font-family:sans-serif;-inkscape-font-specification:'sans-serif Bold';fill:#ff5555;fill-opacity:1;stroke:none;stroke-width:0.264583"
         xml:space="preserve"><tspan
           style="font-style:normal;font-variant:normal;font-weight:bold;font-stretch:normal;font-family:sans-serif;-inkscape-font-specification:'sans-serif Bold';fill:#ff5555;stroke-width:0.264583"
           y="373.88815"
           x="248.03986"
           id="tspan1814">7</tspan></text>
      <text
         transform="scale(-1)"
         xml:space="preserve"
         style="font-style:normal;font-variant:normal;font-weight:bold;font-stretch:normal;font-size:10.5833px;line-height:1.25;font-family:sans-serif;-inkscape-font-specification:'sans-serif Bold';fill:#ff5555;fill-opacity:1;stroke:none;stroke-width:0.264583"
         x="-306.97705"
         y="-443.44778"
         id="text1820"><tspan
           id="tspan1818"
           x="-306.97705"
           y="-443.44778"
           style="font-style:normal;font-variant:normal;font-weight:bold;font-stretch:normal;font-family:sans-serif;-inkscape-font-specification:'sans-serif Bold';fill:#ff5555;stroke-width:0.264583">7</tspan></text>
      <path
         id="path1822"
         d="m 261.14805,373.82127 c -0.0884,-0.14311 0.0299,-0.299 0.22725,-0.29944 0.482,-0.001 1.18591,-0.79309 1.36325,-1.53388 0.0681,-0.28449 0.0632,-0.29017 -0.11696,-0.13527 -1.09543,0.94191 -2.69649,0.78037 -3.34554,-0.33754 -0.67336,-1.15978 -0.48761,-1.55825 1.79757,-3.85626 1.353,-1.3606 1.8057,-1.75847 2.00075,-1.75847 0.19486,0 0.64992,0.39891 2.00429,1.75697 2.24871,2.25483 2.44087,2.6453 1.86094,3.78155 -0.58573,1.14762 -2.10599,1.39136 -3.25884,0.52249 l -0.33654,-0.25364 0.0711,0.28856 c 0.0859,0.3486 0.48269,1.04776 0.69431,1.22339 0.0843,0.07 0.32071,0.18476 0.52538,0.25512 0.20467,0.0704 0.37213,0.18775 0.37213,0.26086 0,0.1057 -0.3889,0.13844 -1.89831,0.15979 -1.21425,0.0172 -1.92081,-0.01 -1.96078,-0.0742 z"
         style="fill:#ff5555;stroke-width:0.0989842" />
      <path
         style="fill:#ff5555;stroke-width:0.0989842"
         d="m 293.86141,443.49248 c 0.0884,0.14311 -0.0299,0.299 -0.22725,0.29944 -0.482,10e-4 -1.18591,0.79309 -1.36325,1.53388 -0.0681,0.28449 -0.0632,0.29017 0.11696,0.13527 1.09543,-0.94191 2.6965,-0.78037 3.34555,0.33754 0.67336,1.15978 0.48761,1.55825 -1.79758,3.85626 -1.353,1.3606 -1.8057,1.75847 -2.00075,1.75847 -0.19486,0 -0.64992,-0.39891 -2.00429,-1.75697 -2.24871,-2.25483 -2.44087,-2.6453 -1.86094,-3.78155 0.58573,-1.14762 2.10599,-1.39136 3.25884,-0.52249 l 0.33654,0.25364 -0.0711,-0.28856 c -0.0859,-0.3486 -0.48269,-1.04776 -0.69431,-1.22339 -0.0843,-0.07 -0.32071,-0.18476 -0.52538,-0.25512 -0.20467,-0.0704 -0.37213,-0.18775 -0.37213,-0.26086 0,-0.1057 0.3889,-0.13844 1.89831,-0.15979 1.21425,-0.0172 1.92081,0.01 1.96078,0.0742 z"
         id="path1824" />
      <path
         id="path1826"
         d="m 276.64247,417.05052 c -4.04827,3.48093 -9.85287,2.57026 -12.25147,-1.56108 -2.48847,-4.28608 -1.80202,-5.75867 6.64306,-14.25117 5.00016,-5.02822 6.67314,-6.4986 7.39398,-6.4986 0.72013,0 2.40184,1.47422 7.40703,6.49305 8.31032,8.33294 9.02048,9.77596 6.87728,13.97507 -2.16462,4.24114 -7.78288,5.14191 -12.04334,1.93091 -2.28086,-1.68758 -2.26241,-1.68181 -4.02654,-0.0881 z"
         style="fill:#ffffff;stroke-width:0.365805" />
      <path
         style="fill:#ff5555;stroke-width:0.286018"
         d="m 277.03347,414.8517 c -3.16529,2.72169 -7.70382,2.00965 -9.57927,-1.22059 -1.94568,-3.35123 -1.40896,-4.50262 5.19414,-11.1428 3.90955,-3.93149 5.21764,-5.08115 5.78125,-5.08115 0.56305,0 1.87796,1.15266 5.79145,5.07682 6.49772,6.51541 7.05299,7.64369 5.37725,10.92691 -1.69249,3.31608 -6.08533,4.02038 -9.41652,1.50976 -1.78338,-1.3195 -1.76896,-1.31499 -3.1483,-0.069 z"
         id="path1828" />
      <path
         id="path1830"
         d="m 277.44942,412.5126 c -2.22598,1.91401 -5.41768,1.41327 -6.73658,-0.85838 -1.36829,-2.35673 -0.99083,-3.16644 3.65276,-7.83611 2.74937,-2.76481 3.66927,-3.5733 4.06563,-3.5733 0.39597,0 1.32068,0.8106 4.07282,3.57025 4.56948,4.58193 4.95996,5.37539 3.78152,7.6843 -1.19024,2.33202 -4.27948,2.82732 -6.62213,1.06172 -1.25415,-0.92793 -1.24401,-0.92475 -2.21402,-0.0485 z"
         style="fill:#ffffff;stroke-width:0.201141" />
      <path
         style="fill:#ff5555;stroke-width:0.121648"
         d="m 277.83898,410.32191 c -1.34626,1.15759 -3.27659,0.85475 -4.07425,-0.51914 -0.82755,-1.42534 -0.59925,-1.91504 2.20917,-4.73924 1.66279,-1.67214 2.21916,-2.16111 2.45886,-2.16111 0.23948,0 0.79874,0.49025 2.46322,2.15927 2.76361,2.77112 2.99976,3.25101 2.28705,4.64743 -0.71985,1.41038 -2.58821,1.70994 -4.00503,0.64212 -0.7585,-0.56121 -0.75237,-0.55929 -1.33902,-0.0293 z"
         id="path1832" />
    </g>
    <g
       id="Pikes_8_white"
       transform="translate(13.893454,-17.97847)">
      <path
         style="fill:#ff1255;fill-opacity:1;stroke-width:0.764121"
         fill="url(#4LyKu8AtUK4gmSHjQsrKja)"
         d="m 353.37651,400.94985 c 0,0 3.59213,-4.01166 8.02327,-4.01166 4.43115,0 8.02327,3.64105 8.02327,8.02327 0,2.71647 -2.67518,5.34809 -2.67518,5.34809 l -12.01814,12.01963 c -0.74729,0.74733 -1.95994,0.74733 -2.70723,0 l -12.0173,-12.01963 c 0,0 -2.67522,-2.63315 -2.67522,-5.34809 0,-4.38222 3.59217,-8.02327 8.02327,-8.02327 4.43117,0 8.02326,4.01166 8.02326,4.01166 z"
         id="path1862" />
      <rect
         style="fill:#ffffff;stroke-width:0.264583"
         id="rect1864"
         width="66.523796"
         height="94.494034"
         x="320.01404"
         y="361.29913"
         ry="6.0476189" />
      <path
         id="path1866"
         d="m 345.87958,426.08988 c -0.38389,-0.62148 0.12985,-1.29846 0.98687,-1.30037 2.09317,-0.004 5.15001,-3.44412 5.92014,-6.66113 0.29574,-1.23544 0.27446,-1.26011 -0.50792,-0.58743 -4.75708,4.0904 -11.70996,3.38889 -14.52856,-1.46582 -2.92418,-5.03654 -2.11753,-6.76696 7.80624,-16.74646 5.87563,-5.90863 7.84156,-7.63645 8.6886,-7.63645 0.84621,0 2.82238,1.73234 8.70396,7.62994 9.7654,9.79198 10.59989,11.48766 8.08144,16.42201 -2.54363,4.98373 -9.14561,6.04222 -14.15205,2.269 l -1.46149,-1.10147 0.30877,1.25312 c 0.37303,1.51385 2.09616,4.55007 3.01516,5.31277 0.36608,0.30399 1.39273,0.80236 2.28155,1.10791 0.88881,0.30572 1.61603,0.81533 1.61603,1.13282 0,0.45902 -1.68886,0.6012 -8.24373,0.69392 -5.27308,0.0747 -8.34143,-0.0434 -8.51501,-0.32223 z"
         style="fill:#ff5555;stroke-width:0.429855" />
      <text
         xml:space="preserve"
         style="font-style:normal;font-variant:normal;font-weight:bold;font-stretch:normal;font-size:10.5833px;line-height:1.25;font-family:sans-serif;-inkscape-font-specification:'sans-serif Bold';fill:#ff5555;fill-opacity:1;stroke:none;stroke-width:0.264583"
         x="323.858"
         y="373.74863"
         id="text1870"><tspan
           id="tspan1868"
           x="323.858"
           y="373.74863"
           style="font-style:normal;font-variant:normal;font-weight:bold;font-stretch:normal;font-family:sans-serif;-inkscape-font-specification:'sans-serif Bold';fill:#ff5555;stroke-width:0.264583">8</tspan></text>
      <text
         id="text1874"
         y="-443.30826"
         x="-382.7952"
         style="font-style:normal;font-variant:normal;font-weight:bold;font-stretch:normal;font-size:10.5833px;line-height:1.25;font-family:sans-serif;-inkscape-font-specification:'sans-serif Bold';fill:#ff5555;fill-opacity:1;stroke:none;stroke-width:0.264583"
         xml:space="preserve"
         transform="scale(-1)"><tspan
           style="font-style:normal;font-variant:normal;font-weight:bold;font-stretch:normal;font-family:sans-serif;-inkscape-font-specification:'sans-serif Bold';fill:#ff5555;stroke-width:0.264583"
           y="-443.30826"
           x="-382.7952"
           id="tspan1872">8</tspan></text>
      <path
         style="fill:#ff5555;stroke-width:0.0989842"
         d="m 336.9662,373.68174 c -0.0884,-0.14311 0.0299,-0.299 0.22725,-0.29944 0.482,-10e-4 1.18591,-0.79309 1.36325,-1.53388 0.0681,-0.28449 0.0632,-0.29017 -0.11696,-0.13527 -1.09543,0.94191 -2.69649,0.78037 -3.34554,-0.33754 -0.67336,-1.15978 -0.48761,-1.55825 1.79757,-3.85626 1.353,-1.3606 1.8057,-1.75847 2.00075,-1.75847 0.19486,0 0.64992,0.39891 2.00429,1.75697 2.24871,2.25483 2.44087,2.6453 1.86094,3.78155 -0.58573,1.14762 -2.10599,1.39136 -3.25884,0.52249 l -0.33654,-0.25364 0.0711,0.28856 c 0.0859,0.3486 0.48269,1.04776 0.69431,1.22339 0.0843,0.07 0.32071,0.18476 0.52538,0.25512 0.20467,0.0704 0.37213,0.18775 0.37213,0.26086 0,0.1057 -0.3889,0.13844 -1.89831,0.15979 -1.21425,0.0172 -1.92081,-0.01 -1.96078,-0.0742 z"
         id="path1876" />
      <path
         id="path1878"
         d="m 369.67956,443.35295 c 0.0884,0.14311 -0.0299,0.299 -0.22725,0.29944 -0.482,10e-4 -1.18591,0.79309 -1.36325,1.53388 -0.0681,0.28449 -0.0632,0.29017 0.11696,0.13527 1.09543,-0.94191 2.6965,-0.78037 3.34555,0.33754 0.67336,1.15978 0.48761,1.55825 -1.79758,3.85626 -1.353,1.3606 -1.8057,1.75847 -2.00075,1.75847 -0.19486,0 -0.64992,-0.39891 -2.00429,-1.75697 -2.24871,-2.25483 -2.44087,-2.6453 -1.86094,-3.78155 0.58573,-1.14762 2.10599,-1.39136 3.25884,-0.52249 l 0.33654,0.25364 -0.0711,-0.28856 c -0.0859,-0.3486 -0.48269,-1.04776 -0.69431,-1.22339 -0.0843,-0.07 -0.32071,-0.18476 -0.52538,-0.25512 -0.20467,-0.0704 -0.37213,-0.18775 -0.37213,-0.26086 0,-0.1057 0.3889,-0.13844 1.89831,-0.15979 1.21425,-0.0172 1.92081,0.01 1.96078,0.0742 z"
         style="fill:#ff5555;stroke-width:0.0989842" />
      <path
         style="fill:#ffffff;stroke-width:0.365805"
         d="m 352.46062,416.91099 c -4.04827,3.48093 -9.85287,2.57026 -12.25147,-1.56108 -2.48847,-4.28608 -1.80202,-5.75867 6.64306,-14.25117 5.00016,-5.02822 6.67314,-6.4986 7.39398,-6.4986 0.72013,0 2.40184,1.47422 7.40703,6.49305 8.31032,8.33294 9.02048,9.77596 6.87728,13.97507 -2.16462,4.24114 -7.78288,5.14191 -12.04334,1.93091 -2.28086,-1.68758 -2.26241,-1.68181 -4.02654,-0.0881 z"
         id="path1880" />
      <path
         id="path1882"
         d="m 352.85162,414.71217 c -3.16529,2.72169 -7.70382,2.00965 -9.57927,-1.22059 -1.94568,-3.35123 -1.40896,-4.50262 5.19414,-11.1428 3.90955,-3.93149 5.21764,-5.08115 5.78125,-5.08115 0.56305,0 1.87796,1.15266 5.79145,5.07682 6.49772,6.51541 7.05299,7.64369 5.37725,10.92691 -1.69249,3.31608 -6.08533,4.02038 -9.41652,1.50976 -1.78338,-1.3195 -1.76896,-1.31499 -3.1483,-0.069 z"
         style="fill:#ff5555;stroke-width:0.286018" />
      <path
         style="fill:#ffffff;stroke-width:0.201141"
         d="m 353.26757,412.37307 c -2.22598,1.91401 -5.41768,1.41327 -6.73658,-0.85838 -1.36829,-2.35673 -0.99083,-3.16644 3.65276,-7.83611 2.74937,-2.76481 3.66927,-3.5733 4.06563,-3.5733 0.39597,0 1.32068,0.8106 4.07282,3.57025 4.56948,4.58193 4.95996,5.37539 3.78152,7.6843 -1.19024,2.33202 -4.27948,2.82732 -6.62213,1.06172 -1.25415,-0.92793 -1.24401,-0.92475 -2.21402,-0.0485 z"
         id="path1884" />
      <path
         id="path1886"
         d="m 353.65713,410.18238 c -1.34626,1.15759 -3.27659,0.85475 -4.07425,-0.51914 -0.82755,-1.42534 -0.59925,-1.91504 2.20917,-4.73924 1.66279,-1.67214 2.21916,-2.16111 2.45886,-2.16111 0.23948,0 0.79874,0.49025 2.46322,2.15927 2.76361,2.77112 2.99976,3.25101 2.28705,4.64743 -0.71985,1.41038 -2.58821,1.70994 -4.00503,0.64212 -0.7585,-0.56121 -0.75237,-0.55929 -1.33902,-0.0293 z"
         style="fill:#ff5555;stroke-width:0.121648" />
    </g>
    <g
       id="Pikes_9_white"
       transform="translate(3.665524,-17.82988)">
      <path
         id="path1916"
         d="m 434.1088,400.80127 c 0,0 3.59213,-4.01166 8.02327,-4.01166 4.43115,0 8.02327,3.64105 8.02327,8.02327 0,2.71647 -2.67518,5.34809 -2.67518,5.34809 l -12.01814,12.01963 c -0.74729,0.74733 -1.95994,0.74733 -2.70723,0 l -12.0173,-12.01963 c 0,0 -2.67522,-2.63315 -2.67522,-5.34809 0,-4.38222 3.59217,-8.02327 8.02327,-8.02327 4.43117,0 8.02326,4.01166 8.02326,4.01166 z"
         fill="url(#4LyKu8AtUK4gmSHjQsrKja)"
         style="fill:#ff1255;fill-opacity:1;stroke-width:0.764121" />
      <rect
         ry="6.0476189"
         y="361.15054"
         x="400.74634"
         height="94.494034"
         width="66.523796"
         id="rect1918"
         style="fill:#ffffff;stroke-width:0.264583" />
      <path
         style="fill:#ff5555;stroke-width:0.429855"
         d="m 426.61187,425.9413 c -0.38389,-0.62148 0.12985,-1.29846 0.98687,-1.30037 2.09317,-0.004 5.15001,-3.44412 5.92014,-6.66113 0.29574,-1.23544 0.27446,-1.26011 -0.50792,-0.58743 -4.75708,4.0904 -11.70996,3.38889 -14.52856,-1.46582 -2.92418,-5.03654 -2.11753,-6.76696 7.80624,-16.74646 5.87563,-5.90863 7.84156,-7.63645 8.6886,-7.63645 0.84621,0 2.82238,1.73234 8.70396,7.62994 9.7654,9.79198 10.59989,11.48766 8.08144,16.42201 -2.54363,4.98373 -9.14561,6.04222 -14.15205,2.269 l -1.46149,-1.10147 0.30877,1.25312 c 0.37303,1.51385 2.09616,4.55007 3.01516,5.31277 0.36608,0.30399 1.39273,0.80236 2.28155,1.10791 0.88881,0.30572 1.61603,0.81533 1.61603,1.13282 0,0.45902 -1.68886,0.6012 -8.24373,0.69392 -5.27308,0.0747 -8.34143,-0.0434 -8.51501,-0.32223 z"
         id="path1920" />
      <text
         id="text1924"
         y="373.60004"
         x="404.5903"
         style="font-style:normal;font-variant:normal;font-weight:bold;font-stretch:normal;font-size:10.5833px;line-height:1.25;font-family:sans-serif;-inkscape-font-specification:'sans-serif Bold';fill:#ff5555;fill-opacity:1;stroke:none;stroke-width:0.264583"
         xml:space="preserve"><tspan
           style="font-style:normal;font-variant:normal;font-weight:bold;font-stretch:normal;font-family:sans-serif;-inkscape-font-specification:'sans-serif Bold';fill:#ff5555;stroke-width:0.264583"
           y="373.60004"
           x="404.5903"
           id="tspan1922">9</tspan></text>
      <text
         transform="scale(-1)"
         xml:space="preserve"
         style="font-style:normal;font-variant:normal;font-weight:bold;font-stretch:normal;font-size:10.5833px;line-height:1.25;font-family:sans-serif;-inkscape-font-specification:'sans-serif Bold';fill:#ff5555;fill-opacity:1;stroke:none;stroke-width:0.264583"
         x="-463.5275"
         y="-443.15967"
         id="text1928"><tspan
           id="tspan1926"
           x="-463.5275"
           y="-443.15967"
           style="font-style:normal;font-variant:normal;font-weight:bold;font-stretch:normal;font-family:sans-serif;-inkscape-font-specification:'sans-serif Bold';fill:#ff5555;stroke-width:0.264583">9</tspan></text>
      <path
         id="path1930"
         d="m 417.69849,373.53316 c -0.0884,-0.14311 0.0299,-0.299 0.22725,-0.29944 0.482,-0.001 1.18591,-0.79309 1.36325,-1.53388 0.0681,-0.28449 0.0632,-0.29017 -0.11696,-0.13527 -1.09543,0.94191 -2.69649,0.78037 -3.34554,-0.33754 -0.67336,-1.15978 -0.48761,-1.55825 1.79757,-3.85626 1.353,-1.3606 1.8057,-1.75847 2.00075,-1.75847 0.19486,0 0.64992,0.39891 2.00429,1.75697 2.24871,2.25483 2.44087,2.6453 1.86094,3.78155 -0.58573,1.14762 -2.10599,1.39136 -3.25884,0.52249 l -0.33654,-0.25364 0.0711,0.28856 c 0.0859,0.3486 0.48269,1.04776 0.69431,1.22339 0.0843,0.07 0.32071,0.18476 0.52538,0.25512 0.20467,0.0704 0.37213,0.18775 0.37213,0.26086 0,0.1057 -0.3889,0.13844 -1.89831,0.15979 -1.21425,0.0172 -1.92081,-0.01 -1.96078,-0.0742 z"
         style="fill:#ff5555;stroke-width:0.0989842" />
      <path
         style="fill:#ff5555;stroke-width:0.0989842"
         d="m 450.41185,443.20437 c 0.0884,0.14311 -0.0299,0.299 -0.22725,0.29944 -0.482,0.001 -1.18591,0.79309 -1.36325,1.53388 -0.0681,0.28449 -0.0632,0.29017 0.11696,0.13527 1.09543,-0.94191 2.6965,-0.78037 3.34555,0.33754 0.67336,1.15978 0.48761,1.55825 -1.79758,3.85626 -1.353,1.3606 -1.8057,1.75847 -2.00075,1.75847 -0.19486,0 -0.64992,-0.39891 -2.00429,-1.75697 -2.24871,-2.25483 -2.44087,-2.6453 -1.86094,-3.78155 0.58573,-1.14762 2.10599,-1.39136 3.25884,-0.52249 l 0.33654,0.25364 -0.0711,-0.28856 c -0.0859,-0.3486 -0.48269,-1.04776 -0.69431,-1.22339 -0.0843,-0.07 -0.32071,-0.18476 -0.52538,-0.25512 -0.20467,-0.0704 -0.37213,-0.18775 -0.37213,-0.26086 0,-0.1057 0.3889,-0.13844 1.89831,-0.15979 1.21425,-0.0172 1.92081,0.01 1.96078,0.0742 z"
         id="path1932" />
      <path
         id="path1934"
         d="m 433.19291,416.76241 c -4.04827,3.48093 -9.85287,2.57026 -12.25147,-1.56108 -2.48847,-4.28608 -1.80202,-5.75867 6.64306,-14.25117 5.00016,-5.02822 6.67314,-6.4986 7.39398,-6.4986 0.72013,0 2.40184,1.47422 7.40703,6.49305 8.31032,8.33294 9.02048,9.77596 6.87728,13.97507 -2.16462,4.24114 -7.78288,5.14191 -12.04334,1.93091 -2.28086,-1.68758 -2.26241,-1.68181 -4.02654,-0.0881 z"
         style="fill:#ffffff;stroke-width:0.365805" />
      <path
         style="fill:#ff5555;stroke-width:0.286018"
         d="m 433.58391,414.56359 c -3.16529,2.72169 -7.70382,2.00965 -9.57927,-1.22059 -1.94568,-3.35123 -1.40896,-4.50262 5.19414,-11.1428 3.90955,-3.93149 5.21764,-5.08115 5.78125,-5.08115 0.56305,0 1.87796,1.15266 5.79145,5.07682 6.49772,6.51541 7.05299,7.64369 5.37725,10.92691 -1.69249,3.31608 -6.08533,4.02038 -9.41652,1.50976 -1.78338,-1.3195 -1.76896,-1.31499 -3.1483,-0.069 z"
         id="path1936" />
      <path
         id="path1938"
         d="m 433.99986,412.22449 c -2.22598,1.91401 -5.41768,1.41327 -6.73658,-0.85838 -1.36829,-2.35673 -0.99083,-3.16644 3.65276,-7.83611 2.74937,-2.76481 3.66927,-3.5733 4.06563,-3.5733 0.39597,0 1.32068,0.8106 4.07282,3.57025 4.56948,4.58193 4.95996,5.37539 3.78152,7.6843 -1.19024,2.33202 -4.27948,2.82732 -6.62213,1.06172 -1.25415,-0.92793 -1.24401,-0.92475 -2.21402,-0.0485 z"
         style="fill:#ffffff;stroke-width:0.201141" />
      <path
         style="fill:#ff5555;stroke-width:0.121648"
         d="m 434.38942,410.0338 c -1.34626,1.15759 -3.27659,0.85475 -4.07425,-0.51914 -0.82755,-1.42534 -0.59925,-1.91504 2.20917,-4.73924 1.66279,-1.67214 2.21916,-2.16111 2.45886,-2.16111 0.23948,0 0.79874,0.49025 2.46322,2.15927 2.76361,2.77112 2.99976,3.25101 2.28705,4.64743 -0.71985,1.41038 -2.58821,1.70994 -4.00503,0.64212 -0.7585,-0.56121 -0.75237,-0.55929 -1.33902,-0.0293 z"
         id="path1940" />
    </g>
    <g
       id="Pikes_10_white"
       transform="translate(-5.1596351,-18.385911)">
      <path
         style="fill:#ff1255;fill-opacity:1;stroke-width:0.764121"
         fill="url(#4LyKu8AtUK4gmSHjQsrKja)"
         d="m 513.43834,401.3573 c 0,0 3.59213,-4.01166 8.02327,-4.01166 4.43115,0 8.02327,3.64105 8.02327,8.02327 0,2.71647 -2.67518,5.34809 -2.67518,5.34809 l -12.01814,12.01963 c -0.74729,0.74733 -1.95994,0.74733 -2.70723,0 L 500.06703,410.717 c 0,0 -2.67522,-2.63315 -2.67522,-5.34809 0,-4.38222 3.59217,-8.02327 8.02327,-8.02327 4.43117,0 8.02326,4.01166 8.02326,4.01166 z"
         id="path1970" />
      <rect
         style="fill:#ffffff;stroke-width:0.264583"
         id="rect1972"
         width="66.523796"
         height="94.494034"
         x="480.07587"
         y="361.70657"
         ry="6.0476189" />
      <path
         id="path1974"
         d="m 505.94141,426.49733 c -0.38389,-0.62148 0.12985,-1.29846 0.98687,-1.30037 2.09317,-0.004 5.15001,-3.44412 5.92014,-6.66113 0.29574,-1.23544 0.27446,-1.26011 -0.50792,-0.58743 -4.75708,4.0904 -11.70996,3.38889 -14.52856,-1.46582 -2.92418,-5.03654 -2.11753,-6.76696 7.80624,-16.74646 5.87563,-5.90863 7.84156,-7.63645 8.6886,-7.63645 0.84621,0 2.82238,1.73234 8.70396,7.62994 9.7654,9.79198 10.59989,11.48766 8.08144,16.42201 -2.54363,4.98373 -9.14561,6.04222 -14.15205,2.269 l -1.46149,-1.10147 0.30877,1.25312 c 0.37303,1.51385 2.09616,4.55007 3.01516,5.31277 0.36608,0.30399 1.39273,0.80236 2.28155,1.10791 0.88881,0.30572 1.61603,0.81533 1.61603,1.13282 0,0.45902 -1.68886,0.6012 -8.24373,0.69392 -5.27308,0.0747 -8.34143,-0.0434 -8.51501,-0.32223 z"
         style="fill:#ff5555;stroke-width:0.429855" />
      <text
         xml:space="preserve"
         style="font-style:normal;font-variant:normal;font-weight:bold;font-stretch:normal;font-size:10.5833px;line-height:1.25;font-family:sans-serif;-inkscape-font-specification:'sans-serif Bold';fill:#ff5555;fill-opacity:1;stroke:none;stroke-width:0.264583"
         x="480.21561"
         y="374.15607"
         id="text1978"><tspan
           id="tspan1976"
           x="480.21561"
           y="374.15607"
           style="font-style:normal;font-variant:normal;font-weight:bold;font-stretch:normal;font-family:sans-serif;-inkscape-font-specification:'sans-serif Bold';fill:#ff5555;stroke-width:0.264583">10</tspan></text>
      <text
         id="text1982"
         y="-443.7157"
         x="-546.56128"
         style="font-style:normal;font-variant:normal;font-weight:bold;font-stretch:normal;font-size:10.5833px;line-height:1.25;font-family:sans-serif;-inkscape-font-specification:'sans-serif Bold';fill:#ff5555;fill-opacity:1;stroke:none;stroke-width:0.264583"
         xml:space="preserve"
         transform="scale(-1)"><tspan
           style="font-style:normal;font-variant:normal;font-weight:bold;font-stretch:normal;font-family:sans-serif;-inkscape-font-specification:'sans-serif Bold';fill:#ff5555;stroke-width:0.264583"
           y="-443.7157"
           x="-546.56128"
           id="tspan1980">10</tspan></text>
      <path
         style="fill:#ff5555;stroke-width:0.0989842"
         d="m 497.02803,374.08919 c -0.0884,-0.14311 0.0299,-0.299 0.22725,-0.29944 0.482,-0.001 1.18591,-0.79309 1.36325,-1.53388 0.0681,-0.28449 0.0632,-0.29017 -0.11696,-0.13527 -1.09543,0.94191 -2.69649,0.78037 -3.34554,-0.33754 -0.67336,-1.15978 -0.48761,-1.55825 1.79757,-3.85626 1.353,-1.3606 1.8057,-1.75847 2.00075,-1.75847 0.19486,0 0.64992,0.39891 2.00429,1.75697 2.24871,2.25483 2.44087,2.6453 1.86094,3.78155 -0.58573,1.14762 -2.10599,1.39136 -3.25884,0.52249 l -0.33654,-0.25364 0.0711,0.28856 c 0.0859,0.3486 0.48269,1.04776 0.69431,1.22339 0.0843,0.07 0.32071,0.18476 0.52538,0.25512 0.20467,0.0704 0.37213,0.18775 0.37213,0.26086 0,0.1057 -0.3889,0.13844 -1.89831,0.15979 -1.21425,0.0172 -1.92081,-0.01 -1.96078,-0.0742 z"
         id="path1984" />
      <path
         id="path1986"
         d="m 529.74139,443.7604 c 0.0884,0.14311 -0.0299,0.299 -0.22725,0.29944 -0.482,10e-4 -1.18591,0.79309 -1.36325,1.53388 -0.0681,0.28449 -0.0632,0.29017 0.11696,0.13527 1.09543,-0.94191 2.6965,-0.78037 3.34555,0.33754 0.67336,1.15978 0.48761,1.55825 -1.79758,3.85626 -1.353,1.3606 -1.8057,1.75847 -2.00075,1.75847 -0.19486,0 -0.64992,-0.39891 -2.00429,-1.75697 -2.24871,-2.25483 -2.44087,-2.6453 -1.86094,-3.78155 0.58573,-1.14762 2.10599,-1.39136 3.25884,-0.52249 l 0.33654,0.25364 -0.0711,-0.28856 c -0.0859,-0.3486 -0.48269,-1.04776 -0.69431,-1.22339 -0.0843,-0.07 -0.32071,-0.18476 -0.52538,-0.25512 -0.20467,-0.0704 -0.37213,-0.18775 -0.37213,-0.26086 0,-0.1057 0.3889,-0.13844 1.89831,-0.15979 1.21425,-0.0172 1.92081,0.01 1.96078,0.0742 z"
         style="fill:#ff5555;stroke-width:0.0989842" />
      <path
         style="fill:#ffffff;stroke-width:0.365805"
         d="m 512.52245,417.31844 c -4.04827,3.48093 -9.85287,2.57026 -12.25147,-1.56108 -2.48847,-4.28608 -1.80202,-5.75867 6.64306,-14.25117 5.00016,-5.02822 6.67314,-6.4986 7.39398,-6.4986 0.72013,0 2.40184,1.47422 7.40703,6.49305 8.31032,8.33294 9.02048,9.77596 6.87728,13.97507 -2.16462,4.24114 -7.78288,5.14191 -12.04334,1.93091 -2.28086,-1.68758 -2.26241,-1.68181 -4.02654,-0.0881 z"
         id="path1988" />
      <path
         id="path1990"
         d="m 512.91345,415.11962 c -3.16529,2.72169 -7.70382,2.00965 -9.57927,-1.22059 -1.94568,-3.35123 -1.40896,-4.50262 5.19414,-11.1428 3.90955,-3.93149 5.21764,-5.08115 5.78125,-5.08115 0.56305,0 1.87796,1.15266 5.79145,5.07682 6.49772,6.51541 7.05299,7.64369 5.37725,10.92691 -1.69249,3.31608 -6.08533,4.02038 -9.41652,1.50976 -1.78338,-1.3195 -1.76896,-1.31499 -3.1483,-0.069 z"
         style="fill:#ff5555;stroke-width:0.286018" />
      <path
         style="fill:#ffffff;stroke-width:0.201141"
         d="m 513.3294,412.78052 c -2.22598,1.91401 -5.41768,1.41327 -6.73658,-0.85838 -1.36829,-2.35673 -0.99083,-3.16644 3.65276,-7.83611 2.74937,-2.76481 3.66927,-3.5733 4.06563,-3.5733 0.39597,0 1.32068,0.8106 4.07282,3.57025 4.56948,4.58193 4.95996,5.37539 3.78152,7.6843 -1.19024,2.33202 -4.27948,2.82732 -6.62213,1.06172 -1.25415,-0.92793 -1.24401,-0.92475 -2.21402,-0.0485 z"
         id="path1992" />
      <path
         id="path1994"
         d="m 513.71896,410.58983 c -1.34626,1.15759 -3.27659,0.85475 -4.07425,-0.51914 -0.82755,-1.42534 -0.59925,-1.91504 2.20917,-4.73924 1.66279,-1.67214 2.21916,-2.16111 2.45886,-2.16111 0.23948,0 0.79874,0.49025 2.46322,2.15927 2.76361,2.77112 2.99976,3.25101 2.28705,4.64743 -0.71985,1.41038 -2.58821,1.70994 -4.00503,0.64212 -0.7585,-0.56121 -0.75237,-0.55929 -1.33902,-0.0293 z"
         style="fill:#ff5555;stroke-width:0.121648" />
    </g>
    <g
       id="Pikes_Jack_white"
       transform="translate(-15.387564,-18.237321)">
      <path
         id="path2024"
         d="m 594.17063,401.20872 c 0,0 3.59213,-4.01166 8.02327,-4.01166 4.43115,0 8.02327,3.64105 8.02327,8.02327 0,2.71647 -2.67518,5.34809 -2.67518,5.34809 l -12.01814,12.01963 c -0.74729,0.74733 -1.95994,0.74733 -2.70723,0 l -12.0173,-12.01963 c 0,0 -2.67522,-2.63315 -2.67522,-5.34809 0,-4.38222 3.59217,-8.02327 8.02327,-8.02327 4.43117,0 8.02326,4.01166 8.02326,4.01166 z"
         fill="url(#4LyKu8AtUK4gmSHjQsrKja)"
         style="fill:#ff1255;fill-opacity:1;stroke-width:0.764121" />
      <rect
         ry="6.0476189"
         y="361.55798"
         x="560.80817"
         height="94.494034"
         width="66.523796"
         id="rect2026"
         style="fill:#ffffff;stroke-width:0.264583" />
      <text
         id="text2032"
         y="374.00748"
         x="565.71045"
         style="font-style:normal;font-variant:normal;font-weight:bold;font-stretch:normal;font-size:10.5833px;line-height:1.25;font-family:sans-serif;-inkscape-font-specification:'sans-serif Bold';fill:#ff5555;fill-opacity:1;stroke:none;stroke-width:0.264583"
         xml:space="preserve"><tspan
           style="font-style:normal;font-variant:normal;font-weight:bold;font-stretch:normal;font-family:sans-serif;-inkscape-font-specification:'sans-serif Bold';fill:#ff5555;stroke-width:0.264583"
           y="374.00748"
           x="565.71045"
           id="tspan2030">J</tspan></text>
      <text
         transform="scale(-1)"
         xml:space="preserve"
         style="font-style:normal;font-variant:normal;font-weight:bold;font-stretch:normal;font-size:10.5833px;line-height:1.25;font-family:sans-serif;-inkscape-font-specification:'sans-serif Bold';fill:#ff5555;fill-opacity:1;stroke:none;stroke-width:0.264583"
         x="-622.00183"
         y="-443.56711"
         id="text2036"><tspan
           id="tspan2034"
           x="-622.00183"
           y="-443.56711"
           style="font-style:normal;font-variant:normal;font-weight:bold;font-stretch:normal;font-family:sans-serif;-inkscape-font-specification:'sans-serif Bold';fill:#ff5555;stroke-width:0.264583">J</tspan></text>
      <path
         id="path2038"
         d="m 577.76032,373.94061 c -0.0884,-0.14311 0.0299,-0.299 0.22725,-0.29944 0.482,-10e-4 1.18591,-0.79309 1.36325,-1.53388 0.0681,-0.28449 0.0632,-0.29017 -0.11696,-0.13527 -1.09543,0.94191 -2.69649,0.78037 -3.34554,-0.33754 -0.67336,-1.15978 -0.48761,-1.55825 1.79757,-3.85626 1.353,-1.3606 1.8057,-1.75847 2.00075,-1.75847 0.19486,0 0.64992,0.39891 2.00429,1.75697 2.24871,2.25483 2.44087,2.6453 1.86094,3.78155 -0.58573,1.14762 -2.10599,1.39136 -3.25884,0.52249 l -0.33654,-0.25364 0.0711,0.28856 c 0.0859,0.3486 0.48269,1.04776 0.69431,1.22339 0.0843,0.07 0.32071,0.18476 0.52538,0.25512 0.20467,0.0704 0.37213,0.18775 0.37213,0.26086 0,0.1057 -0.3889,0.13844 -1.89831,0.15979 -1.21425,0.0172 -1.92081,-0.01 -1.96078,-0.0742 z"
         style="fill:#ff5555;stroke-width:0.0989842" />
      <path
         style="fill:#ff5555;stroke-width:0.0989842"
         d="m 610.47368,443.61182 c 0.0884,0.14311 -0.0299,0.299 -0.22725,0.29944 -0.482,10e-4 -1.18591,0.79309 -1.36325,1.53388 -0.0681,0.28449 -0.0632,0.29017 0.11696,0.13527 1.09543,-0.94191 2.6965,-0.78037 3.34555,0.33754 0.67336,1.15978 0.48761,1.55825 -1.79758,3.85626 -1.353,1.3606 -1.8057,1.75847 -2.00075,1.75847 -0.19486,0 -0.64992,-0.39891 -2.00429,-1.75697 -2.24871,-2.25483 -2.44087,-2.6453 -1.86094,-3.78155 0.58573,-1.14762 2.10599,-1.39136 3.25884,-0.52249 l 0.33654,0.25364 -0.0711,-0.28856 c -0.0859,-0.3486 -0.48269,-1.04776 -0.69431,-1.22339 -0.0843,-0.07 -0.32071,-0.18476 -0.52538,-0.25512 -0.20467,-0.0704 -0.37213,-0.18775 -0.37213,-0.26086 0,-0.1057 0.3889,-0.13844 1.89831,-0.15979 1.21425,-0.0172 1.92081,0.01 1.96078,0.0742 z"
         id="path2040" />
      <path
         style="fill:#ff5555;stroke-width:0.121648"
         d="m 594.45125,410.44125 c -1.34626,1.15759 -3.27659,0.85475 -4.07425,-0.51914 -0.82755,-1.42534 -0.59925,-1.91504 2.20917,-4.73924 1.66279,-1.67214 2.21916,-2.16111 2.45886,-2.16111 0.23948,0 0.79874,0.49025 2.46322,2.15927 2.76361,2.77112 2.99976,3.25101 2.28705,4.64743 -0.71985,1.41038 -2.58821,1.70994 -4.00503,0.64212 -0.7585,-0.56121 -0.75237,-0.55929 -1.33902,-0.0293 z"
         id="path2048" />
      <path
         id="path3328"
         d="m 592.82248,412.4312 c -1.09016,-1.09015 -1.9821,-2.04279 -1.9821,-2.117 0,-0.17623 3.92286,-4.09908 4.09908,-4.09908 0.17623,0 4.09909,3.92285 4.09909,4.09908 0,0.0742 -0.89194,1.02685 -1.9821,2.117 -1.09014,1.09014 -2.04278,1.98208 -2.11699,1.98208 -0.0742,0 -1.02684,-0.89194 -2.11698,-1.98208 z"
         style="fill:#ffffff;stroke-width:0.0931606" />
      <path
         style="fill:#ffe680;stroke-width:0.365072"
         d="m 610.94959,420.11306 c 1.79077,-3.58373 7.47016,-14.19763 7.40652,-14.5293 -0.0785,-0.4094 -1.05207,-0.87088 -3.03171,-1.43717 -11.84471,-3.3882 -23.25688,-3.85899 -33.39955,-1.37786 -4.02332,0.9842 -9.10261,2.87496 -10.27624,3.8253 l -0.81364,0.65885 3.74633,6.43499 3.74632,6.43498 m 1.10177,-1.95222 c -0.64438,-0.82755 -5.96706,-10.23118 -5.67011,-10.28571 1.46528,0.39349 2.78514,2.08265 3.02393,2.34211 1.63123,2.58868 2.78237,4.40566 3.60132,5.2246 0.37612,0.37611 6.8298,-0.48852 7.32229,-0.981 0.19497,-0.19497 -0.86429,-8.71958 -1.25304,-10.08423 -0.11728,-0.41184 0.11577,-0.64881 0.75931,-0.77183 1.11097,-0.21237 1.08848,-0.29002 1.66502,5.74702 0.23011,2.40948 0.48697,4.49216 0.57081,4.62816 0.0839,0.13605 2.39224,0.18853 5.12977,0.11673 3.60781,-0.0947 5.06139,-0.26315 5.2828,-0.61235 0.16801,-0.26497 0.30915,-1.54959 0.31366,-2.85473 0.004,-1.30513 0.11287,-3.48188 0.24091,-4.8372 l 0.23273,-2.46424 h 1.2656 c 1.22685,0 1.25926,0.0363 1.05893,1.18648 -1.08337,6.22008 -1.41724,9.48917 -0.99574,9.74968 0.64153,0.39648 6.54858,1.18437 6.96236,0.92865 0.18944,-0.11714 1.32349,-2.25957 2.52009,-4.7611 2.15207,-4.49885 2.3746,-4.74306 3.93983,-4.32334 0.76775,0.20586 0.67594,0.46629 -2.18781,6.20628 -2.10954,4.22827 -3.13772,5.93439 -3.49395,5.7977 -1.81533,-0.69661 -7.50828,-1.28962 -12.45112,-1.29699 -5.82617,-0.008 -10.25773,0.36398 -14.87793,1.2511 -1.95006,0.37443 -2.72234,0.39902 -2.95966,0.0943 z m 26.46295,-4.99355 c -0.97338,-0.16333 -1.86973,-0.39692 -1.99188,-0.51908 -0.1929,-0.1929 0.87021,-8.55824 1.11928,-8.80731 0.14992,-0.14991 5.87023,0.98101 6.36635,1.25866 0.32729,0.18317 -0.0924,1.38074 -1.52527,4.35164 -1.08725,2.25442 -2.02674,4.07962 -2.08775,4.056 -0.061,-0.0236 -0.90735,-0.17657 -1.88073,-0.33991 z m -14.85886,-1.24311 c -0.01,-0.21006 -0.22071,-2.22025 -0.46866,-4.46707 -0.53267,-4.82697 -0.88603,-4.48141 4.59049,-4.48908 l 3.55638,-0.006 -0.23026,4.47214 c -0.12667,2.45968 -0.24846,4.49439 -0.27072,4.52158 -0.0222,0.0272 -1.64222,0.11687 -3.59993,0.19941 -2.32338,0.0978 -3.56565,0.0174 -3.5773,-0.23199 z"
         id="path3332" />
      <path
         id="path3334"
         d="m 610.64559,419.58935 c 1.68876,-3.37958 7.37237,-13.57936 7.31235,-13.89213 -0.074,-0.38608 -2.30165,-0.98708 -4.16852,-1.5211 -11.16999,-3.1952 -21.60486,-3.48857 -31.16976,-1.14877 -3.9355,0.85758 -7.89629,2.45277 -10.9222,4.33712 l 3.72323,6.50531 3.3423,5.82253 m -0.0252,-1.8427 c -0.37948,-0.95258 -5.75556,-9.98876 -5.75556,-10.27347 3.66475,-0.36462 5.41885,4.99838 7.93881,7.68411 0.35469,0.35469 5.8406,-0.57079 6.30503,-1.03522 0.18387,-0.18386 -0.98557,-9.09833 -1.24843,-10.41036 -0.0833,-0.41563 1.02321,-0.55583 1.63008,-0.67185 1.04767,-0.20026 1.09378,0.29964 1.63747,5.99278 0.21701,2.27223 0.55452,4.37285 0.63358,4.50111 0.0791,0.1283 2.10979,0.2448 4.69138,0.1771 3.40229,-0.0893 4.76339,-0.23853 4.97219,-0.56784 0.15844,-0.24987 0.20153,-1.36099 0.31495,-2.60526 0.0712,-1.24431 0.10646,-3.28353 0.22719,-4.56165 l 0.24783,-2.99235 1.46646,-0.0541 c 1.15618,-0.0427 1.7468,0.10334 1.55788,1.188 -1.02166,5.86576 -1.47397,9.58965 -1.07648,9.83532 0.60499,0.3739 6.03929,1.00754 6.42949,0.76639 0.17866,-0.11047 1.6313,-2.867 2.75973,-5.22603 2.02948,-4.24258 2.67562,-4.28118 4.15168,-3.88537 0.72401,0.19414 0.58126,1.44926 -2.11935,6.86228 -1.98937,3.9874 -3.23274,6.15529 -3.56868,6.02638 -1.71193,-0.65693 -8.11733,-1.3133 -12.7786,-1.32025 -5.49429,-0.008 -10.13732,0.3698 -14.49434,1.20638 -2.59637,0.38618 -3.17494,0.54881 -3.92231,-0.63606 z"
         style="fill:#ff5555;stroke-width:0.344276" />
    </g>
    <g
       id="Pikes_Queen_white"
       transform="translate(-24.211441,-18.091324)">
      <path
         style="fill:#ff1255;fill-opacity:1;stroke-width:0.764121"
         fill="url(#4LyKu8AtUK4gmSHjQsrKja)"
         d="m 673.49888,401.06273 c 0,0 3.59213,-4.01166 8.02327,-4.01166 4.43115,0 8.02327,3.64105 8.02327,8.02327 0,2.71647 -2.67518,5.34809 -2.67518,5.34809 l -12.01814,12.01963 c -0.74729,0.74733 -1.95994,0.74733 -2.70723,0 l -12.0173,-12.01963 c 0,0 -2.67522,-2.63315 -2.67522,-5.34809 0,-4.38222 3.59217,-8.02327 8.02327,-8.02327 4.43117,0 8.02326,4.01166 8.02326,4.01166 z"
         id="path2078" />
      <rect
         style="fill:#ffffff;stroke-width:0.264583"
         id="rect2080"
         width="66.523796"
         height="94.494034"
         x="640.13641"
         y="361.41199"
         ry="6.0476189" />
      <text
         xml:space="preserve"
         style="font-style:normal;font-variant:normal;font-weight:bold;font-stretch:normal;font-size:10.5833px;line-height:1.25;font-family:sans-serif;-inkscape-font-specification:'sans-serif Bold';fill:#ff5555;fill-opacity:1;stroke:none;stroke-width:0.264583"
         x="643.45117"
         y="373.33231"
         id="text2086"><tspan
           id="tspan2084"
           x="643.45117"
           y="373.33231"
           style="font-style:normal;font-variant:normal;font-weight:bold;font-stretch:normal;font-family:sans-serif;-inkscape-font-specification:'sans-serif Bold';fill:#ff5555;stroke-width:0.264583">Q</tspan></text>
      <text
         id="text2090"
         y="-444.47946"
         x="-703.97595"
         style="font-style:normal;font-variant:normal;font-weight:bold;font-stretch:normal;font-size:10.5833px;line-height:1.25;font-family:sans-serif;-inkscape-font-specification:'sans-serif Bold';fill:#ff5555;fill-opacity:1;stroke:none;stroke-width:0.264583"
         xml:space="preserve"
         transform="scale(-1)"><tspan
           style="font-style:normal;font-variant:normal;font-weight:bold;font-stretch:normal;font-family:sans-serif;-inkscape-font-specification:'sans-serif Bold';fill:#ff5555;stroke-width:0.264583"
           y="-444.47946"
           x="-703.97595"
           id="tspan2088">Q</tspan></text>
      <path
         style="fill:#ff5555;stroke-width:0.0989842"
         d="m 657.08857,373.79462 c -0.0884,-0.14311 0.0299,-0.299 0.22725,-0.29944 0.482,-0.001 1.18591,-0.79309 1.36325,-1.53388 0.0681,-0.28449 0.0632,-0.29017 -0.11696,-0.13527 -1.09543,0.94191 -2.69649,0.78037 -3.34554,-0.33754 -0.67336,-1.15978 -0.48761,-1.55825 1.79757,-3.85626 1.353,-1.3606 1.8057,-1.75847 2.00075,-1.75847 0.19486,0 0.64992,0.39891 2.00429,1.75697 2.24871,2.25483 2.44087,2.6453 1.86094,3.78155 -0.58573,1.14762 -2.10599,1.39136 -3.25884,0.52249 l -0.33654,-0.25364 0.0711,0.28856 c 0.0859,0.3486 0.48269,1.04776 0.69431,1.22339 0.0843,0.07 0.32071,0.18476 0.52538,0.25512 0.20467,0.0704 0.37213,0.18775 0.37213,0.26086 0,0.1057 -0.3889,0.13844 -1.89831,0.15979 -1.21425,0.0172 -1.92081,-0.01 -1.96078,-0.0742 z"
         id="path2092" />
      <path
         id="path2094"
         d="m 689.80193,443.46583 c 0.0884,0.14311 -0.0299,0.299 -0.22725,0.29944 -0.482,0.001 -1.18591,0.79309 -1.36325,1.53388 -0.0681,0.28449 -0.0632,0.29017 0.11696,0.13527 1.09543,-0.94191 2.6965,-0.78037 3.34555,0.33754 0.67336,1.15978 0.48761,1.55825 -1.79758,3.85626 -1.353,1.3606 -1.8057,1.75847 -2.00075,1.75847 -0.19486,0 -0.64992,-0.39891 -2.00429,-1.75697 -2.24871,-2.25483 -2.44087,-2.6453 -1.86094,-3.78155 0.58573,-1.14762 2.10599,-1.39136 3.25884,-0.52249 l 0.33654,0.25364 -0.0711,-0.28856 c -0.0859,-0.3486 -0.48269,-1.04776 -0.69431,-1.22339 -0.0843,-0.07 -0.32071,-0.18476 -0.52538,-0.25512 -0.20467,-0.0704 -0.37213,-0.18775 -0.37213,-0.26086 0,-0.1057 0.3889,-0.13844 1.89831,-0.15979 1.21425,-0.0172 1.92081,0.01 1.96078,0.0742 z"
         style="fill:#ff5555;stroke-width:0.0989842" />
      <circle
         r="7.590591"
         cy="413.81421"
         cx="682.31433"
         id="circle3380"
         style="fill:#ffffff;fill-opacity:1;stroke-width:0.225602" />
      <circle
         style="fill:#ffffff;fill-opacity:1;stroke-width:0.135491"
         id="circle3382"
         cx="665.78619"
         cy="413.87985"
         r="4.5587168" />
      <circle
         r="3.1335778"
         cy="413.87985"
         cx="665.78619"
         id="circle3384"
         style="fill:#ff5555;fill-opacity:1;stroke-width:0.0931338" />
      <path
         style="fill:#ffe680;stroke-width:0.460607"
         d="m 660.31631,424.59769 c -0.3302,-0.33018 -0.55273,-1.92339 -0.55273,-3.95708 0,-3.20504 -0.0915,-3.51136 -1.56423,-5.23182 -3.72749,-4.35476 -3.37958,-10.21855 0.85772,-14.45585 3.10589,-3.1059 6.47356,-4.09848 10.24028,-3.01819 1.28135,0.36748 1.55795,0.28205 2.18486,-0.67471 1.06341,-1.62299 0.89301,-2.42834 -0.5489,-2.59424 -1.00519,-0.1156 -1.26667,-0.38347 -1.26667,-1.29727 0,-0.90738 0.26262,-1.18185 1.23877,-1.29457 0.95736,-0.11057 1.27126,-0.42446 1.38182,-1.38182 0.11281,-0.97614 0.38718,-1.23877 1.29457,-1.23877 0.90737,0 1.18184,0.26263 1.29456,1.23877 0.11055,0.95736 0.42446,1.27126 1.38183,1.38182 0.97614,0.11272 1.23877,0.38719 1.23877,1.29457 0,0.9138 -0.2615,1.1816 -1.26668,1.29727 -1.44192,0.1659 -1.61231,0.97125 -0.5489,2.59424 0.62691,0.95676 0.90352,1.04219 2.18485,0.67471 6.84303,-1.96256 14.2745,4.27267 13.54274,11.36276 -0.27038,2.61962 -1.53981,5.47172 -3.03874,6.82732 -0.82544,0.74651 -0.97022,1.40292 -0.97022,4.39879 0,2.12469 -0.21923,3.74056 -0.55273,4.07407 -0.78826,0.78825 -25.74272,0.78825 -26.53097,0 z m 24.32006,-4.04194 c 0,-1.77517 -0.036,-1.81733 -1.1815,-1.38181 -1.67844,0.63813 -7.26978,0.5652 -7.93852,-0.10356 -0.3767,-0.37671 -0.55274,-2.58461 -0.55274,-6.93262 v -6.37988 l 1.59733,-0.6674 c 0.87854,-0.36708 2.14577,-0.6674 2.81609,-0.6674 2.04321,0 4.70741,1.82355 5.7199,3.91506 1.09559,2.26318 1.14778,3.4027 0.25385,5.54218 -0.76923,1.84104 -0.38032,2.05136 1.02574,0.55467 2.36816,-2.52078 2.97474,-6.1945 1.53903,-9.32101 -1.00633,-2.19148 -2.03354,-3.17355 -4.31762,-4.1279 -2.25158,-0.94077 -4.29811,-0.87937 -6.67673,0.20034 -1.8344,0.83267 -1.95759,1.00592 -1.95759,2.75353 0,1.76509 -0.0739,1.86495 -1.38181,1.86495 -1.30784,0 -1.38183,-0.0999 -1.38183,-1.86495 0,-1.74761 -0.12325,-1.92086 -1.95757,-2.75353 -2.37864,-1.07971 -4.42516,-1.14111 -6.67675,-0.20034 -2.28408,0.95435 -3.31128,1.93642 -4.31761,4.1279 -1.43571,3.12651 -0.82913,6.80023 1.53904,9.32101 1.40605,1.49669 1.79496,1.28637 1.02572,-0.55467 -0.91885,-2.19914 -0.83695,-3.73318 0.30812,-5.77053 1.0815,-1.92428 3.78998,-3.68671 5.66563,-3.68671 0.67033,0 1.93757,0.30032 2.8161,0.6674 l 1.59732,0.6674 v 6.37988 c 0,4.34801 -0.17604,6.55591 -0.55272,6.93262 -0.66875,0.66874 -6.2601,0.74165 -7.93853,0.10356 -1.14544,-0.43552 -1.1815,-0.39336 -1.1815,1.38181 v 1.83103 h 11.05458 11.05457 z"
         id="path3386" />
      <path
         id="path3388"
         d="m 660.95641,424.04711 c -0.3114,-0.31139 -0.40817,-2.24717 -0.40817,-4.16504 0,-3.0225 -0.58434,-3.10347 -1.97319,-4.72594 -3.51521,-4.10675 -2.88149,-10.0054 1.11449,-14.00138 2.92903,-2.92902 6.29732,-3.70422 9.84952,-2.68545 1.20837,0.34655 1.70991,0.3627 2.3011,-0.53958 1.00287,-1.53055 1.16533,-3.59001 -0.19446,-3.74646 -0.94794,-0.10902 -1.62879,0.11934 -1.62879,-0.74242 0,-0.85571 0.13466,-0.72939 1.05521,-0.8357 0.90285,-0.10427 1.50345,-0.0947 1.6077,-0.99759 0.10633,-0.92055 0.0444,-1.42562 0.90015,-1.42562 0.8557,0 0.82508,0.53622 0.93137,1.45676 0.10432,0.90284 0.65779,0.81395 1.56065,0.91821 0.92053,0.1063 1.02443,-0.0846 1.02443,0.77107 0,0.86175 -0.5029,0.74463 -1.45083,0.85371 -1.35981,0.15645 -1.39405,2.16845 -0.39119,3.69901 0.59121,0.90228 1.1572,0.93516 2.36554,0.58861 6.45334,-1.8508 13.73299,3.83613 13.04291,10.52244 -0.25498,2.47043 -1.43312,5.39251 -2.8467,6.67091 -0.77842,0.70401 -1.20537,1.28383 -1.20537,4.10909 0,2.00369 -0.0718,3.9344 -0.38635,4.24892 -0.74337,0.74335 -24.52466,0.7698 -25.26802,0.0264 z m 24.2885,-4.92083 c 0.0271,-1.67386 -1.27438,-1.03807 -2.35459,-0.62735 -1.58286,0.6018 -6.19727,0.4566 -6.82792,-0.17401 -0.35525,-0.35526 -0.40552,-2.16614 -0.40552,-6.26654 l -0.0392,-5.72619 1.40955,-0.62955 c 0.81987,-0.36618 1.82985,-0.57161 2.46198,-0.57161 1.92686,0 3.99482,1.1768 4.94964,3.1492 1.03321,2.13429 1.08242,3.20892 0.23939,5.22655 -0.72542,1.7362 -0.24527,3.38842 1.3206,2.24891 2.58851,-1.88372 3.9582,-7.53777 2.60426,-10.48623 -0.94903,-2.06668 -2.99624,-4.04822 -5.15024,-4.94822 -2.12335,-0.88719 -4.88656,-0.48205 -7.1297,0.53617 -1.72994,0.78524 -1.69463,1.60531 -1.85683,3.2454 -0.1646,1.66431 0.37632,1.3528 -0.85709,1.3528 -1.23336,0 -0.78093,0.30354 -0.95524,-1.34186 -0.17362,-1.63892 0.0882,-2.45017 -1.64175,-3.23541 -2.24318,-1.01822 -4.94615,-1.44651 -7.06951,-0.55932 -2.15401,0.9 -4.31175,2.4183 -5.26077,4.48498 -1.35393,2.94846 -0.54315,7.71382 1.69016,10.09104 1.32598,1.41146 2.94463,1.48804 2.21919,-0.24816 -0.86653,-2.07389 -1.03066,-4.48891 0.19327,-6.32182 1.18417,-1.77335 2.95722,-2.99849 4.72605,-2.99849 0.63216,0 1.63799,0.0112 2.4782,0.32787 l 1.67067,0.62966 -0.12289,5.79727 c -0.0869,4.09948 -0.11106,6.0731 -0.46629,6.42836 -0.63068,0.63064 -5.2188,0.59097 -6.80164,-0.0108 -1.08021,-0.41072 -2.29224,-0.61346 -2.26981,1.06047 l 0.0455,3.39657 11.223,0.005 11.91612,-0.0364 z"
         style="fill:#ff5555;stroke-width:0.434375" />
    </g>
    <g
       id="Pikes_King_white"
       transform="translate(-31.632546,-18.649949)">
      <path
         id="path2132"
         d="m 751.42438,401.62134 c 0,0 3.59213,-4.01166 8.02327,-4.01166 4.43115,0 8.02327,3.64105 8.02327,8.02327 0,2.71647 -2.67518,5.34809 -2.67518,5.34809 l -12.01814,12.01963 c -0.74729,0.74733 -1.95994,0.74733 -2.70723,0 l -12.0173,-12.01963 c 0,0 -2.67522,-2.63315 -2.67522,-5.34809 0,-4.38222 3.59217,-8.02327 8.02327,-8.02327 4.43117,0 8.02326,4.01166 8.02326,4.01166 z"
         fill="url(#4LyKu8AtUK4gmSHjQsrKja)"
         style="fill:#ff1255;fill-opacity:1;stroke-width:0.764121" />
      <rect
         ry="6.0476189"
         y="361.97061"
         x="718.06189"
         height="94.494034"
         width="66.523796"
         id="rect2134"
         style="fill:#ffffff;stroke-width:0.264583" />
      <text
         id="text2140"
         y="374.4201"
         x="721.90582"
         style="font-style:normal;font-variant:normal;font-weight:bold;font-stretch:normal;font-size:10.5833px;line-height:1.25;font-family:sans-serif;-inkscape-font-specification:'sans-serif Bold';fill:#ff5555;fill-opacity:1;stroke:none;stroke-width:0.264583"
         xml:space="preserve"><tspan
           style="font-style:normal;font-variant:normal;font-weight:bold;font-stretch:normal;font-family:sans-serif;-inkscape-font-specification:'sans-serif Bold';fill:#ff5555;stroke-width:0.264583"
           y="374.4201"
           x="721.90582"
           id="tspan2138">K</tspan></text>
      <text
         transform="scale(-1)"
         xml:space="preserve"
         style="font-style:normal;font-variant:normal;font-weight:bold;font-stretch:normal;font-size:10.5833px;line-height:1.25;font-family:sans-serif;-inkscape-font-specification:'sans-serif Bold';fill:#ff5555;fill-opacity:1;stroke:none;stroke-width:0.264583"
         x="-780.84308"
         y="-443.97974"
         id="text2144"><tspan
           id="tspan2142"
           x="-780.84308"
           y="-443.97974"
           style="font-style:normal;font-variant:normal;font-weight:bold;font-stretch:normal;font-family:sans-serif;-inkscape-font-specification:'sans-serif Bold';fill:#ff5555;stroke-width:0.264583">K</tspan></text>
      <path
         id="path2146"
         d="m 735.01407,374.35323 c -0.0884,-0.14311 0.0299,-0.299 0.22725,-0.29944 0.482,-10e-4 1.18591,-0.79309 1.36325,-1.53388 0.0681,-0.28449 0.0632,-0.29017 -0.11696,-0.13527 -1.09543,0.94191 -2.69649,0.78037 -3.34554,-0.33754 -0.67336,-1.15978 -0.48761,-1.55825 1.79757,-3.85626 1.353,-1.3606 1.8057,-1.75847 2.00075,-1.75847 0.19486,0 0.64992,0.39891 2.00429,1.75697 2.24871,2.25483 2.44087,2.6453 1.86094,3.78155 -0.58573,1.14762 -2.10599,1.39136 -3.25884,0.52249 l -0.33654,-0.25364 0.0711,0.28856 c 0.0859,0.3486 0.48269,1.04776 0.69431,1.22339 0.0843,0.07 0.32071,0.18476 0.52538,0.25512 0.20467,0.0704 0.37213,0.18775 0.37213,0.26086 0,0.1057 -0.3889,0.13844 -1.89831,0.15979 -1.21425,0.0172 -1.92081,-0.01 -1.96078,-0.0742 z"
         style="fill:#ff5555;stroke-width:0.0989842" />
      <path
         style="fill:#ff5555;stroke-width:0.0989842"
         d="m 767.72743,444.02444 c 0.0884,0.14311 -0.0299,0.299 -0.22725,0.29944 -0.482,0.001 -1.18591,0.79309 -1.36325,1.53388 -0.0681,0.28449 -0.0632,0.29017 0.11696,0.13527 1.09543,-0.94191 2.6965,-0.78037 3.34555,0.33754 0.67336,1.15978 0.48761,1.55825 -1.79758,3.85626 -1.353,1.3606 -1.8057,1.75847 -2.00075,1.75847 -0.19486,0 -0.64992,-0.39891 -2.00429,-1.75697 -2.24871,-2.25483 -2.44087,-2.6453 -1.86094,-3.78155 0.58573,-1.14762 2.10599,-1.39136 3.25884,-0.52249 l 0.33654,0.25364 -0.0711,-0.28856 c -0.0859,-0.3486 -0.48269,-1.04776 -0.69431,-1.22339 -0.0843,-0.07 -0.32071,-0.18476 -0.52538,-0.25512 -0.20467,-0.0704 -0.37213,-0.18775 -0.37213,-0.26086 0,-0.1057 0.3889,-0.13844 1.89831,-0.15979 1.21425,-0.0172 1.92081,0.01 1.96078,0.0742 z"
         id="path2148" />
      <path
         style="fill:#ff5555;stroke-width:0.121648"
         d="m 751.705,410.85387 c -1.34626,1.15759 -3.27659,0.85475 -4.07425,-0.51914 -0.82755,-1.42534 -0.59925,-1.91504 2.20917,-4.73924 1.66279,-1.67214 2.21916,-2.16111 2.45886,-2.16111 0.23948,0 0.79874,0.49025 2.46322,2.15927 2.76361,2.77112 2.99976,3.25101 2.28705,4.64743 -0.71985,1.41038 -2.58821,1.70994 -4.00503,0.64212 -0.7585,-0.56121 -0.75237,-0.55929 -1.33902,-0.0293 z"
         id="path2156" />
      <path
         style="fill:#ff5555;stroke-width:0.160482"
         d="m 748.55827,414.34324 c -1.87791,-1.87793 -3.41441,-3.519 -3.41441,-3.64682 0,-0.30358 6.75766,-7.06123 7.06122,-7.06123 0.30359,0 7.06125,6.75765 7.06125,7.06123 0,0.12788 -1.5365,1.76889 -3.41441,3.64682 -1.87793,1.87791 -3.51899,3.41441 -3.64684,3.41441 -0.12788,0 -1.76888,-1.5365 -3.64681,-3.41441 z"
         id="path3406" />
      <path
         id="path3408"
         d="m 750.08811,412.81342 c -1.09016,-1.09015 -1.9821,-2.04279 -1.9821,-2.117 0,-0.17623 3.92286,-4.09908 4.09908,-4.09908 0.17623,0 4.09909,3.92285 4.09909,4.09908 0,0.0742 -0.89194,1.02685 -1.9821,2.117 -1.09014,1.09014 -2.04278,1.98208 -2.11699,1.98208 -0.0742,0 -1.02684,-0.89194 -2.11698,-1.98208 z"
         style="fill:#ffffff;stroke-width:0.0931606" />
      <circle
         style="fill:#ffffff;fill-opacity:1;stroke-width:0.135491"
         id="circle3410"
         cx="743.74127"
         cy="414.38651"
         r="4.5587168" />
      <circle
         r="3.1335778"
         cy="414.38651"
         cx="743.74127"
         id="circle3412"
         style="fill:#ff5555;fill-opacity:1;stroke-width:0.0931338" />
      <circle
         r="4.5587168"
         cy="414.40192"
         cx="760.29858"
         id="circle3414"
         style="fill:#ffffff;fill-opacity:1;stroke-width:0.135491" />
      <circle
         style="fill:#ff5555;fill-opacity:1;stroke-width:0.0931338"
         id="circle3416"
         cx="760.29858"
         cy="414.40192"
         r="3.1335778" />
      <path
         style="fill:#ffffff;fill-opacity:1;stroke-width:0.185774"
         fill="url(#4LyKu8AtUK4gmSHjQsrKja)"
         d="m 751.44551,407.99522 c 0,0 0.87778,-0.97036 1.96058,-0.97036 1.0828,0 1.96058,0.88071 1.96058,1.94071 0,0.65708 -0.65371,1.29363 -0.65371,1.29363 l -2.93678,2.90737 c -0.1826,0.18077 -0.47893,0.18077 -0.66154,0 l -2.93657,-2.90737 c 0,0 -0.65372,-0.63692 -0.65372,-1.29363 0,-1.06 0.87779,-1.94071 1.96058,-1.94071 1.08281,0 1.96058,0.97036 1.96058,0.97036 z"
         id="path3418" />
      <path
         style="fill:#ffe680;stroke-width:0.492614"
         d="m 734.03736,424.73789 c -0.15733,-0.40988 -0.15733,-1.0806 0,-1.49048 0.24911,-0.64919 2.52579,-0.72854 17.66367,-0.61577 l 17.3777,0.1294 v 1.23154 1.23154 l -17.3777,0.12939 c -15.13788,0.11286 -17.41456,0.0333 -17.66367,-0.61577 z m 1.1229,-8.0113 c -0.16589,-1.55791 -0.44802,-4.88305 -0.62692,-7.38923 -0.23899,-3.34791 -0.50256,-4.55668 -0.99352,-4.55668 -1.0014,0 -2.63871,-1.83401 -2.63871,-2.95569 0,-1.26876 1.68693,-2.95569 2.95569,-2.95569 1.59694,0 3.10261,1.85161 2.78738,3.42782 -0.24603,1.23006 0.0553,1.58031 3.27382,3.80622 1.94963,1.34832 3.81093,2.60617 4.1362,2.79521 0.3979,0.23124 1.4954,-1.55503 3.35382,-5.45853 2.71325,-5.69905 2.74791,-5.82689 1.94901,-7.1873 -1.49748,-2.55001 0.29662,-5.24203 3.03545,-4.55462 1.86525,0.46814 2.53687,2.44299 1.4912,4.38468 l -0.85128,1.58072 2.75965,5.80571 c 1.51782,3.19314 2.91895,5.73663 3.11365,5.6522 0.19469,-0.0844 2.05251,-1.34962 4.12844,-2.81154 3.4355,-2.41931 3.75015,-2.77969 3.50352,-4.01275 -0.31523,-1.57621 1.19044,-3.42782 2.78738,-3.42782 1.26876,0 2.95569,1.68693 2.95569,2.95569 0,1.12168 -1.63731,2.95569 -2.63871,2.95569 -0.49096,0 -0.75453,1.20877 -0.99352,4.55668 -0.17892,2.50618 -0.46103,5.83132 -0.62692,7.38923 l -0.30164,2.83253 H 751.59092 735.4619 Z"
         id="path3420" />
      <path
         id="path3422"
         d="m 734.39934,423.45566 c 0.24006,-0.56482 2.76638,-0.49574 17.35397,-0.45611 l 17.09818,0.0465 c -0.0448,0.58142 -0.038,1.19486 -0.038,1.80028 l -17.05947,0.0984 c -14.5874,0.0842 -17.07105,0.29867 -17.31111,-0.26608 -0.15809,-0.41847 -0.30412,-0.68298 -0.0435,-1.22298 z m 1.3671,-7.33407 c -0.15986,-1.35542 -0.43173,-4.24841 -0.60412,-6.42887 -0.23031,-2.9128 -0.64629,-5.41615 -1.1194,-5.41615 -0.96497,0 -2.46075,-1.48598 -2.46075,-2.46188 0,-1.10386 1.04988,-2.18907 2.2725,-2.18907 1.53885,0 2.44241,1.39102 2.16598,2.7898 -0.21251,1.07535 0.57196,2.41638 3.67342,4.353 1.87872,1.17309 4.21916,2.81727 4.5326,2.98175 0.38342,0.20118 1.57976,-1.71494 3.37059,-5.11112 2.61457,-4.95837 3.24915,-6.83761 2.4793,-8.02121 -1.44302,-2.2186 -0.50478,-4.99859 2.13443,-4.40053 1.79742,0.4073 2.19894,2.17968 1.1913,3.86901 l -0.95725,1.68887 3.03849,6.81177 c 1.27901,2.86732 3.08206,5.53172 3.26967,5.45826 0.1876,-0.0735 2.30688,-1.81038 4.3073,-3.0823 3.31055,-2.10489 4.27109,-3.26631 4.03344,-4.33912 -0.30378,-1.37135 0.60712,-3.11823 2.14598,-3.11823 1.22262,0 2.48211,1.15841 2.48211,2.26227 0,0.9759 -1.42332,2.51392 -2.3883,2.51392 -0.4731,0 -1.23102,2.4979 -1.46132,5.4107 -0.17241,2.18046 -0.44426,5.07345 -0.60412,6.42887 l -0.19426,2.50314 -15.63884,-0.0387 -15.3781,2.6e-4 z"
         style="fill:#ff5555;stroke-width:0.451056" />
    </g>
  </g>
</svg>
